<?xml version="1.0" encoding="UTF-8"?>
<svg width="16px" height="14px" viewBox="0 0 16 14" version="1.1" xmlns="http://www.w3.org/2000/svg" xmlns:xlink="http://www.w3.org/1999/xlink">
    <!-- Generator: Sketch 64 (93537) - https://sketch.com -->
    <title>Group 5</title>
    <desc>Created with Sketch.</desc>
    <g id="Page-1" stroke="none" stroke-width="1" fill="none" fill-rule="evenodd" opacity="0.7">
        <g id="Main" transform="translate(-48.000000, -698.000000)" fill="#FFFFFF">
            <g id="Group-396" transform="translate(47.000000, 663.000000)">
                <g id="Group-372" transform="translate(1.000000, 35.000000)">
                    <g id="Group-5" transform="translate(0.400000, 0.399938)">
                        <path d="M4.801389,7.638978 L0.981944,7.638978 L0.981944,8.838978 L4.801389,8.838978 L4.801389,7.638978 Z M0.981944,7.638978 C0.43974,7.638978 -2.98427949e-13,8.078718 -2.98427949e-13,8.620922 L1.2,8.620922 C1.2,8.74146 1.102482,8.838978 0.981944,8.838978 L0.981944,7.638978 Z M-2.98427949e-13,8.620922 L-2.98427949e-13,12.440367 L1.2,12.440367 L1.2,8.620922 L-2.98427949e-13,8.620922 Z M-2.98427949e-13,12.440367 C-2.98427949e-13,12.982571 0.43974,13.422311 0.981944,13.422311 L0.981944,12.222311 C1.102482,12.222311 1.2,12.319829 1.2,12.440367 L-2.98427949e-13,12.440367 Z M0.981944,13.422311 L4.801389,13.422311 L4.801389,12.222311 L0.981944,12.222311 L0.981944,13.422311 Z M4.801389,13.422311 C5.343593,13.422311 5.783333,12.982571 5.783333,12.440367 L4.583333,12.440367 C4.583333,12.319829 4.680852,12.222311 4.801389,12.222311 L4.801389,13.422311 Z M5.783333,12.440367 L5.783333,8.620922 L4.583333,8.620922 L4.583333,12.440367 L5.783333,12.440367 Z M5.783333,8.620922 C5.783333,8.078718 5.343593,7.638978 4.801389,7.638978 L4.801389,8.838978 C4.680852,8.838978 4.583333,8.74146 4.583333,8.620922 L5.783333,8.620922 Z" id="Fill-368"></path>
                        <path d="M9.384702,3.819519 L5.565257,3.819519 L5.565257,5.01952 L9.384702,5.01952 L9.384702,3.819519 Z M5.565257,3.819519 C5.023053,3.819519 4.583313,4.25926 4.583313,4.801464 L5.783313,4.801464 C5.783313,4.922002 5.685795,5.01952 5.565257,5.01952 L5.565257,3.819519 Z M4.583313,4.801464 L4.583313,12.440353 L5.783313,12.440353 L5.783313,4.801464 L4.583313,4.801464 Z M4.583313,12.440353 C4.583313,12.982558 5.023053,13.422298 5.565257,13.422298 L5.565257,12.222298 C5.685795,12.222298 5.783313,12.319816 5.783313,12.440353 L4.583313,12.440353 Z M5.565257,13.422298 L9.384702,13.422298 L9.384702,12.222298 L5.565257,12.222298 L5.565257,13.422298 Z M9.384702,13.422298 C9.926906,13.422298 10.366646,12.982558 10.366646,12.440353 L9.166646,12.440353 C9.166646,12.319816 9.264165,12.222298 9.384702,12.222298 L9.384702,13.422298 Z M10.366646,12.440353 L10.366646,4.801464 L9.166646,4.801464 L9.166646,12.440353 L10.366646,12.440353 Z M10.366646,4.801464 C10.366646,4.25926 9.926906,3.819519 9.384702,3.819519 L9.384702,5.01952 C9.264165,5.01952 9.166646,4.922002 9.166646,4.801464 L10.366646,4.801464 Z" id="Fill-369"></path>
                        <path d="M13.968076,-1.13686838e-13 L10.148631,-1.13686838e-13 L10.148631,1.200001 L13.968076,1.200001 L13.968076,-1.13686838e-13 Z M10.148631,-1.13686838e-13 C9.606427,-1.13686838e-13 9.166687,0.439741 9.166687,0.981945 L10.366687,0.981945 C10.366687,1.102483 10.269169,1.200001 10.148631,1.200001 L10.148631,-1.13686838e-13 Z M9.166687,0.981945 L9.166687,12.440278 L10.366687,12.440278 L10.366687,0.981945 L9.166687,0.981945 Z M9.166687,12.440278 C9.166687,12.982483 9.606427,13.422224 10.148631,13.422224 L10.148631,12.222223 C10.269169,12.222223 10.366687,12.319741 10.366687,12.440278 L9.166687,12.440278 Z M10.148631,13.422224 L13.968076,13.422224 L13.968076,12.222223 L10.148631,12.222223 L10.148631,13.422224 Z M13.968076,13.422224 C14.51028,13.422224 14.95002,12.982483 14.95002,12.440278 L13.75002,12.440278 C13.75002,12.319741 13.847539,12.222223 13.968076,12.222223 L13.968076,13.422224 Z M14.95002,12.440278 L14.95002,0.981945 L13.75002,0.981945 L13.75002,12.440278 L14.95002,12.440278 Z M14.95002,0.981945 C14.95002,0.439741 14.51028,-1.13686838e-13 13.968076,-1.13686838e-13 L13.968076,1.200001 C13.847539,1.200001 13.75002,1.102483 13.75002,0.981945 L14.95002,0.981945 Z" id="Fill-370"></path>
                    </g>
                </g>
            </g>
        </g>
    </g>
</svg>