<?xml version="1.0" encoding="UTF-8"?>
<svg width="32px" height="30px" viewBox="0 0 32 30" version="1.1" xmlns="http://www.w3.org/2000/svg" xmlns:xlink="http://www.w3.org/1999/xlink">
    <!-- Generator: Sketch 64 (93537) - https://sketch.com -->
    <title>Fill 79</title>
    <desc>Created with Sketch.</desc>
    <g id="Page-1" stroke="none" stroke-width="1" fill="none" fill-rule="evenodd">
        <g id="Support" transform="translate(-356.000000, -1400.000000)" fill="#FFC701">
            <path d="M379.796701,1412.17436 C379.796701,1412.17436 381.090831,1411.19031 380.10573,1410.20626 C379.120628,1409.22221 378.16295,1410.49209 378.16295,1410.49209 L368.260244,1420.39692 C368.260244,1420.39692 365.940931,1423.3902 364.17745,1421.5803 C362.416079,1419.76831 365.359782,1417.49645 365.359782,1417.49645 L378.34436,1404.51291 C378.34436,1404.51291 381.374551,1401.17474 384.223333,1404.02141 C387.067896,1406.86914 383.720234,1409.90567 383.720234,1409.90567 L369.130383,1424.49554 C369.130383,1424.49554 364.462223,1429.88829 360.141061,1425.56607 C355.819901,1421.24385 361.265386,1416.62842 361.265386,1416.62842 L372.341985,1405.54864 C372.341985,1405.54864 373.582328,1404.51291 372.653125,1403.58054 C371.719704,1402.64923 370.686084,1403.89168 370.686084,1403.89168 L357.975735,1416.60205 C357.975735,1416.60205 353.141878,1421.6431 358.499822,1427 C363.857766,1432.36006 369.15886,1427.78308 369.15886,1427.78308 L386.628078,1410.31173 C386.628078,1410.31173 389.667247,1406.66927 385.500074,1402.49998 C381.332901,1398.3307 377.933021,1401.6135 377.933021,1401.6135 L362.901246,1416.64319 C362.901246,1416.64319 359.051542,1419.77463 362.544753,1423.26574 C366.037963,1426.76106 369.112453,1422.8544 369.112453,1422.8544 L379.796701,1412.17436 Z" id="Fill-79"></path>
        </g>
    </g>
</svg>