<?xml version="1.0" encoding="UTF-8"?>
<svg width="24px" height="26px" viewBox="0 0 24 26" version="1.1" xmlns="http://www.w3.org/2000/svg" xmlns:xlink="http://www.w3.org/1999/xlink">
    <!-- Generator: Sketch 64 (93537) - https://sketch.com -->
    <title>Group 20</title>
    <desc>Created with Sketch.</desc>
    <g id="Page-1" stroke="none" stroke-width="1" fill="none" fill-rule="evenodd">
        <g id="Main" transform="translate(-1782.000000, -51.000000)" fill="#FFFFFF">
            <g id="Group-20" transform="translate(1782.000000, 51.000000)">
                <path d="M11.800957,0 L12.0516728,0.003759445 C16.4647683,0.13627745 20.001595,3.75542298 20.001595,8.200638 C20.001595,12.253669 20.868742,14.785878 21.679649,16.272543 C22.086483,17.018406 22.484608,17.511252 22.765316,17.807554 C22.905931,17.955982 23.017765,18.055805 23.087397,18.113831 C23.122225,18.142855 23.146528,18.16145 23.158623,18.170454 L23.158623,18.170454 L23.157885,18.170393 L23.251505,18.2412611 C23.550579,18.4965451 23.675094,18.9079607 23.559004,19.291378 C23.431307,19.713137 23.04258,20.001595 22.601913,20.001595 L22.601913,20.001595 L1,20.001595 L0.881262951,19.9945597 C0.490812628,19.9480464 0.158997091,19.6747953 0.042908,19.291378 C-0.08479,18.869619 0.078643,18.413982 0.4453,18.169544 L0.444251916,18.1704882 C0.455385,18.16145 0.479688,18.142855 0.514517,18.113831 C0.584148,18.055805 0.695982,17.955982 0.836597,17.807554 C1.117305,17.511252 1.515429,17.018406 1.922264,16.272543 C2.733171,14.785878 3.600319,12.253669 3.600319,8.200638 L3.600319,8.200638 L3.60407844,7.94992217 C3.73659641,3.53682673 7.355741,0 11.800957,0 L11.800957,0 Z M12.0282742,2.00408942 L11.800957,2 L11.5736397,2.00408942 C8.25442681,2.12370326 5.600319,4.85221942 5.600319,8.200638 L5.600319,8.200638 L5.59702673,8.64514128 C5.53590647,12.7449076 4.63319486,15.479157 3.678055,17.230248 C3.52345923,17.5136731 3.36800773,17.7703756 3.21528179,18.0020807 L20.3866313,18.0020807 C20.2339056,17.7703756 20.0784545,17.5136731 19.923859,17.230248 C18.934607,15.416618 18.001595,12.54835 18.001595,8.200638 L18.001595,8.200638 L17.9975056,7.97332068 C17.8778916,4.65410686 15.1493736,2 11.800957,2 Z" id="Fill-18"></path>
                <path d="M14.741977,24.303885 C15.019098,23.826159 14.856475,23.214235 14.378749,22.937114 C13.901023,22.659993 13.289098,22.822616 13.011977,23.300342 L14.741977,24.303885 Z M10.589609,23.300342 C10.312488,22.822616 9.700563,22.659993 9.222837,22.937114 C8.745111,23.214235 8.582488,23.826159 8.859609,24.303885 L10.589609,23.300342 Z M13.011977,23.300342 C12.761481,23.732171 12.300017,23.997968 11.800793,23.997968 L11.800793,25.997968 C13.013085,25.997968 14.133683,25.352519 14.741977,24.303885 L13.011977,23.300342 Z M11.800793,23.997968 C11.301569,23.997968 10.840106,23.732171 10.589609,23.300342 L8.859609,24.303885 C9.467903,25.352519 10.588501,25.997968 11.800793,25.997968 L11.800793,23.997968 Z" id="Fill-19"></path>
            </g>
        </g>
    </g>
</svg>
