<?xml version="1.0" encoding="UTF-8"?>
<svg width="24px" height="24px" viewBox="0 0 24 24" version="1.1" xmlns="http://www.w3.org/2000/svg" xmlns:xlink="http://www.w3.org/1999/xlink">
    <!-- Generator: Sketch 64 (93537) - https://sketch.com -->
    <title>Group 123</title>
    <desc>Created with Sketch.</desc>
    <g id="Page-1" stroke="none" stroke-width="1" fill="none" fill-rule="evenodd">
        <g id="FAQ" transform="translate(-355.000000, -1219.000000)" fill="#56CCF2">
            <g id="Group-123" transform="translate(355.000000, 1219.000000)">
                <g id="Group-119">
                    <path d="M15.265625,0.700001 L15.4757465,0.704739784 C17.8136546,0.810397672 19.7018911,2.67008876 19.8527742,4.99613134 L22.570312,4.996876 C22.973333,4.996876 23.299999,5.323542 23.299999,5.726563 L23.299999,5.726563 L23.299999,21.710938 L23.2934954,21.8554117 C23.2203213,22.6644266 22.5387587,23.3 21.710938,23.3 L21.710938,23.3 L2.289062,23.3 L2.1445883,23.2934964 C1.33557344,23.2203221 0.7,22.5387587 0.7,21.710938 L0.7,21.710938 L0.7,11.140625 L0.706660705,11.0416053 C0.754974736,10.6854282 1.06025208,10.410938 1.429688,10.410938 L1.429688,10.410938 L6.973,10.410001 L6.973437,5.726563 L6.98009771,5.62754334 C7.02841174,5.27136618 7.33368908,4.996876 7.703125,4.996876 L7.703125,4.996876 L10.6783962,4.99623056 C10.8329943,2.59482384 12.8266008,0.700001 15.265625,0.700001 L15.265625,0.700001 Z M15.265625,1.3 L15.0660257,1.30488341 C12.9501392,1.40865838 11.26875,3.15342191 11.26875,5.296875 L11.26875,5.296875 L11.26875,5.596875 L7.703125,5.596875 L7.66212395,5.60348415 C7.61058168,5.62063468 7.573438,5.669243 7.573438,5.726563 L7.573438,5.726563 L7.573438,11.010938 L1.429688,11.010938 L1.38868685,11.0175471 C1.33714432,11.0346976 1.3,11.0833058 1.3,11.140625 L1.3,11.140625 L1.3,21.710938 L1.30666976,21.8260805 C1.36393318,22.317235 1.78285593,22.700001 2.289062,22.700001 L2.289062,22.700001 L21.710938,22.700001 C22.256083,22.700001 22.700001,22.256083 22.700001,21.710938 L22.700001,21.710938 L22.700001,5.726563 L22.6933917,5.68556185 C22.676241,5.63401932 22.627632,5.596875 22.570312,5.596875 L22.570312,5.596875 L19.262501,5.596875 L19.262501,5.296875 L19.2575994,5.09771333 C19.153443,2.98620265 17.4024861,1.3 15.265625,1.3 L15.265625,1.3 Z M12.128125,19.864064 L12.128125,21.710938 L12.1214579,21.8098871 C12.0730991,22.1658525 11.7675659,22.440625 11.398438,22.440625 L11.398438,22.440625 L2.289062,22.440625 L2.19011313,22.4339579 C1.83414835,22.3855991 1.559375,22.0800659 1.559375,21.710938 L1.559375,21.710938 L1.559375,19.864064 L12.128125,19.864064 Z M22.440624,19.864064 L22.440624,21.710938 L22.4339569,21.8098871 C22.3855983,22.1658525 22.0800659,22.440625 21.710938,22.440625 L21.710938,22.440625 L12.188982,22.440625 L12.330894,22.040373 L12.3618114,21.9348699 C12.3785836,21.862974 12.3875,21.7880813 12.3875,21.710938 L12.3875,21.710938 L12.3875,19.864064 L22.440624,19.864064 Z M11.528,20.464001 L2.159,20.464001 L2.159375,21.710938 L2.1660163,21.7518101 C2.18324184,21.8032666 2.2320108,21.840626 2.289062,21.840626 L2.289062,21.840626 L11.398438,21.840626 C11.469751,21.840626 11.528125,21.782252 11.528125,21.710938 L11.528125,21.710938 L11.528,20.464001 Z M21.84,20.464001 L12.987,20.464001 L12.9875,21.710938 L12.9822006,21.8408733 L12.9822006,21.8408733 L21.710938,21.840626 C21.782251,21.840626 21.840626,21.782252 21.840626,21.710938 L21.840626,21.710938 L21.84,20.464001 Z M11.26875,5.856251 L11.26875,8.432813 L10.539062,8.432813 L10.4980613,8.43942214 C10.4465193,8.45657264 10.409375,8.5051808 10.409375,8.5625 L10.409375,8.5625 L10.4159841,8.60350115 C10.4331346,8.65504368 10.4817428,8.692188 10.539062,8.692188 L10.539062,8.692188 L12.257812,8.692188 C12.329462,8.692188 12.3875,8.63415 12.3875,8.5625 L12.3875,8.5625 L12.3808908,8.52149934 C12.3637403,8.46995732 12.315132,8.432813 12.257812,8.432813 L12.257812,8.432813 L11.528125,8.432813 L11.528125,5.856251 L19.003124,5.856251 L19.003124,8.432813 L18.273438,8.432813 L18.2324367,8.43942214 C18.180894,8.45657264 18.143749,8.5051808 18.143749,8.5625 L18.143749,8.5625 L18.1503583,8.60350115 C18.167509,8.65504368 18.216118,8.692188 18.273438,8.692188 L18.273438,8.692188 L19.992188,8.692188 C20.063837,8.692188 20.121876,8.63415 20.121876,8.5625 L20.121876,8.5625 L20.1152668,8.52149934 C20.098116,8.46995732 20.0495072,8.432813 19.992188,8.432813 L19.992188,8.432813 L19.262501,8.432813 L19.262501,5.856251 L22.440624,5.856251 L22.440624,19.604687 L12.3875,19.604687 L12.3875,11.140625 L12.3808908,11.0996243 C12.3637403,11.0480823 12.315132,11.010938 12.257812,11.010938 L12.257812,11.010938 L7.832812,11.010938 L7.832812,5.856251 L11.26875,5.856251 Z M12.128125,11.270313 L12.128125,19.604687 L1.559375,19.604687 L1.559375,11.270313 L12.128125,11.270313 Z M11.528,11.870001 L2.159,11.870001 L2.159,19.004001 L11.528,19.004001 L11.528,11.870001 Z M10.668,6.456001 L8.432,6.456001 L8.432,10.410001 L12.257812,10.410938 L12.3568317,10.4175987 C12.713009,10.4659126 12.9875,10.7711891 12.9875,11.140625 L12.9875,11.140625 L12.987,19.004001 L21.84,19.004001 L21.84,6.456001 L19.862,6.456001 L19.862,7.832001 L19.992188,7.832813 L20.0912074,7.83947369 C20.4473838,7.88778758 20.721874,8.19306408 20.721874,8.5625 L20.721874,8.5625 L20.7152133,8.66151968 C20.6668994,9.01769698 20.361623,9.292188 19.992188,9.292188 L19.992188,9.292188 L18.273438,9.292188 L18.1744183,9.28552729 C17.8182412,9.23721326 17.543751,8.93193592 17.543751,8.5625 L17.543751,8.5625 L17.5504117,8.46348034 C17.5987256,8.10730318 17.9040021,7.832813 18.273438,7.832813 L18.273438,7.832813 L18.403,7.832001 L18.403,6.456001 L12.128,6.456001 L12.128,7.832001 L12.257812,7.832813 L12.3568317,7.83947369 C12.713009,7.88778758 12.9875,8.19306408 12.9875,8.5625 L12.9875,8.5625 L12.9808393,8.66151968 C12.9325253,9.01769698 12.6272479,9.292188 12.257812,9.292188 L12.257812,9.292188 L10.539062,9.292188 L10.4400425,9.28552729 C10.083866,9.23721326 9.809375,8.93193592 9.809375,8.5625 L9.809375,8.5625 L9.8160357,8.46348034 C9.86434973,8.10730318 10.169627,7.832813 10.539062,7.832813 L10.539062,7.832813 L10.668,7.832001 L10.668,6.456001 Z M15.265625,1.559376 L15.4638491,1.5645657 C17.4332084,1.66792622 19.003124,3.30218661 19.003124,5.296875 L19.003124,5.296875 L19.003124,5.596875 L11.528125,5.596875 L11.528125,5.296875 L11.5332983,5.09827672 C11.6363358,3.1254247 13.265674,1.559376 15.265625,1.559376 L15.265625,1.559376 Z M15.265625,2.159375 C13.6320565,2.159375 12.2934062,3.40334888 12.1423195,4.99604274 L18.3888515,4.99640544 C18.2370909,3.40696936 16.8940973,2.159375 15.265625,2.159375 Z" id="Fill-117"></path>
                    <path d="M2.289062,23 L21.710938,23 C22.421768,23 23,22.421769 23,21.710938 L23,5.726563 C23,5.489228 22.807648,5.296875 22.570312,5.296875 L19.5625,5.296875 C19.5625,2.927552 17.634949,1 15.265625,1 C12.891266,1 10.96875,2.92067 10.96875,5.296875 L7.703125,5.296875 C7.46579,5.296875 7.273438,5.489228 7.273438,5.726563 L7.273438,10.710938 L1.429688,10.710938 C1.192352,10.710938 1,10.90329 1,11.140625 L1,21.710938 C1,22.421769 1.578232,23 2.289062,23 Z M1.859375,21.710938 L1.859375,20.164063 L11.828125,20.164063 L11.828125,21.710938 C11.828125,21.947937 11.635437,22.140625 11.398438,22.140625 L2.289062,22.140625 C2.052063,22.140625 1.859375,21.947937 1.859375,21.710938 Z M21.710938,22.140625 L12.613647,22.140625 C12.661316,22.00618 12.6875,21.861664 12.6875,21.710938 L12.6875,20.164063 L22.140625,20.164063 L22.140625,21.710938 C22.140625,21.947937 21.947937,22.140625 21.710938,22.140625 Z M15.265625,1.859375 C17.161118,1.859375 18.703125,3.401383 18.703125,5.296875 L11.828125,5.296875 C11.828125,3.397187 13.364761,1.859375 15.265625,1.859375 Z M8.132812,6.15625 L10.96875,6.15625 L10.96875,8.132813 L10.539062,8.132813 C10.301727,8.132813 10.109375,8.325165 10.109375,8.5625 C10.109375,8.799836 10.301727,8.992188 10.539062,8.992188 L12.257812,8.992188 C12.495148,8.992188 12.6875,8.799836 12.6875,8.5625 C12.6875,8.325165 12.495148,8.132813 12.257812,8.132813 L11.828125,8.132813 L11.828125,6.15625 L18.703125,6.15625 L18.703125,8.132813 L18.273438,8.132813 C18.036102,8.132813 17.84375,8.325165 17.84375,8.5625 C17.84375,8.799836 18.036102,8.992188 18.273438,8.992188 L19.992188,8.992188 C20.229523,8.992188 20.421875,8.799836 20.421875,8.5625 C20.421875,8.325165 20.229523,8.132813 19.992188,8.132813 L19.5625,8.132813 L19.5625,6.15625 L22.140625,6.15625 L22.140625,19.304688 L12.6875,19.304688 L12.6875,11.140625 C12.6875,10.90329 12.495148,10.710938 12.257812,10.710938 L8.132812,10.710938 L8.132812,6.15625 Z M11.828125,11.570313 L11.828125,19.304688 L1.859375,19.304688 L1.859375,11.570313 L11.828125,11.570313 Z" id="Fill-118"></path>
                </g>
                <g id="Group-122" transform="translate(3.000000, 12.000000)">
                    <path d="M2.125,0.989062 L2.22401968,0.995722705 C2.58019698,1.04403674 2.854688,1.34931408 2.854688,1.71875 L2.854688,1.71875 L2.84802729,1.81776966 C2.817282,2.04442785 2.68247719,2.23800619 2.49329881,2.34881911 L2.424938,2.383062 L2.425,3.007812 L2.43149365,3.14446304 C2.50023111,3.86398738 3.10619235,4.426562 3.84375,4.426562 L3.84375,4.426562 L3.98013858,4.42005195 C4.6984381,4.35114509 5.2625,3.74379035 5.2625,3.007812 L5.2625,3.007812 L5.261938,2.383062 L5.19420189,2.34881911 C5.00502378,2.23800619 4.87021899,2.04442785 4.8394737,1.81776966 L4.832813,1.71875 L4.8394737,1.61973032 C4.88778773,1.26355302 5.193065,0.989062 5.5625,0.989062 L5.5625,0.989062 L6.421876,0.989062 L6.52089545,0.995722705 C6.87707198,1.04403674 7.151563,1.34931408 7.151563,1.71875 L7.151563,1.71875 L7.1449023,1.81776966 C7.11415701,2.04442785 6.97935222,2.23800619 6.79017411,2.34881911 L6.720938,2.383062 L6.721876,3.007812 L6.71698209,3.17670478 C6.62929929,4.6857111 5.374407,5.885938 3.84375,5.885938 L3.84375,5.885938 L3.67458973,5.881054 C2.16335433,5.79354623 0.965625,4.54105811 0.965625,3.007812 L0.965625,3.007812 L0.964938,2.383062 L0.897327185,2.34881911 C0.708148815,2.23800619 0.573343998,2.04442785 0.542598705,1.81776966 L0.535938,1.71875 L0.542598705,1.61973032 C0.590912736,1.26355302 0.896190083,0.989062 1.265626,0.989062 L1.265626,0.989062 L2.125,0.989062 Z" id="Combined-Shape"></path>
                </g>
            </g>
        </g>
    </g>
</svg>