<?xml version="1.0" encoding="UTF-8"?>
<svg width="27px" height="26px" viewBox="0 0 27 26" version="1.1" xmlns="http://www.w3.org/2000/svg" xmlns:xlink="http://www.w3.org/1999/xlink">
    <!-- Generator: Sketch 64 (93537) - https://sketch.com -->
    <title>Group 16</title>
    <desc>Created with Sketch.</desc>
    <g id="Page-1" stroke="none" stroke-width="1" fill="none" fill-rule="evenodd">
        <g id="Main" transform="translate(-355.000000, -119.000000)" fill="#FFFFFF">
            <g id="Group-16" transform="translate(356.000000, 120.000000)">
                <g id="Group-9" transform="translate(4.000000, 17.000000)">
                    <path d="M7.408406,3.969111 L7.908406,3.969111 L7.908406,3.968592 L7.408406,3.969111 Z M4.37753,0.438019 C2.427289,0.438019 0.846436,2.018871 0.846436,3.969111 L1.846436,3.969111 C1.846436,2.571156 2.979573,1.438019 4.37753,1.438019 L4.37753,0.438019 Z M0.846436,3.969111 C0.846436,5.919158 2.427312,7.499987 4.37753,7.499987 L4.37753,6.499987 C2.97955,6.499987 1.846436,5.366827 1.846436,3.969111 L0.846436,3.969111 Z M4.37753,7.499987 C6.327553,7.499987 7.908406,5.919135 7.908406,3.969111 L6.908406,3.969111 C6.908406,5.36685 5.775269,6.499987 4.37753,6.499987 L4.37753,7.499987 Z M7.908406,3.968592 C7.906378,2.019674 6.327061,0.440047 4.37805,0.438019 L4.37701,1.438019 C5.774455,1.439473 6.906952,2.572093 6.908406,3.969632 L7.908406,3.968592 Z M4.37753,5.385663 C3.595026,5.385663 2.960761,4.751323 2.960761,3.969111 L1.960761,3.969111 C1.960761,5.303682 3.042816,6.385663 4.37753,6.385663 L4.37753,5.385663 Z M2.960761,3.969111 C2.960761,3.186646 3.595064,2.552343 4.37753,2.552343 L4.37753,1.552343 C3.042779,1.552343 1.960761,2.634361 1.960761,3.969111 L2.960761,3.969111 Z M4.37753,2.552343 C5.159741,2.552343 5.794081,3.186609 5.794081,3.969111 L6.794081,3.969111 C6.794081,2.634398 5.7121,1.552343 4.37753,1.552343 L4.37753,2.552343 Z M5.794081,3.969111 C5.794081,4.75136 5.159778,5.385663 4.37753,5.385663 L4.37753,6.385663 C5.712063,6.385663 6.794081,5.303645 6.794081,3.969111 L5.794081,3.969111 Z" id="Fill-7"></path>
                    <path d="M4.37753,0.938019 C2.703431,0.938019 1.346436,2.295013 1.346436,3.969111 C1.346436,5.642992 2.703431,6.999987 4.37753,6.999987 C6.051411,6.999987 7.408406,5.642992 7.408406,3.969111 C7.406665,2.295884 6.050758,0.93976 4.37753,0.938019 L4.37753,0.938019 Z M4.37753,5.885663 C3.318921,5.885663 2.460761,5.027503 2.460761,3.969111 C2.460761,2.910503 3.318921,2.052343 4.37753,2.052343 C5.435921,2.052343 6.294081,2.910503 6.294081,3.969111 C6.294081,5.027503 5.435921,5.885663 4.37753,5.885663 L4.37753,5.885663 Z" id="Fill-8"></path>
                </g>
                <g id="Group-12" stroke="#FFFFFF">
                    <path d="M24.89724,5.218219 L5.223782,5.218219 L4.82267,2.972811 C4.575429,1.59057 3.492011,0.509327 2.109337,0.264915 L0.655058,0.008751 C0.351884,-0.045223 0.062639,0.156965 0.008664,0.459923 C-0.045093,0.763096 0.156878,1.052341 0.460052,1.106318 L1.919771,1.362482 C2.840829,1.525713 3.561874,2.246759 3.725105,3.167818 L5.69737,14.294306 C5.930245,15.625619 7.087008,16.596735 8.43856,16.5954427 L20.13895,16.5954427 C21.368187,16.599131 22.453781,15.794509 22.807884,14.617504 L25.426542,5.936871 C25.475077,5.767546 25.444389,5.585162 25.342968,5.441084 C25.236977,5.301575 25.072224,5.219307 24.89724,5.218219 L24.89724,5.218219 Z M21.743618,14.288648 C21.533377,14.995547 20.881977,15.479147 20.144609,15.4754681 L8.444219,15.4754681 C7.632635,15.477623 6.937924,14.893691 6.800593,14.09364 L5.424448,6.326885 L24.150513,6.326885 L21.743618,14.288648 Z" id="Fill-11"></path>
                </g>
                <g id="Group-15" transform="translate(16.000000, 17.000000)">
                    <path d="M7.108724,3.969111 L7.608724,3.969111 L7.608723,3.968592 L7.108724,3.969111 Z M4.077847,0.438019 C2.127606,0.438019 0.546753,2.018871 0.546753,3.969111 L1.546753,3.969111 C1.546753,2.571156 2.67989,1.438019 4.077847,1.438019 L4.077847,0.438019 Z M0.546753,3.969111 C0.546753,5.919158 2.127629,7.499987 4.077847,7.499987 L4.077847,6.499987 C2.679867,6.499987 1.546753,5.366827 1.546753,3.969111 L0.546753,3.969111 Z M4.077847,7.499987 C6.027871,7.499987 7.608724,5.919135 7.608724,3.969111 L6.608724,3.969111 C6.608724,5.36685 5.475586,6.499987 4.077847,6.499987 L4.077847,7.499987 Z M7.608723,3.968592 C7.606695,2.019674 6.027378,0.440047 4.078368,0.438019 L4.077327,1.438019 C5.474773,1.439473 6.60727,2.572094 6.608724,3.969632 L7.608723,3.968592 Z M4.077847,5.385663 C3.295344,5.385663 2.661078,4.751323 2.661078,3.969111 L1.661078,3.969111 C1.661078,5.303682 2.743133,6.385663 4.077847,6.385663 L4.077847,5.385663 Z M2.661078,3.969111 C2.661078,3.186646 3.295381,2.552343 4.077847,2.552343 L4.077847,1.552343 C2.743096,1.552343 1.661078,2.634361 1.661078,3.969111 L2.661078,3.969111 Z M4.077847,2.552343 C4.860059,2.552343 5.494399,3.186609 5.494399,3.969111 L6.494399,3.969111 C6.494399,2.634398 5.412417,1.552343 4.077847,1.552343 L4.077847,2.552343 Z M5.494399,3.969111 C5.494399,4.75136 4.860096,5.385663 4.077847,5.385663 L4.077847,6.385663 C5.41238,6.385663 6.494399,5.303645 6.494399,3.969111 L5.494399,3.969111 Z" id="Fill-13"></path>
                    <path d="M4.077847,0.938019 C2.403748,0.938019 1.046753,2.295013 1.046753,3.969111 C1.046753,5.642992 2.403748,6.999987 4.077847,6.999987 C5.751729,6.999987 7.108724,5.642992 7.108724,3.969111 C7.106983,2.295884 5.751076,0.93976 4.077847,0.938019 L4.077847,0.938019 Z M4.077847,5.885663 C3.019239,5.885663 2.161078,5.027503 2.161078,3.969111 C2.161078,2.910503 3.019239,2.052343 4.077847,2.052343 C5.136238,2.052343 5.994399,2.910503 5.994399,3.969111 C5.994399,5.027503 5.136238,5.885663 4.077847,5.885663 L4.077847,5.885663 Z" id="Fill-14"></path>
                </g>
            </g>
        </g>
    </g>
</svg>
