<?xml version="1.0" encoding="UTF-8"?>
<svg width="16px" height="16px" viewBox="0 0 16 16" version="1.1" xmlns="http://www.w3.org/2000/svg" xmlns:xlink="http://www.w3.org/1999/xlink">
    <!-- Generator: Sketch 64 (93537) - https://sketch.com -->
    <title>Fill 393</title>
    <desc>Created with Sketch.</desc>
    <g id="Page-1" stroke="none" stroke-width="1" fill="none" fill-rule="evenodd">
        <g id="Main" transform="translate(-48.000000, -776.000000)" fill="#FFFFFF">
            <g id="Group-396" transform="translate(47.000000, 663.000000)">
                <g id="Group-395" transform="translate(1.000000, 113.000000)">
                    <path d="M15.8,10.333334 C15.8,11.634271 14.745382,12.68889 13.444445,12.68889 L13.444445,12.68889 L4.442,12.688001 L1.565685,15.565685 L1.47479463,15.6439057 C1.25156903,15.808591 0.9554255,15.8474508 0.693853,15.739103 C0.394914,15.615279 0.2,15.32357 0.2,15 L0.2,15 L0.2,2.555556 L0.205434331,2.39428014 C0.288312472,1.16856418 1.30882375,0.200001 2.555556,0.200001 L2.555556,0.200001 L13.444445,0.200001 C14.745382,0.200001 15.8,1.254619 15.8,2.555556 L15.8,2.555556 Z M14.2,2.555556 L14.1931027,2.45303133 C14.1430723,2.08424328 13.8269526,1.8 13.444445,1.8 L13.444445,1.8 L2.555556,1.8 L2.45303154,1.80689734 C2.08424412,1.85692767 1.8,2.1730475 1.8,2.555556 L1.8,2.555556 L1.799,13.069001 L3.545426,11.323204 L4.111,11.889001 L4.111111,11.888889 L3.545426,11.323204 C3.695455,11.173175 3.898938,11.088889 4.111111,11.088889 L4.111111,11.088889 L13.444445,11.088889 C13.861727,11.088889 14.2,10.750615 14.2,10.333334 L14.2,10.333334 L14.2,2.555556 Z" id="Fill-393"></path>
                </g>
            </g>
        </g>
    </g>
</svg>
