<?xml version="1.0" encoding="UTF-8"?>
<svg width="24px" height="24px" viewBox="0 0 24 24" version="1.1" xmlns="http://www.w3.org/2000/svg" xmlns:xlink="http://www.w3.org/1999/xlink">
    <!-- Generator: Sketch 64 (93537) - https://sketch.com -->
    <title>Fill 67</title>
    <desc>Created with Sketch.</desc>
    <g id="Page-1" stroke="none" stroke-width="1" fill="none" fill-rule="evenodd">
        <g id="Write-review" transform="translate(-592.000000, -1276.000000)" fill="#40D04F">
            <path d="M609.304565,1284.19232 C609.670776,1284.55853 609.670776,1285.15216 609.304565,1285.51819 L603.015259,1291.80768 C602.649048,1292.17371 602.055603,1292.17371 601.689392,1291.80768 L598.695435,1288.81354 C598.329224,1288.44751 598.329224,1287.85388 598.695435,1287.48785 C599.061462,1287.12164 599.65509,1287.12164 600.021118,1287.48785 L602.352234,1289.81897 L607.978699,1284.19232 C608.34491,1283.82629 608.938538,1283.82629 609.304565,1284.19232 L609.304565,1284.19232 Z M616,1288 C616,1294.633 610.63208,1300 604,1300 C597.367004,1300 592,1294.63208 592,1288 C592,1281.367 597.36792,1276 604,1276 C610.632996,1276 616,1281.36792 616,1288 Z M614.125,1288 C614.125,1282.40338 609.595886,1277.875 604,1277.875 C598.403381,1277.875 593.875,1282.40411 593.875,1288 C593.875,1293.59662 598.404114,1298.125 604,1298.125 C609.596619,1298.125 614.125,1293.59589 614.125,1288 Z" id="Fill-67"></path>
        </g>
    </g>
</svg>