<?xml version="1.0" encoding="UTF-8"?>
<svg width="20px" height="20px" viewBox="0 0 20 20" version="1.1" xmlns="http://www.w3.org/2000/svg" xmlns:xlink="http://www.w3.org/1999/xlink">
    <!-- Generator: Sketch 64 (93537) - https://sketch.com -->
    <title>Fill 214</title>
    <desc>Created with Sketch.</desc>
    <g id="Page-1" stroke="none" stroke-width="1" fill="none" fill-rule="evenodd">
        <g id="Settings" transform="translate(-356.000000, -2117.000000)" fill="#AEFF01">
            <path d="M366,2117 C360.485779,2117 356,2121.48578 356,2127 C356,2132.51422 360.485779,2137 366,2137 C371.514221,2137 376,2132.51422 376,2127 C376,2121.48578 371.514221,2117 366,2117 Z M371.068359,2124.88086 L365.651642,2130.29742 C365.489136,2130.45993 365.275818,2130.54172 365.0625,2130.54172 C364.849182,2130.54172 364.635864,2130.45993 364.473358,2130.29742 L361.765076,2127.58914 C361.439148,2127.26337 361.439148,2126.73663 361.765076,2126.41086 C362.090851,2126.08493 362.617432,2126.08493 362.943359,2126.41086 L365.0625,2128.53 L369.890076,2123.70258 C370.215851,2123.37665 370.742432,2123.37665 371.068359,2123.70258 C371.394135,2124.02835 371.394135,2124.55493 371.068359,2124.88086 L371.068359,2124.88086 Z" id="Fill-214"></path>
        </g>
    </g>
</svg>