<?xml version="1.0" encoding="UTF-8"?>
<svg width="24px" height="24px" viewBox="0 0 24 24" version="1.1" xmlns="http://www.w3.org/2000/svg" xmlns:xlink="http://www.w3.org/1999/xlink">
    <!-- Generator: Sketch 64 (93537) - https://sketch.com -->
    <title>Group 17</title>
    <desc>Created with Sketch.</desc>
    <g id="Page-1" stroke="none" stroke-width="1" fill="none" fill-rule="evenodd">
        <g id="Main" transform="translate(-1840.000000, -148.000000)" fill="#EE2A58">
            <g id="Group-17" transform="translate(1840.000000, 148.000000)">
                <path d="M12,24 C18.6168,24 24,18.616728 24,11.999928 C24,5.383127 18.6168,0 12,0 C5.3832,0 0,5.383127 0,11.999928 C0,18.616728 5.3832,24 12,24 Z M12,2.181818 C17.413818,2.181818 21.818182,6.586182 21.818182,11.999928 C21.818182,17.413673 17.413818,21.818182 12,21.818182 C6.586182,21.818182 2.181818,17.413673 2.181818,11.999928 C2.181818,6.586182 6.586254,2.181818 12,2.181818 Z" id="Fill-47"></path>
                <path d="M13.69319,11.999941 L16.649207,9.044127 C17.11693,8.576398 17.11693,7.818166 16.649207,7.350677 C16.181964,6.883189 15.423262,6.883189 14.956017,7.350677 L11.9999997,10.30697 L9.043982,7.350677 C8.576738,6.883189 7.818036,6.883189 7.350792,7.350677 C6.883069,7.818406 6.883069,8.576638 7.350792,9.044127 L10.306571,11.999941 L7.350792,14.955755 C6.883069,15.423483 6.883069,16.181716 7.350792,16.649204 C7.584294,16.883188 7.89108,16.999821 8.197387,16.999821 C8.503455,16.999821 8.81048,16.883188 9.043982,16.649204 L11.9999997,13.69339 L14.956017,16.649443 C15.189759,16.883427 15.496305,17.000061 15.802612,17.000061 C16.108919,17.000061 16.415706,16.883427 16.649207,16.649443 C17.11693,16.181716 17.11693,15.423483 16.649207,14.955994 L13.69319,11.999941 Z" id="Fill-48"></path>
            </g>
        </g>
    </g>
</svg>