<svg width="10" height="10" viewBox="0 0 10 10" fill="none" xmlns="http://www.w3.org/2000/svg">
<path d="M6.69319 4.99988L9.64921 2.04407C10.1169 1.57634 10.1169 0.818106 9.64921 0.350617C9.18196 -0.116872 8.42326 -0.116872 7.95602 0.350617L5 3.30691L2.04398 0.350617C1.57674 -0.116872 0.818036 -0.116872 0.350792 0.350617C-0.116931 0.818345 -0.116931 1.57658 0.350792 2.04407L3.30657 4.99988L0.350792 7.95569C-0.116931 8.42342 -0.116931 9.18165 0.350792 9.64914C0.584294 9.88313 0.89108 9.99976 1.19739 9.99976C1.50345 9.99976 1.81048 9.88313 2.04398 9.64914L5 6.69333L7.95602 9.64938C8.18976 9.88337 8.49631 10 8.80261 10C9.10892 10 9.41571 9.88337 9.64921 9.64938C10.1169 9.18165 10.1169 8.42342 9.64921 7.95593L6.69319 4.99988Z" fill="#EE2A58"/>
</svg>
