<?xml version="1.0" encoding="UTF-8"?>
<svg width="22px" height="26px" viewBox="0 0 22 26" version="1.1" xmlns="http://www.w3.org/2000/svg" xmlns:xlink="http://www.w3.org/1999/xlink">
    <!-- Generator: Sketch 64 (93537) - https://sketch.com -->
    <title>Group 491</title>
    <desc>Created with Sketch.</desc>
    <g id="Page-1" stroke="none" stroke-width="1" fill="none" fill-rule="evenodd">
        <g id="Analytics-(Dashboard)" transform="translate(-1841.000000, -2320.000000)" fill="#DB214D">
            <g id="Group-491" transform="translate(1841.000000, 2320.000000)">
                <path d="M13.489699,0.700073 L13.6876647,0.706458568 C14.2857379,0.74946622 14.8512607,1.0058269 15.27883,1.432273 C15.753915,1.906362 16.019278,2.550764 16.015536,3.221879 L16.015536,3.221879 L16.0150243,3.6220001 L18.593302,3.622781 C19.7665109,3.62301964 20.7658091,4.4536066 20.9926479,5.58900102 L21.019741,5.753286 C21.1684091,6.89368882 20.5041547,7.97171315 19.4450378,8.36399057 L19.444101,21.992982 L19.4373413,22.2145646 C19.387924,23.0226836 19.0692475,23.7785855 18.537106,24.338359 L18.537106,24.338359 C17.9587685,24.9509411 17.1541657,25.2985388 16.311932,25.299999 L16.311932,25.299999 L5.676557,25.299999 L5.4668206,25.2924613 C4.70145475,25.2386975 3.98084567,24.8994542 3.45062,24.337554 L3.45062,24.337554 L3.31158792,24.1809389 C2.81871921,23.5866951 2.544387,22.8094057 2.544387,21.992982 L2.544387,21.992982 L2.54345023,8.36399057 C1.48433341,7.97171315 0.820079801,6.89368882 0.968747,5.753286 L0.968747,5.753286 L0.995841952,5.58900102 C1.22267981,4.4536066 2.22197714,3.62301964 3.395187,3.622781 L3.395187,3.622781 L5.97202431,3.6220001 L5.972948,3.220207 L5.97984335,3.02148955 C6.02438007,2.42358731 6.2820759,1.8589589 6.709602,1.432331 L6.709602,1.432331 L6.8571459,1.29648311 C7.31407027,0.90836794 7.8972367,0.6951457 8.501242,0.700084 L8.498789,0.700073 L13.489699,0.700073 Z M13.492151,1.300064 L8.496337,1.300064 C7.985811,1.29589 7.494789,1.49662 7.133364,1.857095 L7.133364,1.857095 L7.01890279,1.98192592 C6.72961856,2.3269498 6.57041322,2.764734 6.572943,3.218534 L6.572943,3.218534 L6.17202431,3.2200001 L6.272947,3.220207 L6.572943,3.218534 L6.572948,4.222782 L3.395249,4.222782 L3.24209646,4.22910477 C2.38246015,4.30014197 1.67715633,4.96218289 1.563704,5.830915 C1.443769,6.750917 2.024785,7.617095 2.921351,7.855072 L2.921351,7.855072 L2.84402431,8.1450001 L3.144387,8.145031 L3.144387,21.992982 L3.15111528,22.1951049 C3.19577144,22.8637194 3.46072218,23.4773457 3.886244,23.924963 L3.886244,23.924963 C4.352339,24.418899 4.999912,24.698823 5.677597,24.699998 L5.677597,24.699998 L5.67602431,25.1860001 L5.677077,24.999998 L5.677077,24.699998 L16.310892,24.699998 C16.98882,24.698823 17.63636,24.418884 18.101439,23.925813 L18.101439,23.925813 L18.102244,23.924963 L18.2250245,23.7858086 C18.6178344,23.3060997 18.844103,22.6714838 18.844103,21.992982 L18.844103,21.992982 L18.844103,7.914272 L19.067139,7.855072 L19.2135785,7.80969097 C20.026097,7.52068667 20.5380564,6.69980206 20.424776,5.830848 L20.424776,5.830848 L20.3987084,5.67983314 C20.2171413,4.83674744 19.4694582,4.22295956 18.59318,4.222782 L18.59318,4.222782 L15.415542,4.222782 L15.415542,3.218534 L15.715541,3.220207 L15.8150243,3.2200001 L15.415546,3.218534 C15.4180749,2.764734 15.2588695,2.3269498 14.9695852,1.98192592 L14.855068,1.85704 L14.7300001,1.74291509 C14.384342,1.45454301 13.945951,1.29635378 13.492151,1.300064 L13.492151,1.300064 Z M18.319985,7.89443 L18.319985,21.992982 L18.3151821,22.1475874 C18.245075,23.2718229 17.4148555,24.17588 16.311412,24.17588 L16.311412,24.17588 L5.677077,24.17588 L5.5283467,24.1703406 C4.45074781,24.0895665 3.668505,23.1358208 3.668505,21.992982 L3.668505,21.992982 L3.668505,7.89443 L18.319985,7.89443 Z M17.7190243,8.4940001 L4.26802431,8.4940001 L4.268505,21.992982 L4.27504639,22.1525772 C4.34426537,22.9886408 4.95389676,23.57588 5.677077,23.57588 L5.677077,23.57588 L16.311412,23.57588 C17.079791,23.57588 17.719984,22.912942 17.719984,21.992982 L17.719984,21.992982 L17.7190243,8.4940001 Z M2.69003874,6.15518282 C2.73716338,6.50257781 3.03492475,6.770313 3.395249,6.770313 L3.395249,6.770313 L18.593241,6.770313 C18.986321,6.770313 19.304947,6.451686 19.304947,6.058605 L19.304947,6.058605 L19.2984503,5.96202743 C19.2513256,5.61463335 18.9535643,5.346899 18.593241,5.346899 L18.593241,5.346899 L3.395249,5.346899 L3.2986712,5.35339574 C2.95127635,5.40052037 2.683542,5.69828167 2.683542,6.058605 L2.683542,6.058605 Z M13.489699,1.824192 L13.6239288,1.82884928 C13.9470079,1.85587422 14.2521181,1.99567887 14.484092,2.226671 L14.484092,2.226671 C14.7495974,2.49101304 14.8961592,2.85068964 14.891398,3.224033 L14.891398,3.224033 L14.891422,4.222782 L7.097066,4.222782 L7.097066,3.220207 L7.10234996,3.08464592 C7.13091561,2.76169805 7.27245812,2.457383 7.504509,2.226558 L7.504509,2.226558 L7.6081309,2.13332023 C7.85987416,1.92882233 8.17687287,1.8185965 8.503961,1.824235 L8.498789,1.824192 L13.489699,1.824192 Z M13.49487,2.424148 L8.493617,2.424192 L8.38851174,2.42938294 C8.21514819,2.44973344 8.05263083,2.52749067 7.92776,2.651834 L7.92776,2.651834 L7.85822681,2.73094838 C7.75213311,2.86942878 7.6947945,3.0401785 7.697042,3.216381 L7.697042,3.216381 L7.69702431,3.6220001 L14.2910243,3.6220001 L14.291422,3.216381 L14.2857284,3.11148172 C14.2645649,2.93845797 14.1859722,2.77628283 14.060953,2.652057 L14.060953,2.652057 L14.060728,2.651834 L13.9815022,2.5829049 C13.8426446,2.47762883 13.6715,2.421103 13.49487,2.424148 L13.49487,2.424148 Z M2.09031402,5.92448807 C2.1574848,5.26304097 2.71607525,4.746898 3.395249,4.746898 L3.395249,4.746898 L18.593241,4.746898 C19.317692,4.746898 19.904947,5.334154 19.904947,6.058605 L19.904947,6.058605 L19.898175,6.19272225 C19.8310042,6.85417067 19.2724138,7.370311 18.593241,7.370311 L18.593241,7.370311 L3.395249,7.370311 L3.2611319,7.36353901 C2.59968409,7.29636844 2.083542,6.73777969 2.083542,6.058605 L2.083542,6.058605 Z" id="Fill-489"></path>
                <path d="M2.844387,8.145031 L2.844387,21.992982 C2.844387,22.811481 3.144517,23.580141 3.668813,24.13166 C4.190694,24.684719 4.91698,24.998682 5.677077,25.0000001 L16.311412,25.0000001 C17.071729,24.998682 17.798014,24.684719 18.319676,24.13166 C18.843971,23.580141 19.144102,22.811481 19.144102,21.992982 L19.144102,8.145031 C20.186327,7.868392 20.861675,6.861515 20.72226,5.792066 C20.582623,4.722837 19.671692,3.923 18.593241,3.922781 L15.715541,3.922781 L15.715541,3.220207 C15.718835,2.629386 15.485228,2.062057 15.066977,1.644685 C14.648726,1.227531 14.080519,0.995243 13.489699,1.00000013 L8.498789,1.00000013 C7.907968,0.995243 7.339762,1.227531 6.921511,1.644685 C6.50326,2.062057 6.269654,2.629386 6.272947,3.220207 L6.272947,3.922781 L3.395249,3.922781 C2.316798,3.923 1.405867,4.722837 1.26623,5.792066 C1.126813,6.861515 1.802162,7.868392 2.844387,8.145031 L2.844387,8.145031 Z M16.311412,23.875881 L5.677077,23.875881 C4.716088,23.875881 3.968505,23.050355 3.968505,21.992982 L3.968505,8.194431 L18.019983,8.194431 L18.019983,21.992982 C18.019983,23.050355 17.272402,23.875881 16.311412,23.875881 Z M7.397066,3.220207 C7.393333,2.927541 7.50838,2.645853 7.716078,2.439252 C7.923557,2.232652 8.205904,2.119142 8.498789,2.124191 L13.489699,2.124191 C13.782584,2.119142 14.064931,2.232652 14.27241,2.439252 C14.480108,2.645633 14.595155,2.927541 14.591422,3.220207 L14.591422,3.922781 L7.397066,3.922781 L7.397066,3.220207 Z M3.395249,5.046899 L18.593241,5.046899 C19.152006,5.046899 19.604946,5.499839 19.604946,6.058605 C19.604946,6.61737 19.152006,7.070312 18.593241,7.070312 L3.395249,7.070312 C2.836483,7.070312 2.383542,6.61737 2.383542,6.058605 C2.383542,5.499839 2.836483,5.046899 3.395249,5.046899 L3.395249,5.046899 Z" id="Fill-490"></path>
                <g id="Group-494" transform="translate(10.000000, 9.000000)">
                    <path d="M0.993694,0.395312 C0.517558,0.395312 0.131641,0.781241 0.131641,1.257374 L0.731641,1.257374 C0.731641,1.112604 0.848937,0.995313 0.993694,0.995313 L0.993694,0.395312 Z M0.131641,1.257374 L0.131641,11.880324 L0.731641,11.880324 L0.731641,1.257374 L0.131641,1.257374 Z M0.131641,11.880324 C0.131641,12.35616 0.517482,12.742385 0.993694,12.742385 L0.993694,12.142384 C0.849013,12.142384 0.731641,12.02495 0.731641,11.880324 L0.131641,11.880324 Z M0.993694,12.742385 C1.469906,12.742385 1.855747,12.35616 1.855747,11.880324 L1.255747,11.880324 C1.255747,12.02495 1.138375,12.142384 0.993694,12.142384 L0.993694,12.742385 Z M1.855747,11.880324 L1.855747,1.257374 L1.255747,1.257374 L1.255747,11.880324 L1.855747,11.880324 Z M1.855747,1.257374 C1.855747,0.781241 1.46983,0.395312 0.993694,0.395312 L0.993694,0.995313 C1.138451,0.995313 1.255747,1.112604 1.255747,1.257374 L1.855747,1.257374 Z" id="Fill-492"></path>
                    <path d="M0.993694,0.695312 C0.683248,0.695312 0.431641,0.946922 0.431641,1.257374 L0.431641,11.880324 C0.431641,12.190555 0.683248,12.442385 0.993694,12.442385 C1.304141,12.442385 1.555747,12.190555 1.555747,11.880324 L1.555747,1.257374 C1.555747,0.946922 1.304141,0.695312 0.993694,0.695312 Z" id="Fill-493"></path>
                </g>
                <g id="Group-485" transform="translate(13.000000, 9.000000)">
                    <path d="M1.310108,0.395312 C0.833972,0.395312 0.448047,0.781237 0.448047,1.257374 L1.048047,1.257374 C1.048047,1.112608 1.165342,0.995313 1.310108,0.995313 L1.310108,0.395312 Z M0.448047,1.257374 L0.448047,11.880324 L1.048047,11.880324 L1.048047,1.257374 L0.448047,1.257374 Z M0.448047,11.880324 C0.448047,12.356164 0.833895,12.742385 1.310108,12.742385 L1.310108,12.142384 C1.165419,12.142384 1.048047,12.024946 1.048047,11.880324 L0.448047,11.880324 Z M1.310108,12.742385 C1.78632,12.742385 2.172169,12.356164 2.172169,11.880324 L1.572169,11.880324 C1.572169,12.024946 1.454797,12.142384 1.310108,12.142384 L1.310108,12.742385 Z M2.172169,11.880324 L2.172169,1.257374 L1.572169,1.257374 L1.572169,11.880324 L2.172169,11.880324 Z M2.172169,1.257374 C2.172169,0.781237 1.786244,0.395312 1.310108,0.395312 L1.310108,0.995313 C1.454873,0.995313 1.572169,1.112608 1.572169,1.257374 L2.172169,1.257374 Z" id="Fill-483"></path>
                    <path d="M1.310108,0.695312 C0.999657,0.695312 0.748047,0.946922 0.748047,1.257374 L0.748047,11.880324 C0.748047,12.190555 0.999657,12.442385 1.310108,12.442385 C1.620559,12.442385 1.872169,12.190555 1.872169,11.880324 L1.872169,1.257374 C1.872169,0.946922 1.620559,0.695312 1.310108,0.695312 Z" id="Fill-484"></path>
                </g>
                <g id="Group-488" transform="translate(6.000000, 9.000000)">
                    <path d="M1.678271,0.395312 C1.202135,0.395312 0.816211,0.781237 0.816211,1.257374 L1.416211,1.257374 C1.416211,1.112608 1.533507,0.995313 1.678271,0.995313 L1.678271,0.395312 Z M0.816211,1.257374 L0.816211,11.880324 L1.416211,11.880324 L1.416211,1.257374 L0.816211,1.257374 Z M0.816211,11.880324 C0.816211,12.356164 1.202059,12.742385 1.678271,12.742385 L1.678271,12.142384 C1.533583,12.142384 1.416211,12.024946 1.416211,11.880324 L0.816211,11.880324 Z M1.678271,12.742385 C2.154484,12.742385 2.540332,12.356164 2.540332,11.880324 L1.940332,11.880324 C1.940332,12.024946 1.82296,12.142384 1.678271,12.142384 L1.678271,12.742385 Z M2.540332,11.880324 L2.540332,1.257374 L1.940332,1.257374 L1.940332,11.880324 L2.540332,11.880324 Z M2.540332,1.257374 C2.540332,0.781237 2.154408,0.395312 1.678271,0.395312 L1.678271,0.995313 C1.823036,0.995313 1.940332,1.112608 1.940332,1.257374 L2.540332,1.257374 Z" id="Fill-486"></path>
                    <path d="M1.678271,0.695312 C1.367821,0.695312 1.116211,0.946922 1.116211,1.257374 L1.116211,11.880324 C1.116211,12.190555 1.367821,12.442385 1.678271,12.442385 C1.988722,12.442385 2.240332,12.190555 2.240332,11.880324 L2.240332,1.257374 C2.240332,0.946922 1.988722,0.695312 1.678271,0.695312 Z" id="Fill-487"></path>
                </g>
            </g>
        </g>
    </g>
</svg>