<?xml version="1.0" encoding="UTF-8"?>
<svg width="16px" height="20px" viewBox="0 0 16 20" version="1.1" xmlns="http://www.w3.org/2000/svg" xmlns:xlink="http://www.w3.org/1999/xlink">
    <!-- Generator: Sketch 64 (93537) - https://sketch.com -->
    <title>Group 159</title>
    <desc>Created with Sketch.</desc>
    <g id="Page-1" stroke="none" stroke-width="1" fill="none" fill-rule="evenodd">
        <g id="Cart" transform="translate(-1314.000000, -548.000000)" fill="#DB214D">
            <g id="Group-159" transform="translate(1314.000000, 548.000000)">
                <path d="M2.296019,19.035468 C2.318591,19.574534 2.762183,19.999963 3.301643,19.999963 L12.697922,19.999963 C13.237382,19.999963 13.680974,19.574534 13.703546,19.035468 L14.374564,4.870117 L1.625,4.870117 L2.296019,19.035468 Z M10.12533,8.388541 C10.12533,8.162828 10.308349,7.979761 10.534161,7.979761 L11.188042,7.979761 C11.413706,7.979761 11.596872,8.162779 11.596872,8.388541 L11.596872,16.481539 C11.596872,16.7073 11.413853,16.890319 11.188042,16.890319 L10.534161,16.890319 C10.308447,16.890319 10.12533,16.707398 10.12533,16.481539 L10.12533,8.388541 Z M7.26406,8.388541 C7.26406,8.162828 7.447079,7.979761 7.672841,7.979761 L8.326724,7.979761 C8.552388,7.979761 8.735505,8.162779 8.735505,8.388541 L8.735505,16.481539 C8.735505,16.7073 8.552535,16.890319 8.326724,16.890319 L7.672841,16.890319 C7.447128,16.890319 7.26406,16.707398 7.26406,16.481539 L7.26406,8.388541 Z M4.402692,8.388541 C4.402692,8.162828 4.585711,7.979761 4.811473,7.979761 L5.465405,7.979761 C5.691118,7.979761 5.874186,8.162779 5.874186,8.388541 L5.874186,16.481539 C5.874186,16.7073 5.691167,16.890319 5.465405,16.890319 L4.811473,16.890319 C4.58576,16.890319 4.402692,16.707398 4.402692,16.481539 L4.402692,8.388541 Z" id="Fill-157"></path>
                <path d="M14.821199,1.0303 L10.486381,1.0303 L10.486381,0.21078 C10.486381,0.094398 10.392032,0 10.275601,0 L5.72359,0 C5.607208,0 5.512859,0.094398 5.512859,0.21078 L5.512859,1.030251 L1.177992,1.030251 C0.82914,1.030251 0.546387,1.313053 0.546387,1.661905 L0.546387,3.646174 L15.452805,3.646174 L15.452805,1.661954 C15.452805,1.313102 15.17005,1.0303 14.821199,1.0303 Z" id="Fill-158"></path>
            </g>
        </g>
    </g>
</svg>
