<?xml version="1.0" encoding="UTF-8"?>
<svg width="23px" height="22px" viewBox="0 0 23 22" version="1.1" xmlns="http://www.w3.org/2000/svg" xmlns:xlink="http://www.w3.org/1999/xlink">
    <!-- Generator: Sketch 64 (93537) - https://sketch.com -->
    <title>Group</title>
    <desc>Created with Sketch.</desc>
    <defs>
        <path d="M0.870911,9.782471 C0.345764,10.384033 0.083099,11.095215 0.083099,11.916504 C0.083099,12.661377 0.355591,13.305664 0.898743,13.850342 C1.442993,14.394775 2.087433,14.666992 2.832214,14.666992 L6.799438,14.666992 C6.761322,14.800537 6.723083,14.915039 6.684967,15.010498 C6.647186,15.105957 6.594116,15.211182 6.527557,15.325684 C6.460938,15.44043 6.413025,15.526367 6.38446,15.583496 C6.212646,15.907959 6.081116,16.175537 5.990326,16.385498 C5.899658,16.595703 5.809418,16.88208 5.718414,17.244873 C5.627563,17.607666 5.582428,17.970703 5.582428,18.333496 C5.582428,18.5625 5.585175,18.749023 5.589691,18.89209 C5.594147,19.035156 5.6185,19.250244 5.661072,19.536621 C5.704315,19.822998 5.761719,20.061768 5.83316,20.252686 C5.904877,20.443604 6.019562,20.658691 6.176849,20.897217 C6.334473,21.13623 6.52533,21.329346 6.749939,21.477295 C6.974487,21.625244 7.260834,21.749512 7.609344,21.849609 C7.958191,21.949951 8.351837,22 8.791351,22 C9.039581,22 9.254242,21.90918 9.435822,21.727783 C9.62677,21.536865 9.789368,21.298096 9.922913,21.011719 C10.056641,20.725342 10.149811,20.477051 10.202362,20.266846 C10.254913,20.056885 10.314636,19.765625 10.381226,19.393311 C10.467468,18.991943 10.531616,18.703369 10.57486,18.526855 C10.617737,18.350098 10.701538,18.118652 10.825531,17.832275 C10.949799,17.545654 11.097656,17.31665 11.269562,17.144531 C11.584595,16.82959 12.066742,16.256592 12.716217,15.426025 C13.184204,14.814941 13.666351,14.237305 14.162842,13.692871 C14.659454,13.148682 15.022247,12.866943 15.251343,12.8479 C15.489899,12.828857 15.695221,12.730957 15.867157,12.554199 C16.039062,12.377441 16.125,12.169678 16.125,11.931152 L16.125,2.750244 C16.125,2.501953 16.034363,2.289551 15.852905,2.113037 C15.671539,1.936035 15.456696,1.843018 15.208405,1.833496 C14.874268,1.823975 14.119904,1.614014 12.945374,1.203125 C12.210236,0.955322 11.63501,0.766357 11.219635,0.637695 C10.804382,0.508789 10.223907,0.370361 9.479675,0.222168 C8.734772,0.074219 8.047394,0 7.417358,0 L7.173798,0 L6.085175,0 L5.569672,0 C4.299408,0.019043 3.359314,0.391602 2.747986,1.117188 C2.194336,1.776123 1.96051,2.640137 2.046143,3.709717 C1.673828,4.062988 1.415802,4.511475 1.272797,5.055908 C1.110687,5.637939 1.110687,6.196777 1.272797,6.731201 C0.833618,7.313721 0.628296,7.967773 0.657135,8.693604 C0.655945,8.999512 0.727386,9.362061 0.870911,9.782471 Z" id="path-1"></path>
        <path d="M0.958282,11.833008 L5.08316,11.833008 C5.331573,11.833008 5.546448,11.742188 5.727844,11.560791 C5.909241,11.379395 6,11.164551 6,10.91626 L6,1.749268 C6,1.501465 5.909241,1.286377 5.727814,1.10498 C5.546234,0.923828 5.33139,0.833008 5.083099,0.833008 L0.958282,0.833008 C0.710083,0.833008 0.4953,0.923828 0.313812,1.104736 C0.132416,1.286377 0.041718,1.501465 0.041718,1.749268 L0.041718,10.91626 C0.041718,11.164551 0.132446,11.379395 0.313812,11.560791 C0.49527,11.742188 0.710022,11.833008 0.958282,11.833008 Z" id="path-3"></path>
    </defs>
    <g id="Page-1" stroke="none" stroke-width="1" fill="none" fill-rule="evenodd">
        <g id="Write-review" transform="translate(-361.000000, -2468.000000)">
            <g id="Group" transform="translate(361.000000, 2468.000000)">
                <g id="Group-109">
                    <mask id="mask-2" fill="white">
                        <use xlink:href="#path-1"></use>
                    </mask>
                    <g id="Clip-108"></g>
                    <path d="M7.417347,-1 C8.124694,-1 8.87825,-0.916838 9.674475,-0.758707 C10.432085,-0.607849 11.051686,-0.461391 11.515726,-0.317549 C11.943116,-0.185101 12.527709,0.006948 13.264868,0.255501 L13.264868,0.255501 L13.275623,0.259195 C13.852739,0.461123 14.312362,0.608566 14.66029,0.70545 C14.834162,0.753868 14.971737,0.787292 15.076712,0.808464 C15.128777,0.818964 15.168723,0.825615 15.19801,0.829594 C15.228321,0.833712 15.239994,0.833969 15.237076,0.833887 L15.237076,0.833887 L15.246978,0.834219 C15.747385,0.853531 16.195931,1.050724 16.551037,1.39699 L16.551037,1.39699 L15.852899,2.112951 L15.232094,2.75 L16.550432,1.3964 C16.8798151,1.71704 17.0776077,2.12325748 17.1174952,2.57763711 L17.1249998,2.750214 L17.125,11.931136 L17.1178666,12.0985685 C17.0799725,12.5394964 16.8923068,12.9346092 16.583753,13.251627 L16.583753,13.251627 L15.227094,11.931 L15.226094,11.931 L16.583951,13.251423 C16.2903973,13.5532 15.9248564,13.7511996 15.511183,13.8221065 L15.4707444,13.8263386 C15.4571243,13.8357766 15.440462,13.8479291 15.420667,13.863297 C15.302915,13.95472 15.131496,14.114923 14.901651,14.366896 L14.901651,14.366896 L14.5467566,14.7647994 C14.1941951,15.1689841 13.8486477,15.5920112 13.510094,16.034029 L13.510094,16.034029 L13.504036,16.041939 L12.772094,15.469 L12.715094,15.425 L13.503997,16.041908 C12.9191158,16.7899745 12.4434688,17.3638821 12.0899621,17.7354105 L11.976668,17.851719 L11.9372488,17.8951604 C11.8813305,17.9623804 11.8133366,18.0677924 11.743015,18.229982 L11.743015,18.229982 C11.627798,18.496071 11.569779,18.667339 11.546619,18.762712 L11.546619,18.762712 L10.419094,18.488 L10.630094,18.54 L11.546619,18.762712 C11.506741,18.925611 11.445306,19.201328 11.358891,19.603394 L11.365603,19.569286 C11.297424,19.950569 11.233057,20.267344 11.172504,20.509497 L11.172504,20.509497 L11.1088954,20.7328476 C11.0370511,20.9591886 10.9412545,21.1944182 10.829029,21.434824 L10.829029,21.434824 C10.654286,21.809517 10.42866,22.149185 10.142942,22.434904 L10.142942,22.434904 L10.142649,22.435198 L10.0182903,22.5497448 C9.67670563,22.8392699 9.25679422,22.9999999 8.791348,22.9999999 L8.791348,22.9999999 C8.277257,23 7.788229,22.941525 7.33306,22.81068 L7.33306,22.81068 L7.08796311,22.7341356 C6.76618276,22.6251282 6.4655818,22.487564 6.199633,22.312284 L6.199633,22.312284 L5.99986002,22.1681703 C5.7431494,21.9660049 5.524075,21.7237116 5.342047,21.447714 L5.342047,21.447714 L5.21003694,21.2382589 C5.08399269,21.0281909 4.976606,20.8161445 4.89704,20.604376 L4.89704,20.604376 L4.896585,20.603163 L4.82483309,20.3893693 C4.7588285,20.1695986 4.7095445,19.932709 4.672289,19.68601 L4.672289,19.68601 L5.970094,19.49 L5.637094,19.539 L4.672289,19.68601 L4.671945,19.683733 L4.64180802,19.4709425 C4.61422344,19.2642481 4.59497975,19.077299 4.590176,18.92321 L4.590176,18.92321 L4.58689141,18.7985954 C4.58401169,18.6660082 4.582417,18.5107085 4.582417,18.3335 L4.582417,18.3335 L4.58909066,18.0657608 C4.60687556,17.7091591 4.660161,17.3541876 4.748393,17.001986 L4.748393,17.001986 L4.80758215,16.7754722 C4.8879834,16.4807398 4.974949,16.2147966 5.072001,15.989647 L5.072001,15.989647 L6.008094,16.393 L5.990317,16.385496 L5.072001,15.989647 L5.072515,15.988455 L5.14052033,15.8362101 C5.16556139,15.7817174 5.19223339,15.7251723 5.22047576,15.6666394 L2.832203,15.666902 L2.59908569,15.6600954 C1.67557025,15.6057303 0.860541615,15.226612 0.191477,14.55724 L0.191477,14.55724 L0.190727,14.556489 L0.0299876623,14.3862891 C-0.588827988,13.6935202 -0.916906,12.8580875 -0.916906,11.916538 L-0.916906,11.916538 L-0.909709616,11.6549174 C-0.867593204,10.8960964 -0.640642604,10.1976839 -0.229613212,9.57881969 C-0.302242803,9.27708143 -0.343984845,8.97869654 -0.342846,8.689621 L-0.341906,8.733 C-0.373552443,7.94112092 -0.189409805,7.20173212 0.201940849,6.5364175 C0.106800044,5.95912663 0.146638875,5.37233349 0.309432,4.78767 L0.305607,4.801809 C0.449063573,4.25575903 0.688529835,3.76313615 1.02966647,3.33988325 C1.02044027,2.25509331 1.31148996,1.27226875 1.982344,0.473822 L1.982344,0.473822 L1.983257,0.472734 L2.467094,0.881 L2.705094,1.081 L1.983258,0.472734 C2.78531362,-0.479122875 3.94221183,-0.92133102 5.28391309,-0.990900932 L5.554667,-0.999887 Z M1.65937663,8.77000569 C1.66914496,8.92638073 1.71217757,9.15162 1.817247,9.4593 L1.817247,9.4593 L2.003742,10.005423 L1.624205,10.440143 L1.51050488,10.5804296 C1.22520798,10.9610073 1.083094,11.3948651 1.083094,11.916538 L1.083094,11.916538 L1.08907884,12.0702912 C1.1211581,12.473128 1.28347533,12.8199758 1.606766,13.144102 C1.969703,13.507206 2.362449,13.666902 2.832203,13.666902 L2.832203,13.666902 L8.124632,13.666902 L7.761082,14.94124 L6.799449,14.666902 L6.799094,14.667 L7.761082,14.94124 C7.731346,15.045472 7.69977489,15.1461862 7.66600274,15.2418822 L7.613648,15.381475 L7.54792226,15.5330575 C7.50026456,15.6347764 7.44711367,15.73364 7.392205,15.828148 C7.326247,15.941637 7.292367,16.003824 7.279214,16.030174 L7.279214,16.030174 L7.273845,16.040932 L7.268218,16.051558 L7.17433419,16.2310626 C7.0566972,16.4590477 6.9689724,16.6418666 6.908118,16.782537 L6.908118,16.782537 L6.87741531,16.8583998 C6.82337911,16.9994729 6.7594855,17.2047275 6.688378,17.488255 L6.688378,17.488255 L6.64174866,17.7011303 C6.60188738,17.9136159 6.582417,18.1242335 6.582417,18.3335 L6.582417,18.3335 L6.58290003,18.4911863 C6.58384625,18.6401914 6.5861225,18.7631905 6.589193,18.860521 C6.59173,18.941891 6.608315,19.107845 6.650208,19.389643 L6.650208,19.389643 C6.68693327,19.6320988 6.73051377,19.7974277 6.769709,19.902157 L6.768094,19.9 C6.7991636,19.9805504 6.85238712,20.0906624 6.93968322,20.2334524 L7.011626,20.346577 C7.099336,20.479565 7.195679,20.57341 7.30041,20.642467 C7.416888,20.719234 7.603007,20.807285 7.885607,20.888523 C8.128149,20.958244 8.426428,21 8.791348,21 L8.74799958,21.0009021 C8.8381156,20.9059169 8.93057067,20.7736553 9.01661,20.589167 L9.01661,20.589167 L9.016768,20.588827 L9.08138663,20.4453504 C9.15961156,20.2646166 9.2068642,20.125772 9.232273,20.024208 L9.232273,20.024208 L9.25537603,19.9279778 C9.29539075,19.7550546 9.34269783,19.5199753 9.396832,19.217237 L9.396832,19.217237 L10.381094,19.393 L10.378094,19.392 L9.396832,19.217237 L9.399892,19.200127 L9.403544,19.183132 L9.44497215,18.9912171 C9.51134664,18.6852443 9.56433317,18.4491077 9.603544,18.288946 L9.603544,18.288946 C9.66627457,18.0314047 9.7755922,17.7403345 9.907873,17.434839 L9.907873,17.434839 L10.0106927,17.2155778 C10.1560854,16.9288041 10.336551,16.6634734 10.562351,16.437607 L10.562351,16.437607 L10.6331581,16.3651125 C10.9063592,16.0794941 11.3334633,15.5709692 11.928413,14.810025 C12.406913,14.185211 12.90737,13.58548 13.42404,13.019058 L13.42404,13.019058 L13.5830418,12.8485307 C13.7935801,12.6279966 13.9980918,12.4357512 14.194151,12.283532 C14.402657,12.12165 14.747079,11.886418 15.16822,11.851285 L15.124094,11.857 L15.1265139,2.83077869 C14.8972057,2.817795 14.6287017,2.76375994 14.3504192,2.69277978 L14.123776,2.632145 C13.717354,2.518972 13.212531,2.35601 12.615105,2.146976 L12.625859,2.150671 C11.892747,1.903482 11.326928,1.717781 10.923631,1.592796 L10.923631,1.592796 L10.7778988,1.54937774 C10.4187482,1.44626698 9.92429238,1.33030225 9.28439,1.202883 L9.28439,1.202883 L8.94409531,1.14011424 C8.38610922,1.04529792 7.8779545,1 7.417347,1 L7.417347,1 L5.569674,1 L5.35942576,1.00780175 C4.41337199,1.06102794 3.85359279,1.356896 3.512691,1.761469 L3.512691,1.761469 L3.43052463,1.86670681 C3.13779892,2.27024617 2.97867942,2.82709 3.042957,3.629826 L3.042957,3.629826 L3.0811,4.106167 L2.73444,4.435078 L2.046147,3.709642 L2.045094,3.709 L2.73444,4.435078 C2.54710583,4.6128205 2.39827653,4.83673175 2.29581493,5.12741244 L2.239965,5.309998 L2.238104,5.317081 L2.236139,5.324139 L1.272786,5.055904 L1.249094,5.049 L2.236139,5.324139 C2.13715871,5.67962357 2.12788822,5.99803916 2.19179566,6.29462291 L2.229771,6.441166 L2.377222,6.927517 L2.071273,7.333318 L1.96623088,7.48441722 C1.73931061,7.840433 1.63918425,8.22180962 1.656357,8.65384 L1.656357,8.65384 L1.657224,8.675667 L1.657146,8.697494 Z" id="Fill-107" fill="#DB214D" mask="url(#mask-2)"></path>
                </g>
                <g id="Group-112" transform="translate(17.000000, 1.000000)">
                    <mask id="mask-4" fill="white">
                        <use xlink:href="#path-3"></use>
                    </mask>
                    <g id="Clip-111"></g>
                    <path d="M5.727848,11.560806 L5.020839,10.853602 L5.020644,10.853797 L5.727848,11.560806 Z M5.727798,1.104859 L6.435199,0.398044 L6.434122,0.396969 L5.727798,1.104859 Z M0.313808,1.104859 L-0.392614,0.397066 L-0.393689,0.398142 L0.313808,1.104859 Z M0.313808,11.560806 L-0.393396,12.267815 L-0.393396,12.267815 L0.313808,11.560806 Z M0.958294,12.833008 L5.083162,12.833008 L5.083162,10.833008 L0.958294,10.833008 L0.958294,12.833008 Z M5.083162,12.8330078 C5.606553,12.8330078 6.073081,12.629888 6.435053,12.267815 L5.020644,10.853797 C5.015714,10.858728 5.015106,10.858515 5.019338,10.855609 C5.023736,10.852588 5.0313,10.848079 5.041637,10.843714 C5.052021,10.83933 5.062203,10.836358 5.070975,10.83464 C5.079592,10.832952 5.084101,10.8330078 5.083162,10.8330078 L5.083162,12.8330078 Z M6.434857,12.268011 C6.796843,11.906125 6.99999985,11.43961 6.99999985,10.916321 L4.99999985,10.916321 C4.99999985,10.917185 4.999951,10.912629 5.001644,10.903988 C5.003367,10.895193 5.006343,10.885005 5.010726,10.874626 C5.015089,10.864294 5.019596,10.856733 5.022617,10.852333 C5.025525,10.848101 5.025746,10.848696 5.020839,10.853602 L6.434857,12.268011 Z M7,10.916321 L7,1.749345 L5,1.749345 L5,10.916321 L7,10.916321 Z M6.99999995,1.749345 C6.99999995,1.226197 6.796706,0.759853 6.435198,0.398045 L5.020398,1.811671 C5.025398,1.816675 5.025268,1.817378 5.022442,1.813261 C5.019502,1.808979 5.015051,1.801522 5.010722,1.79127 C5.006373,1.780972 5.003399,1.770814 5.001668,1.761989 C4.999967,1.753312 4.99999995,1.748657 4.99999995,1.749345 L6.99999995,1.749345 Z M6.434122,0.396969 C6.072518,0.036165 5.606519,-0.167092 5.083112,-0.167092 L5.083112,1.832908 C5.083939,1.832908 5.079385,1.832953 5.07078,1.831267 C5.062025,1.829552 5.051919,1.826596 5.041657,1.822266 C5.031445,1.817956 5.024022,1.813527 5.019775,1.810615 C5.015693,1.807815 5.016431,1.807716 5.021474,1.812747 L6.434122,0.396969 Z M5.083112,-0.167092 L0.958294,-0.167092 L0.958294,1.832908 L5.083112,1.832908 L5.083112,-0.167092 Z M0.958294,-0.167092 C0.434809,-0.167092 -0.03111,0.036263 -0.392613,0.397067 L1.02023,1.812649 C1.02528,1.80761 1.026015,1.807713 1.02192,1.810522 C1.017658,1.813446 1.010212,1.817891 0.999964,1.822217 C0.989667,1.826564 0.979522,1.829532 0.970726,1.831256 C0.96208,1.832951 0.957492,1.832908 0.958294,1.832908 L0.958294,-0.167092 Z M-0.393689,0.398142 C-0.755149,0.760001 -0.958293,1.226278 -0.958293,1.749345 L1.041707,1.749345 C1.041707,1.748598 1.041745,1.753215 1.040049,1.761871 C1.038323,1.770676 1.035353,1.780829 1.031003,1.791135 C1.026672,1.801393 1.022217,1.80886 1.019272,1.813152 C1.016439,1.817278 1.016305,1.81658 1.021306,1.811574 L-0.393689,0.398142 Z M-0.958293,1.749345 L-0.958293,10.916321 L1.041707,10.916321 L1.041707,1.749345 L-0.958293,1.749345 Z M-0.958293,10.916321 C-0.958293,11.43967 -0.755101,11.906011 -0.393396,12.267815 L1.021013,10.853797 C1.016062,10.848846 1.016252,10.848211 1.019135,10.852411 C1.022134,10.856776 1.026628,10.864314 1.030986,10.874634 C1.035363,10.885 1.038338,10.895184 1.040061,10.90398 C1.041755,10.912626 1.041707,10.917183 1.041707,10.916321 L-0.958293,10.916321 Z M-0.393396,12.267815 C-0.031453,12.629859 0.434946,12.8330078 0.958294,12.8330078 L0.958294,10.8330078 C0.957397,10.8330078 0.961951,10.832956 0.970614,10.834653 C0.979432,10.83638 0.989653,10.839365 1.000064,10.843763 C1.010428,10.84814 1.018002,10.852657 1.022393,10.855673 C1.026616,10.858574 1.025983,10.858769 1.021013,10.853797 L-0.393396,12.267815 Z" id="Fill-110" fill="#DB214D" mask="url(#mask-4)"></path>
                </g>
            </g>
        </g>
    </g>
</svg>