<?xml version="1.0" encoding="UTF-8"?>
<svg width="23px" height="22px" viewBox="0 0 23 22" version="1.1" xmlns="http://www.w3.org/2000/svg" xmlns:xlink="http://www.w3.org/1999/xlink">
    <!-- Generator: Sketch 64 (93537) - https://sketch.com -->
    <title>Group 19</title>
    <desc>Created with Sketch.</desc>
    <g id="Page-1" stroke="none" stroke-width="1" fill="none" fill-rule="evenodd">
        <g id="Main" transform="translate(-1552.000000, -1502.000000)" fill="#DB214D">
            <g id="Group-19" transform="translate(1552.083338, 1502.000000)">
                <path d="M0.787811,9.782466 C0.262671,10.383959 2.27373675e-13,11.095266 2.27373675e-13,11.916538 C2.27373675e-13,12.661305 0.272503,13.305741 0.815652,13.850295 C1.359906,14.3948 2.004341,14.666901 2.749109,14.666901 L6.716355,14.666901 C6.678228,14.800545 6.640003,14.915124 6.601876,15.01059 C6.564101,15.106056 6.511025,15.211205 6.444455,15.325785 C6.377834,15.440414 6.329924,15.5264 6.30138,15.583589 C6.12956,15.908064 5.998025,16.1756 5.907223,16.385496 C5.816573,16.595793 5.726325,16.882141 5.635323,17.244995 C5.544472,17.607645 5.499323,17.970648 5.499323,18.3335 C5.499323,18.562559 5.502082,18.748928 5.506596,18.892052 C5.511061,19.035276 5.535392,19.250189 5.577983,19.536688 C5.621227,19.823036 5.678616,20.061777 5.750053,20.252661 C5.82179,20.443592 5.936472,20.658606 6.093743,20.897146 C6.251364,21.136137 6.442246,21.329227 6.66684,21.477318 C6.891385,21.625309 7.177734,21.74942 7.526239,21.849602 C7.875095,21.949884 8.268748,22 8.708254,22 C8.956477,22 9.171139,21.909248 9.352741,21.727798 C9.543674,21.536865 9.706262,21.298174 9.839804,21.011826 C9.973547,20.725327 10.066707,20.477055 10.119281,20.266907 C10.171805,20.056862 10.231553,19.765547 10.298123,19.393263 C10.384359,18.992033 10.448522,18.703377 10.491765,18.526741 C10.534658,18.350105 10.618435,18.118587 10.742446,17.83219 C10.866707,17.545589 11.014547,17.316582 11.186467,17.144611 C11.501511,16.829567 11.983659,16.256618 12.633111,15.425966 C13.101112,14.814941 13.583259,14.237278 14.079755,13.692974 C14.57635,13.14857 14.939152,12.866937 15.168261,12.847823 C15.406802,12.82876 15.612132,12.730886 15.784052,12.554151 C15.955971,12.377515 16.041906,12.169777 16.041906,11.931136 L16.041906,2.750214 C16.041906,2.501942 15.951256,2.289587 15.769805,2.112951 C15.588454,1.936115 15.373592,1.843058 15.125319,1.833475 C14.791162,1.823895 14.036812,1.614048 12.86227,1.203087 C12.127134,0.955215 11.551928,0.76634 11.136552,0.637613 C10.721276,0.508886 10.140802,0.370327 9.396586,0.222136 C8.651668,0.074196 7.96429,0 7.334253,0 L7.090695,0 L6.002087,0 L5.48658,0 C4.216321,0.019062 3.276206,0.391598 2.66488,1.117102 C2.111246,1.776035 1.87742,2.6402 1.963053,3.709642 C1.59072,4.062914 1.332716,4.511499 1.189692,5.055904 C1.027605,5.638033 1.027605,6.196684 1.189692,6.731306 C0.750537,7.313786 0.545206,7.967853 0.574052,8.693558 C0.572848,8.999421 0.644285,9.362173 0.787811,9.782466 Z" id="Fill-209"></path>
                <path d="M17.874956,12.83313 L21.999824,12.83313 C22.248247,12.83313 22.463109,12.742379 22.64451,12.560929 C22.825911,12.379578 22.916662,12.164715 22.916662,11.916443 L22.916662,2.749467 C22.916662,2.501545 22.825911,2.286582 22.64446,2.104981 C22.462908,1.92383 22.248046,1.83303 21.999774,1.83303 L17.874956,1.83303 C17.626733,1.83303 17.411972,1.92383 17.23047,2.104981 C17.049069,2.286582 16.958369,2.501495 16.958369,2.749467 L16.958369,11.916443 C16.958369,12.164715 17.049119,12.379527 17.23047,12.560929 C17.411921,12.74243 17.626683,12.83313 17.874956,12.83313 Z" id="Fill-210"></path>
            </g>
        </g>
    </g>
</svg>