<?xml version="1.0" encoding="UTF-8"?>
<svg width="20px" height="20px" viewBox="0 0 20 20" version="1.1" xmlns="http://www.w3.org/2000/svg" xmlns:xlink="http://www.w3.org/1999/xlink">
    <!-- Generator: Sketch 64 (93537) - https://sketch.com -->
    <title>Group 4</title>
    <desc>Created with Sketch.</desc>
    <g id="Page-1" stroke="none" stroke-width="1" fill="none" fill-rule="evenodd" fill-opacity="0.7">
        <g id="Main" transform="translate(-46.000000, -578.000000)" fill="#FFFFFF">
            <g id="Group-366" transform="translate(46.000000, 193.000000)">
                <g id="Group-362" transform="translate(0.000000, 385.000000)">
                    <g id="Group-4" transform="translate(-0.000000, 0.000061)">
                        <path d="M18.2653752,10.2590555 C18.1849082,10.0944085 18.1849082,9.9055835 18.2653752,9.7409765 L19.0113032,8.2150175 C19.4266112,7.3653795 19.0975532,6.3526955 18.2621732,5.9094575 L16.7617992,5.1133725 C16.5999262,5.0275155 16.4889512,4.8747045 16.4572722,4.6942765 L16.1638362,3.0212875 C16.0004392,2.0898145 15.1388102,1.4638845 14.2026102,1.5963435 L12.5208712,1.8342325 C12.3393502,1.8598555 12.1598602,1.8014985 12.0281812,1.6741155 L10.8074522,0.4931925 C10.1277342,-0.1643775 9.0629032,-0.1644175 8.3832242,0.4931925 L7.1624572,1.6742345 C7.0307392,1.8016545 6.8512492,1.8598955 6.6697672,1.8343485 L4.9880292,1.5964605 C4.0515162,1.4639245 3.1901982,2.0899315 3.0268012,3.0214055 L2.7333672,4.6943165 C2.7016882,4.8747825 2.5907132,5.0275545 2.4288792,5.1134515 L0.928505201,5.9095365 C0.0931242006,6.3527335 -0.235934799,7.3654955 0.179373201,8.2151345 L0.925263201,9.7410545 C1.0057312,9.9057005 1.0057312,10.0945265 0.925263201,10.2591345 L0.179334201,11.7850535 C-0.235973799,12.6346925 0.0930852006,13.6473745 0.928466201,14.0906125 L2.4288392,14.8866975 C2.5907132,14.9725555 2.7016882,15.1253655 2.7333672,15.3057945 L3.0268012,16.9787825 C3.1755502,17.8267415 3.9026502,18.4214225 4.7383052,18.4213445 C4.8206092,18.4213445 4.9041232,18.4155635 4.9880682,18.4036885 L6.6698062,18.1657995 C6.8511712,18.1400585 7.0307782,18.1985335 7.1624962,18.3259165 L8.3832242,19.5068395 C8.7231422,19.8356645 9.1591532,20 9.5953202,20 C10.0313692,20 10.4676532,19.8355865 10.8074142,19.5068395 L12.0281812,18.3259165 C12.1598982,18.1985335 12.3394282,18.1403325 12.5208712,18.1657995 L14.2026102,18.4036885 C15.1392392,18.5361855 16.0004392,17.9102175 16.1638362,16.9787445 L16.4573102,15.3058335 C16.4889892,15.1253665 16.5999642,14.9725945 16.7617992,14.8866975 L18.2621732,14.0906125 C19.0975532,13.6474135 19.4266112,12.6346525 19.0113032,11.7850145 L18.2653752,10.2590555 Z M17.7215142,13.0716015 L16.2211402,13.8676865 C15.7427862,14.1215505 15.4147042,14.5730295 15.3211512,15.1064605 L15.0277172,16.7794095 C14.9724442,17.0945625 14.6810802,17.3062395 14.3641702,17.2615145 L12.6824312,17.0236265 C12.1461092,16.9476505 11.6154132,17.1202655 11.2261602,17.4967835 L10.0053922,18.6776695 C9.7754732,18.9000895 9.4152042,18.9000895 9.1852072,18.6776695 L7.9644782,17.4967455 C7.6354982,17.1785085 7.2054252,17.0060475 6.7564462,17.0060475 C6.6741812,17.0060475 6.5912522,17.0118295 6.5082062,17.0235875 L4.8264682,17.2614745 C4.5098312,17.3062395 4.2182332,17.0945245 4.1629212,16.7793715 L3.8694482,15.1063835 C3.7758552,14.5729525 3.4478122,14.1214335 2.9694192,13.8676465 L1.4690462,13.0715625 C1.1863932,12.9216025 1.0750662,12.5789895 1.2155722,12.2915325 L1.9615012,10.7655735 C2.1993112,10.2790165 2.1993112,9.7209765 1.9615012,9.2344195 L1.2155722,7.7084615 C1.0750662,7.4210035 1.1863932,7.0783895 1.4690462,6.9284305 L2.9694192,6.1323465 C3.4477732,5.8784825 3.7758552,5.4270025 3.8694092,4.8935715 L4.1628432,3.2206225 C4.2181552,2.9054695 4.5094802,2.6937525 4.8263902,2.7385175 L6.5081282,2.9764055 C7.0442552,3.0523035 7.5751472,2.8797665 7.9644012,2.5032475 L9.1851672,1.3223225 C9.4150872,1.0999045 9.7753552,1.0999045 10.0053532,1.3223225 L11.2260812,2.5032475 C11.6153352,2.8798065 12.1461492,3.0523035 12.6823542,2.9764055 L14.3640922,2.7385175 C14.6807682,2.6937135 14.9723662,2.9054695 15.0276392,3.2206225 L15.3210742,4.8936095 C15.4146662,5.4270415 15.7427082,5.8785605 16.2211022,6.1323465 L17.7214762,6.9284305 C18.0041282,7.0783895 18.1154562,7.4210035 17.9749492,7.7084615 L17.2290192,9.2343805 C16.9912092,9.7208985 16.9912092,10.2790165 17.2290192,10.7655345 L17.9749492,12.2914545 C18.1154942,12.5789895 18.0041682,12.9216425 17.7215142,13.0716015 Z" id="Fill-357"></path>
                        <path d="M13.8095002,5.7858055 C13.5843072,5.5605735 13.2190772,5.5605735 12.9938462,5.7858055 L5.3810822,13.3986085 C5.1558502,13.6238395 5.1558502,13.9890305 5.3810822,14.2142615 C5.4936982,14.3268775 5.6413132,14.3832055 5.7888902,14.3832055 C5.9364662,14.3832055 6.0841212,14.3269165 6.1966982,14.2142615 L13.8094612,6.6014995 C14.0347722,6.3762285 14.0347712,6.0110765 13.8095002,5.7858055 Z" id="Fill-358"></path>
                        <path d="M7.2882422,4.8092035 C6.1221622,4.8092035 5.1734622,5.7579035 5.1734622,6.9239835 C5.1734622,8.0900645 6.1221622,9.0387645 7.2882422,9.0387645 C8.4543232,9.0387645 9.4030232,8.0900645 9.4030232,6.9239835 C9.4030232,5.7579035 8.4543232,4.8092035 7.2882422,4.8092035 Z M7.2882422,7.8852235 C6.7582092,7.8852235 6.3270032,7.4540165 6.3270032,6.9239445 C6.3270032,6.3939115 6.7582092,5.9627055 7.2882422,5.9627055 C7.8182752,5.9627055 8.2495212,6.3939115 8.2495212,6.9239445 C8.2494822,7.4540165 7.8182752,7.8852235 7.2882422,7.8852235 Z" id="Fill-359"></path>
                        <path d="M11.9022572,10.9610595 C10.7361762,10.9610595 9.7874762,11.9097595 9.7874762,13.0758395 C9.7874762,14.2419205 10.7361762,15.1906205 11.9022572,15.1906205 C13.0683372,15.1906205 14.0170372,14.2419205 14.0170372,13.0758395 C14.0170372,11.9097595 13.0683372,10.9610595 11.9022572,10.9610595 Z M11.9022572,14.0370785 C11.3722242,14.0370785 10.9409782,13.6058725 10.9409782,13.0758395 C10.9409782,12.5458075 11.3721852,12.1146005 11.9022572,12.1146005 C12.4322902,12.1146005 12.8634962,12.5458075 12.8634962,13.0758395 C12.8634962,13.6058725 12.4322902,14.0370785 11.9022572,14.0370785 Z" id="Fill-360"></path>
                    </g>
                </g>
            </g>
        </g>
    </g>
</svg>