<?xml version="1.0" encoding="UTF-8"?>
<svg width="24px" height="24px" viewBox="0 0 24 24" version="1.1" xmlns="http://www.w3.org/2000/svg" xmlns:xlink="http://www.w3.org/1999/xlink">
    <!-- Generator: Sketch 64 (93537) - https://sketch.com -->
    <title>Group 478</title>
    <desc>Created with Sketch.</desc>
    <g id="Page-1" stroke="none" stroke-width="1" fill="none" fill-rule="evenodd">
        <g id="Analytics-(Dashboard)" transform="translate(-1734.000000, -2321.000000)" fill="#AEFF01">
            <g id="Group-478" transform="translate(1734.000000, 2321.000000)">
                <path d="M16.210813,1.57754 C17.459497,0.331055 19.48159,0.331055 20.730274,1.57754 L20.730205,1.577471 L22.408401,3.24947 C23.654898,4.497963 23.65489,6.52006 22.408407,7.768742 L22.408407,7.768742 L9.64913934,20.5295996 C9.64075528,20.5400782 9.6323782,20.5475082 9.626596,20.552271 L9.626596,20.552271 L9.61428687,20.5650315 L9.61428687,20.5650315 L9.602947,20.573803 C9.591083,20.581881 9.603703,20.573628 9.610032,20.567101 L9.610032,20.567101 L9.53616128,20.4956763 L9.593713,20.580691 C9.591634,20.5820765 9.58929025,20.5838183 9.58618387,20.5862763 L9.574079,20.596159 C9.565699,20.603102 9.552189,20.614428 9.537724,20.62402 L9.537724,20.62402 L9.42719,20.457341 C9.431127,20.454729 9.436212,20.450657 9.446476,20.442154 C9.45486,20.435208 9.468335,20.423907 9.482773,20.41428 L9.47016128,20.4226763 L9.48590587,20.4086304 L9.48590587,20.4086304 L9.49335087,20.4025258 L9.49335087,20.4025258 C9.497732,20.399193 9.497854,20.399113 9.498854,20.39835 C9.499461,20.397887 9.499567,20.397793 9.499427,20.397908 L9.49466475,20.4026335 L9.485716,20.416128 L9.57516128,20.4596763 L9.504722,20.389586 L22.266924,7.627383 L22.4014779,7.4835851 C23.4335408,6.30634178 23.3886623,4.5143716 22.266861,3.390778 L22.266861,3.390778 L20.589046,1.719155 L20.4451175,1.58446939 C19.267877,0.552408675 17.4758937,0.59728088 16.352111,1.719086 L16.352365,1.71883 L15.256209,2.820992 L3.589952,14.481052 L3.590245,14.480757 L3.56989912,14.5017593 C3.56570556,14.5077555 3.55701917,14.518892 3.543105,14.528607 L3.55443416,14.5182681 C3.54788124,14.52684 3.54155571,14.5343308 3.537156,14.539599 C3.528697,14.549729 3.524864,14.55453 3.52248,14.558163 C3.518449,14.566811 3.513931,14.572187 3.510816,14.57561 L3.51416128,14.5706763 C3.5133765,14.574631 3.51137,14.577792 3.5093495,14.5810775 L3.502927,14.591739 C3.498199,14.599661 3.492309,14.609512 3.484296,14.621347 L3.484296,14.621347 C3.47904161,14.630349 3.47550488,14.6391349 3.472714,14.646057 L3.472714,14.646057 L3.46616128,14.6596763 C3.4651565,14.6673605 3.4634685,14.6720043 3.46158575,14.6763144 L3.45616128,14.6856763 L0.870995,22.460989 L0.775161282,22.4286763 L0.870704,22.46185 C0.817807333,22.6162225 0.842503028,22.7844047 0.932874417,22.9157231 L0.994909,22.98971 C1.093356,23.086855 1.226061,23.141131 1.364012,23.140642 C1.420613,23.139654 1.478124,23.130633 1.533679,23.1139 L1.533679,23.1139 L9.308444,20.520201 L9.323849,20.515061 L9.32416128,20.5146763 C9.329693,20.511508 9.33512675,20.509494 9.34027462,20.5071881 L9.354821,20.49943 L9.35616128,20.5016763 L9.36516128,20.4956763 C9.3711015,20.4908815 9.377741,20.4867545 9.3840725,20.4829571 L9.401501,20.472763 C9.413114,20.466061 9.420918,20.461521 9.426988,20.457476 L9.426988,20.457476 L9.537928,20.623886 C9.525401,20.632237 9.511513,20.64019 9.501479,20.645981 C9.489981,20.652619 9.482329,20.657099 9.47654,20.661 L9.47654,20.661 C9.46053687,20.6727684 9.4414449,20.6807823 9.419992,20.683358 L9.45269207,20.6739524 C9.42979961,20.687342 9.40560221,20.6975968 9.380959,20.704916 L9.39916128,20.6976763 L9.389735,20.704308 C9.3828795,20.7076285 9.3762675,20.7099288 9.37015187,20.71152 L9.36716128,20.7106763 L1.594165,23.30451 L1.56216128,23.2096763 L1.59136,23.305401 C1.5548295,23.3164045 1.51762575,23.3248808 1.47999837,23.3307714 L1.366095,23.340628 L1.364719,23.340651 L1.36416128,23.2626763 L1.36316128,23.2046763 L1.364719,23.340641 C1.2119606,23.3411818 1.06402588,23.2932157 0.941367192,23.2053321 L0.854432,23.132069 L0.787658725,23.0561242 C0.64594125,22.8696599 0.60416875,22.6227095 0.681503,22.397019 L0.681503,22.397019 L3.26716128,14.6186763 C3.2693125,14.6134765 3.2708605,14.6089475 3.27261837,14.6046905 L3.278446,14.592742 L3.278446,14.592742 L3.28202087,14.5843406 L3.287219,14.57128 C3.290303,14.563631 3.29238,14.558373 3.29442,14.552253 L3.29442,14.552253 L3.38916128,14.5836763 L3.317498,14.514261 L3.317498,14.514261 L3.31116128,14.5196763 L3.31714996,14.5108543 L3.31714996,14.5108543 C3.32360748,14.5018856 3.32689705,14.4964303 3.331192,14.489235 C3.335707,14.481671 3.341505,14.471884 3.349278,14.460224 L3.338875,14.473415 L3.35527,14.448431 L3.37051862,14.4274448 L3.37051862,14.4274448 L3.383644,14.411404 C3.392247,14.401101 3.396239,14.396175 3.398865,14.392236 L3.398865,14.392236 L3.428551,14.347706 L3.44016128,14.3476763 L3.448275,14.339887 L3.45616128,14.3476763 L3.45716128,14.3476763 L3.448568,14.339592 L15.114825,2.679533 L16.210559,1.577795 L16.2811613,1.64767625 Z M4.181518,15.810749 L8.060914,19.689946 L8.175377,19.804402 L8.021795,19.855538 L2.368127,21.737898 L2.17822,21.801127 L2.2417,21.611304 L4.130259,15.964028 L4.181518,15.810749 Z M4.26816128,16.1796763 L2.49516128,21.4846763 L7.80516128,19.7166763 L4.26816128,16.1796763 Z M15.6190135,3.921925 L15.689723,3.992634 L20.070225,8.372937 L19.999514,8.443649 L9.212646,19.230517 L9.14216128,19.1596763 L9.1419365,19.159806 L9.212646,19.230516 L9.1419365,19.301226 L9.071227,19.230516 L4.761438,14.920924 L4.83216128,14.8496763 L4.832147,14.850212 L4.7614355,14.920924 L4.690724,14.850212 L15.6190135,3.921925 Z M15.6191613,4.20467625 L4.97316128,14.8496763 L9.14116128,19.0176763 L19.7871613,8.37267625 L15.6191613,4.20467625 Z M20.879234,7.56412 L20.808525,7.635496 L16.4275,3.254471 L16.356769,3.183739 L17.090357,2.450579 L17.2148094,2.33637082 C17.9834749,1.68923709 19.1330845,1.72731442 19.857107,2.450562 L19.857145,2.4506 L21.541777,4.135235 C22.299974,4.902617 22.297127,6.137989 21.535442,6.901715 L21.535442,6.901715 L20.879234,7.56412 Z M19.715723,2.592022 L19.5904263,2.47821609 C18.9002538,1.90899727 17.8773394,1.94695641 17.231729,2.592051 L17.231729,2.592051 L16.6391613,3.18367625 L20.8071613,7.35167625 L21.393595,6.760722 L21.4331613,6.79967625 L21.393831,6.760483 C22.0376691,6.11491971 22.0778247,5.09409939 21.5125836,4.4016228 L21.399506,4.275803 L19.715723,2.592022 Z" id="Fill-476"></path>
                <path d="M20.659626,1.648312 C19.44998,0.440798 17.491108,0.440798 16.281463,1.648312 L15.185517,2.750264 L3.51926,14.410322 L3.494466,14.435309 C3.488462,14.441314 3.488462,14.447706 3.48207,14.447706 C3.469673,14.4663 3.451078,14.484702 3.438875,14.503297 C3.438875,14.509495 3.432483,14.509495 3.432483,14.515694 C3.420086,14.534289 3.414082,14.546686 3.401491,14.56528 C3.395487,14.571479 3.395487,14.577483 3.389288,14.583876 C3.38309,14.602471 3.376892,14.614868 3.3705,14.633462 C3.3705,14.639468 3.364495,14.639468 3.364495,14.645859 L0.776104,22.429434 C0.700174,22.651024 0.757896,22.896441 0.92467,23.060891 C1.041858,23.176527 1.199916,23.241223 1.364366,23.2406469 C1.431579,23.239479 1.498211,23.229019 1.562519,23.20965 L9.340089,20.615061 C9.346094,20.615061 9.346094,20.615061 9.352486,20.609057 C9.372049,20.603245 9.390838,20.594916 9.408077,20.584069 C9.41292,20.583489 9.417181,20.581358 9.420668,20.578064 C9.439069,20.565668 9.463862,20.553078 9.482457,20.54068 C9.500858,20.528477 9.519648,20.509882 9.538242,20.497486 C9.544441,20.491095 9.550445,20.491095 9.550445,20.485089 C9.556838,20.478892 9.569234,20.472887 9.575433,20.460297 L22.337635,7.698094 C23.545151,6.488448 23.545151,4.529576 22.337635,3.320122 L20.659626,1.648312 Z M9.141935,19.159806 L4.832147,14.850211 L15.619014,4.063343 L19.928802,8.372938 L9.141935,19.159806 Z M4.225096,15.995743 L7.990205,19.760659 L2.336538,21.643019 L4.225096,15.995743 Z M21.464636,6.831099 L20.808193,7.49374 L16.498211,3.18376 L17.161047,2.521311 C17.886059,1.796879 19.061228,1.796879 19.786434,2.521311 L21.47064,4.205519 C22.190229,4.933823 22.187519,6.10628 21.464636,6.831099 Z" id="Fill-477"></path>
            </g>
        </g>
    </g>
</svg>