<svg width="15" height="15" viewBox="0 0 15 15" fill="none" xmlns="http://www.w3.org/2000/svg">
<path d="M14.9047 7.20917C14.7707 7.02586 11.5778 2.7207 7.49993 2.7207C3.42206 2.7207 0.229043 7.02586 0.0951857 7.20899C-0.0317286 7.3829 -0.0317286 7.61877 0.0951857 7.79268C0.229043 7.97599 3.42206 12.2811 7.49993 12.2811C11.5778 12.2811 14.7707 7.97596 14.9047 7.79282C15.0318 7.61895 15.0318 7.3829 14.9047 7.20917ZM7.49993 11.2921C4.49614 11.2921 1.89454 8.43472 1.12442 7.50059C1.89355 6.56563 4.4897 3.70971 7.49993 3.70971C10.5036 3.70971 13.105 6.56663 13.8754 7.50126C13.1063 8.43618 10.5102 11.2921 7.49993 11.2921Z" fill="white"/>
<path d="M7.50025 4.5332C5.86425 4.5332 4.5332 5.86425 4.5332 7.50025C4.5332 9.13625 5.86425 10.4673 7.50025 10.4673C9.13624 10.4673 10.4673 9.13625 10.4673 7.50025C10.4673 5.86425 9.13624 4.5332 7.50025 4.5332ZM7.50025 9.47826C6.40952 9.47826 5.52224 8.59095 5.52224 7.50025C5.52224 6.40955 6.40955 5.52224 7.50025 5.52224C8.59094 5.52224 9.47826 6.40955 9.47826 7.50025C9.47826 8.59095 8.59097 9.47826 7.50025 9.47826Z" fill="white"/>
</svg>
