<?xml version="1.0" encoding="UTF-8"?>
<svg width="16px" height="16px" viewBox="0 0 16 16" version="1.1" xmlns="http://www.w3.org/2000/svg" xmlns:xlink="http://www.w3.org/1999/xlink">
    <!-- Generator: Sketch 64 (93537) - https://sketch.com -->
    <title>Group 13</title>
    <desc>Created with Sketch.</desc>
    <g id="Page-1" stroke="none" stroke-width="1" fill="none" fill-rule="evenodd" fill-opacity="0.7">
        <g id="Main" transform="translate(-48.000000, -1042.000000)" fill="#FFFFFF">
            <g id="Group-430" transform="translate(47.000000, 969.000000)">
                <g id="Group-424" transform="translate(1.000000, 73.000000)">
                    <g id="Group-13">
                        <path d="M8,12.609375 C8.431472,12.609375 8.78125,12.259597 8.78125,11.828125 C8.78125,11.396653 8.431472,11.046875 8,11.046875 C7.568528,11.046875 7.21875,11.396653 7.21875,11.828125 C7.21875,12.259597 7.568528,12.609375 8,12.609375 Z" id="Fill-420"></path>
                        <path d="M8,0 C3.578625,0 0,3.578032 0,8 C0,12.421375 3.578031,16 8,16 C12.421375,16 16,12.421968 16,8 C16,3.578625 12.421968,0 8,0 Z M8,14.75 C4.269469,14.75 1.25,11.731031 1.25,8 C1.25,4.269468 4.268969,1.25 8,1.25 C11.730532,1.25 14.75,4.268969 14.75,8 C14.75,11.730532 11.731031,14.75 8,14.75 Z" id="Fill-421"></path>
                        <path d="M8,4.015625 C6.6215,4.015625 5.5,5.137125 5.5,6.515625 C5.5,6.860812 5.779813,7.140625 6.125,7.140625 C6.470187,7.140625 6.75,6.860812 6.75,6.515625 C6.75,5.826375 7.31075,5.265625 8,5.265625 C8.68925,5.265625 9.25,5.826375 9.25,6.515625 C9.25,7.204875 8.68925,7.765625 8,7.765625 C7.654813,7.765625 7.375,8.045437 7.375,8.390625 L7.375,9.953125 C7.375,10.298313 7.654813,10.578125 8,10.578125 C8.345187,10.578125 8.625,10.298313 8.625,9.953125 L8.625,8.936531 C9.702063,8.658312 10.5,7.678406 10.5,6.515625 C10.5,5.137125 9.3785,4.015625 8,4.015625 Z" id="Fill-422"></path>
                    </g>
                </g>
            </g>
        </g>
    </g>
</svg>