<?xml version="1.0" encoding="UTF-8"?>
<svg width="24px" height="24px" viewBox="0 0 24 24" version="1.1" xmlns="http://www.w3.org/2000/svg" xmlns:xlink="http://www.w3.org/1999/xlink">
    <!-- Generator: Sketch 64 (93537) - https://sketch.com -->
    <title>Fill 344</title>
    <desc>Created with Sketch.</desc>
    <g id="Page-1" stroke="none" stroke-width="1" fill="none" fill-rule="evenodd">
        <g id="Product" transform="translate(-1587.000000, -1274.000000)" fill="#4267B2">
            <path d="M1611,1286 C1611,1279.3736 1605.6264,1274 1599,1274 C1592.3736,1274 1587,1279.3736 1587,1286 C1587,1292.6264 1592.3736,1298 1599,1298 C1599.0705,1298 1599.14062,1297.99853 1599.21094,1297.99725 L1599.21094,1288.65576 L1596.63281,1288.65576 L1596.63281,1285.65118 L1599.21094,1285.65118 L1599.21094,1283.44019 C1599.21094,1280.87598 1600.77631,1279.48035 1603.06366,1279.48035 C1604.159,1279.48035 1605.10053,1279.56201 1605.375,1279.59845 L1605.375,1282.27838 L1603.79773,1282.27838 C1602.55335,1282.27838 1602.31238,1282.86981 1602.31238,1283.73755 L1602.31238,1285.65118 L1605.28784,1285.65118 L1604.90002,1288.65576 L1602.31238,1288.65576 L1602.31238,1297.53638 C1607.32819,1296.09845 1611,1291.47742 1611,1286 Z" id="Fill-344"></path>
        </g>
    </g>
</svg>