<?xml version="1.0" encoding="UTF-8"?>
<svg width="24px" height="24px" viewBox="0 0 24 24" version="1.1" xmlns="http://www.w3.org/2000/svg" xmlns:xlink="http://www.w3.org/1999/xlink">
    <!-- Generator: Sketch 64 (93537) - https://sketch.com -->
    <title>Group 147</title>
    <desc>Created with Sketch.</desc>
    <g id="Page-1" stroke="none" stroke-width="1" fill="none" fill-rule="evenodd">
        <g id="FAQ" transform="translate(-355.000000, -971.000000)" fill="#DB214D">
            <g id="Group-147" transform="translate(355.000000, 971.000000)">
                <path d="M18.574219,0.700001 L18.7902292,0.704872768 C21.2963981,0.818138917 23.299999,2.89211936 23.299999,5.425782 L23.299999,5.425782 L23.299999,18.574219 L23.2951272,18.7902293 C23.1818611,21.2963991 21.1078807,23.3 18.574219,23.3 L18.574219,23.3 L5.425781,23.3 L5.20977076,23.2951282 C2.70360187,23.1818621 0.7,21.1078816 0.7,18.574219 L0.7,18.574219 L0.7,5.425782 L0.704871771,5.20977168 C0.818137971,2.70360193 2.89211933,0.700001 5.425781,0.700001 L5.425781,0.700001 L18.574219,0.700001 Z M18.574219,1.3 L5.425781,1.3 L5.22019835,1.30505973 C3.040611,1.4125769 1.3,3.22003073 1.3,5.425782 L1.3,5.425782 L1.3,18.574219 L1.30505972,18.7798016 C1.41257678,20.9593881 3.22002876,22.700001 5.425781,22.700001 L5.425781,22.700001 L18.574219,22.700001 C20.8489,22.700001 22.700001,20.8489 22.700001,18.574219 L22.700001,18.574219 L22.700001,5.425782 L22.6949413,5.22019943 C22.5874241,3.04061288 20.7799703,1.3 18.574219,1.3 L18.574219,1.3 Z M4.313301,12.344531 L4.366639,12.577609 C4.629824,13.727664 5.661981,14.58793 6.88964,14.58793 L6.88964,14.58793 L7.06362761,14.5821392 C8.21385343,14.5053392 9.16199057,13.6728622 9.412642,12.577606 L9.412642,12.577606 L9.465982,12.344531 L11.655469,12.344531 L11.655,15.253001 L12,15.253129 C12.9974457,15.253129 13.8173232,16.02551 13.893145,17.0037827 L13.898867,17.151997 L13.893145,17.3002113 C13.8173232,18.278484 12.9974457,19.050864 12,19.050864 L12,19.050864 L11.655,19.050001 L11.655469,22.010937 L5.425781,22.010937 L5.23747804,22.0058428 C3.429467,21.9077803 1.989062,20.4063075 1.989062,18.574219 L1.989062,18.574219 L1.989062,12.344531 L4.313301,12.344531 Z M12.344531,22.010937 L12.344531,19.728379 L12.577608,19.67504 L12.7398688,19.6322731 C13.8076434,19.3131121 14.58793,18.32124 14.58793,17.152039 L14.58793,17.152039 L14.5821392,16.9780517 C14.5053392,15.8278276 13.6728621,14.8796903 12.577605,14.629037 L12.577605,14.629037 L12.344531,14.575698 L12.344531,12.344531 L15.253,12.344001 L15.253129,12 L15.258851,11.8517857 C15.3346728,10.873513 16.1545503,10.101133 17.151997,10.101133 L17.151997,10.101133 L17.3002111,10.106855 C18.278483,10.1826768 19.050863,11.0025543 19.050863,12 L19.050863,12 L19.05,12.344001 L22.010937,12.344531 L22.010937,18.574219 L22.0058428,18.762522 C21.9077802,20.5705339 20.4063066,22.010937 18.574219,22.010937 L18.574219,22.010937 L12.344531,22.010937 Z M3.84472499,12.945091 L2.589,12.944001 L2.589062,18.574219 L2.59425009,18.7467372 C2.68374475,20.2306495 3.91981093,21.410939 5.425781,21.410939 L5.425781,21.410939 L11.055,21.410001 L11.055469,18.450863 L12,18.450863 C12.715947,18.450863 13.298867,17.867943 13.298867,17.151997 L13.298867,17.151997 L13.2921457,17.0194255 C13.2254824,16.3654612 12.6712003,15.85313 12,15.85313 L12,15.85313 L11.055469,15.85313 L11.055,12.944001 L9.9345552,12.9450865 C9.54876571,14.1854591 8.42461878,15.1038215 7.07757813,15.1824589 L6.88964,15.18793 L6.70170244,15.1824592 C5.35466565,15.103825 4.23051565,14.1854993 3.84472499,12.945091 Z M11.655469,1.989064 L11.655469,4.313302 L11.422392,4.366641 L11.2601312,4.40940777 C10.1923566,4.72856807 9.41207,5.72044195 9.41207,6.889641 L9.41207,6.889641 L9.4178608,7.06362848 C9.49466076,8.21385343 10.3271379,9.16199062 11.422395,9.412643 L11.422395,9.412643 L11.655469,9.465983 L11.655469,11.655469 L8.788,11.655001 L8.788551,12 L8.78282896,12.1482144 C8.70700717,13.1264879 7.88712971,13.898867 6.889684,13.898867 L6.889684,13.898867 L6.74146958,13.893145 C5.76319605,13.8173233 4.990816,12.9974467 4.990816,12 L4.990816,12 L4.99,11.655001 L1.989062,11.655469 L1.989062,5.425782 L1.9941562,5.23747895 C2.09221885,3.42946713 3.59369343,1.989064 5.425781,1.989064 L5.425781,1.989064 L11.655469,1.989064 Z M11.055,2.589001 L5.425781,2.589062 L5.2532629,2.59425009 C3.76935151,2.68374475 2.589062,3.91981096 2.589062,5.425782 L2.589062,5.425782 L2.589,11.055001 L5.590816,11.055469 L5.590816,12 L5.59753726,12.1325715 C5.66420064,12.786536 6.21848275,13.298868 6.889684,13.298868 C7.605631,13.298868 8.188551,12.715948 8.188551,12 L8.188551,12 L8.188551,11.055469 L11.055,11.055001 L11.0549144,9.9345562 C9.81454096,9.54876671 8.8961785,8.42461978 8.81754107,7.07757913 L8.81207,6.889641 L8.81754084,6.70170333 C8.89617503,5.35466578 9.81450157,4.23051655 11.05491,3.84472599 L11.055,2.589001 Z M18.574219,1.989064 L18.762522,1.99415819 C20.5705329,2.09222072 22.010937,3.59369347 22.010937,5.425782 L22.010937,5.425782 L22.010937,11.655469 L19.728378,11.655469 L19.675039,11.422392 L19.6322722,11.2601313 C19.3131119,10.1923567 18.321238,9.412071 17.152039,9.412071 L17.152039,9.412071 L16.9780515,9.4178618 C15.8278266,9.49466176 14.8796894,10.3271388 14.629037,11.422395 L14.629037,11.422395 L14.575698,11.655469 L12.344531,11.655469 L12.344,8.788001 L12,8.788552 L11.8517857,8.78282996 C10.873513,8.70700817 10.101132,7.88713062 10.101132,6.889683 L10.101132,6.889683 L10.106854,6.74146885 C10.1826759,5.76319705 11.0025543,4.990817 12,4.990817 L12,4.990817 L12.344,4.990001 L12.344531,1.989064 L18.574219,1.989064 Z M18.574219,2.589062 L12.944,2.589001 L12.944531,5.590817 L12,5.590817 L11.8674287,5.59753826 C11.213465,5.66420163 10.701133,6.21848362 10.701133,6.889683 L10.701133,6.889683 L10.7078543,7.02225449 C10.7745176,7.67621897 11.3287997,8.188551 12,8.188551 L12,8.188551 L12.944531,8.188551 L12.944,11.055001 L14.107124,11.0549145 C14.4929141,9.81454182 15.6170603,8.89617857 16.9641009,8.81754107 L17.152039,8.81207 L17.3399767,8.81754084 C18.6870142,8.89617503 19.8111634,9.81450157 20.196954,11.05491 L21.41,11.055001 L21.410938,5.425782 L21.4057499,5.25326379 C21.3162553,3.76935151 20.0801891,2.589062 18.574219,2.589062 L18.574219,2.589062 Z M21.41,12.944001 L18.450863,12.944532 L18.450863,12 L18.4441417,11.8674287 C18.3774784,11.213465 17.8231964,10.701133 17.151997,10.701133 L17.151997,10.701133 L17.0194255,10.7078543 C16.365461,10.7745176 15.853129,11.3287997 15.853129,12 L15.853129,12 L15.853129,12.944532 L12.944,12.944001 L12.9450856,14.107124 C14.1854589,14.4929143 15.1038206,15.617062 15.1824579,16.9641011 L15.187929,17.152039 L15.1824582,17.3399767 C15.103824,18.6870143 14.1854983,19.8111643 12.94509,20.196955 L12.944,21.410001 L18.574219,21.410939 C20.0801891,21.410939 21.3162553,20.2306495 21.4057499,18.7467372 L21.410938,18.574219 L21.41,12.944001 Z" id="Fill-145"></path>
                <path d="M18.574219,1 L5.425781,1 C2.985414,1 1,2.985415 1,5.425782 L1,18.574219 C1,21.014586 2.985414,23 5.425781,23 L18.574219,23 C21.014585,23 23,21.014586 23,18.574219 L23,5.425782 C23,2.985415 21.014585,1 18.574219,1 Z M21.710938,5.425782 L21.710938,11.355469 L19.96748,11.355469 C19.673832,10.072294 18.522915,9.11207 17.152039,9.11207 C15.781164,9.11207 14.630246,10.072337 14.336597,11.355469 L12.644531,11.355469 L12.644531,8.488552 L12,8.488552 C11.118367,8.488552 10.401133,7.771317 10.401133,6.889683 C10.401133,6.008051 11.118367,5.290818 12,5.290818 L12.644531,5.290818 L12.644531,2.289063 L18.574219,2.289063 C20.303797,2.289063 21.710938,3.696204 21.710938,5.425782 L21.710938,5.425782 Z M5.425781,2.289063 L11.355469,2.289063 L11.355469,4.0742 C10.072293,4.367848 9.11207,5.518765 9.11207,6.889641 C9.11207,8.260516 10.072336,9.411435 11.355469,9.705082 L11.355469,11.355469 L8.488551,11.355469 L8.488551,12 C8.488551,12.881633 7.771317,13.598867 6.889684,13.598867 C6.008051,13.598867 5.290816,12.881633 5.290816,12 L5.290816,11.355469 L2.289062,11.355469 L2.289062,5.425782 C2.289062,3.696204 3.696203,2.289063 5.425781,2.289063 L5.425781,2.289063 Z M2.289062,18.574219 L2.289062,12.644532 L4.074199,12.644532 C4.367848,13.927707 5.518765,14.887929 6.88964,14.887929 C8.260515,14.887929 9.411434,13.927664 9.705082,12.644532 L11.355469,12.644532 L11.355469,15.55313 L12,15.55313 C12.881633,15.55313 13.598866,16.270364 13.598866,17.151997 C13.598866,18.033629 12.881633,18.750863 12,18.750863 L11.355469,18.750863 L11.355469,21.710938 L5.425781,21.710938 C3.696203,21.710938 2.289062,20.303797 2.289062,18.574219 L2.289062,18.574219 Z M18.574219,21.710938 L12.644531,21.710938 L12.644531,19.96748 C13.927707,19.673832 14.887929,18.522915 14.887929,17.152039 C14.887929,15.781165 13.927664,14.630247 12.644531,14.336598 L12.644531,12.644532 L15.553129,12.644532 L15.553129,12 C15.553129,11.118368 16.270364,10.401133 17.151997,10.401133 C18.033628,10.401133 18.750862,11.118368 18.750862,12 L18.750862,12.644532 L21.710938,12.644532 L21.710938,18.574219 C21.710938,20.303797 20.303797,21.710938 18.574219,21.710938 Z" id="Fill-146"></path>
            </g>
        </g>
    </g>
</svg>