<?xml version="1.0" encoding="UTF-8"?>
<svg width="124px" height="108px" viewBox="0 0 124 108" version="1.1" xmlns="http://www.w3.org/2000/svg" xmlns:xlink="http://www.w3.org/1999/xlink">
    <!-- Generator: Sketch 64 (93537) - https://sketch.com -->
    <title>Group 394</title>
    <desc>Created with Sketch.</desc>
    <g id="Page-1" stroke="none" stroke-width="1" fill="none" fill-rule="evenodd">
        <g id="Cart" transform="translate(-1740.000000, -556.000000)" fill="#FFC701">
            <g id="Group-394" transform="translate(1740.000000, 556.000000)">
                <path d="M89.966731,3.765488 C89.654066,2.81199 88.627429,2.29298 87.674659,2.605404 L87.029712,2.816834 L87.029712,2.111338 C87.029712,1.10795 86.216442,0.294922 85.213296,0.294922 C84.21015,0.294922 83.396881,1.10795 83.396881,2.111338 L83.396881,2.817076 L82.751933,2.605646 C81.798921,2.293949 80.77252,2.812476 80.459854,3.765732 C80.147673,4.718987 80.667172,5.745141 81.620184,6.057807 L82.289596,6.277473 L81.868426,6.862843 C81.00018,8.069186 81.87497,9.740774 83.340938,9.740774 C84.399545,9.740774 84.811264,8.992654 85.21354,8.433923 L85.610482,8.985144 C86.196094,9.798898 87.330997,9.984658 88.145963,9.398077 C88.959958,8.811979 89.144987,7.677082 88.558891,6.862601 L88.137485,6.27723 L88.806897,6.057565 C89.759909,5.744899 90.279397,4.718744 89.966731,3.765488 Z" id="Fill-386"></path>
                <path d="M107.927661,23.263048 C107.614995,22.30955 106.588354,21.790539 105.635584,22.102963 L104.990637,22.314394 L104.990637,21.608897 C104.990637,20.605509 104.177368,19.792481 103.174223,19.792481 C102.171078,19.792481 101.357809,20.605509 101.357809,21.608897 L101.357809,22.314394 L100.712862,22.102963 C99.75985,21.791751 98.7337,22.309793 98.420792,23.263048 C98.108611,24.216062 98.628102,25.242216 99.581114,25.554882 L100.250525,25.774546 L99.829119,26.359919 C99.243265,27.174158 99.428053,28.309296 100.242291,28.895393 C101.057498,29.482217 102.191666,29.295732 102.777762,28.482461 L103.174467,27.931238 C103.556156,28.46139 103.973688,29.238093 105.047068,29.238093 C106.509887,29.238093 107.389271,27.56844 106.519814,26.360159 L106.098408,25.77479 L106.767819,25.555125 C107.720831,25.242459 108.240326,24.216304 107.927661,23.263048 Z" id="Fill-387"></path>
                <path d="M83.675793,20.880882 C84.678972,20.880882 85.49221,20.067644 85.49221,19.064464 C85.49221,18.061284 84.678972,17.248047 83.675793,17.248047 C82.672613,17.248047 81.859375,18.061284 81.859375,19.064464 C81.859375,20.067644 82.672613,20.880882 83.675793,20.880882 Z" id="Fill-388"></path>
                <path d="M112.738293,50.284695 C113.741472,50.284695 114.55471,49.471456 114.55471,48.468275 C114.55471,47.465094 113.741472,46.651856 112.738293,46.651856 C111.735113,46.651856 110.921875,47.465094 110.921875,48.468275 C110.921875,49.471456 111.735113,50.284695 112.738293,50.284695 Z" id="Fill-389"></path>
                <path d="M93.847668,36.380878 C94.850847,36.380878 95.664085,35.567641 95.664085,34.564462 C95.664085,33.561283 94.850847,32.748047 93.847668,32.748047 C92.844488,32.748047 92.03125,33.561283 92.03125,34.564462 C92.03125,35.567641 92.844488,36.380878 93.847668,36.380878 Z" id="Fill-390"></path>
                <path d="M113.467289,12.646507 C114.470465,12.646507 115.283699,11.833269 115.283699,10.830089 C115.283699,9.826909 114.470465,9.013672 113.467289,9.013672 C112.464114,9.013672 111.650879,9.826909 111.650879,10.830089 C111.650879,11.833269 112.464114,12.646507 113.467289,12.646507 Z" id="Fill-391"></path>
                <path d="M79.908139,23.360577 C78.962389,22.189835 77.622116,22.072373 77.622116,22.072373 C76.580702,21.928513 75.700346,22.666462 75.563509,23.610272 C75.417469,24.607849 76.110371,25.52405 77.098986,25.66888 L73.858496,28.827027 C73.42982,29.246014 73.233647,29.846643 73.335366,30.435162 L74.100685,34.896523 C74.100685,34.896523 74.100682,34.896523 74.098261,34.896523 C68.761624,32.088825 69.700106,32.107231 64.40343,34.893858 L64.401013,34.893858 C64.398349,34.896523 64.39835,34.896523 64.395928,34.896523 L65.161239,30.435162 C65.262959,29.846643 65.066787,29.246256 64.640534,28.827027 L61.397866,25.66888 L65.878361,25.017634 C66.469302,24.930446 66.980325,24.559655 67.244312,24.024418 L69.249637,19.965328 L70.039176,21.566199 C70.346756,22.191046 70.971841,22.580727 71.669104,22.580727 C73.013738,22.580727 73.890221,21.166344 73.298795,19.957821 L72.507083,18.357193 C71.173106,15.625302 67.290087,15.694082 65.989774,18.357193 L64.410939,21.558933 C60.807408,22.082302 59.680746,22.008921 58.588715,23.360577 C58.051055,24.021753 57.7651373,24.823398 57.7651373,25.678325 C57.751223,27.562313 58.851975,28.257396 61.419906,30.762115 L60.816854,34.283545 C60.780525,34.486983 60.763572,34.697689 60.763572,34.908392 C60.76115,35.881992 61.163186,36.826529 61.863113,37.499815 C62.566188,38.180609 63.474876,38.533962 64.40125,38.533962 C65.535179,38.533962 65.93455,38.193928 69.247213,36.451136 L69.249637,36.451136 L72.410202,38.112309 C74.813444,39.38695 77.740061,37.618004 77.733521,34.908392 C77.733521,34.697689 77.716568,34.486983 77.680239,34.283545 L77.077191,30.762115 L79.634463,28.269991 C80.998472,26.952725 81.099951,24.826306 79.908139,23.360577 Z" id="Fill-392"></path>
                <path d="M122.183685,55.635155 L98.007896,55.635155 L98.869614,54.794998 C101.29731,52.429054 99.955582,48.303367 96.602234,47.81657 L91.937195,47.138439 L89.850975,42.911278 C88.350861,39.871078 84.013016,39.872536 82.513626,42.911278 L80.42717,47.138439 L75.76236,47.81657 C72.407806,48.303612 71.068253,52.429783 73.494743,54.794998 L74.356705,55.635155 L67.857803,55.635155 C67.964119,54.585991 67.61731,53.499046 66.815422,52.696674 L56.540314,42.42157 C55.123749,41.005249 52.819321,41.005249 51.403,42.42157 C47.891502,45.933308 46.854454,46.970119 45.080902,48.743912 L38.117973,41.780975 C36.415627,40.078392 34.010929,39.434166 31.684946,40.057083 C29.359205,40.680229 27.598734,42.440941 26.975582,44.766441 L23.33427,58.355904 C21.160141,59.279129 19.454405,60.984135 18.530937,63.159477 L4.941718,66.800552 C-0.01032,68.127018 -1.67222,74.314453 1.956013,77.943413 L8.918944,84.906341 C5.347384,88.477901 2.941237,90.884292 2.596845,91.228443 C1.176891,92.648155 1.176891,94.946289 2.596845,96.366245 L12.871952,106.641594 C13.580112,107.349754 14.510361,107.703827 15.440609,107.703827 C16.370857,107.703827 17.301104,107.349754 18.009264,106.641594 L65.381416,59.267986 L120.367271,59.267986 L120.367271,102.256515 C120.364845,103.254333 119.551094,104.070267 118.55085,104.072929 L57.278263,104.072929 C56.278023,104.070267 55.464268,103.254333 55.461845,102.256515 L55.461845,79.091148 C55.461845,78.090908 54.64809,77.274731 53.645428,77.274731 C52.645187,77.274731 51.831432,78.088489 51.82901,79.086307 C51.82901,79.08873 51.82901,79.091148 51.82901,79.091148 L51.82901,102.256515 C51.82901,103.71207 52.395733,105.080437 53.425037,106.109741 C54.454338,107.136383 55.822708,107.705765 57.278263,107.705765 L118.55085,107.705765 C121.548912,107.705765 124.000107,105.280731 124.000107,102.256515 L124.000107,57.451568 C124.000107,56.440674 123.173515,55.635155 122.183685,55.635155 Z M30.483929,45.707104 C31.086981,43.456444 33.899281,42.700325 35.548588,44.349876 L42.51152,51.312805 C40.010918,53.813408 37.143158,56.681171 34.115314,59.709259 L36.306881,51.530052 C36.566505,50.56081 35.99155,49.564934 35.022552,49.305305 C34.053555,49.045437 33.057434,49.620636 32.79805,50.58963 L30.688337,58.463436 C29.609386,57.964767 28.456324,57.687706 27.287521,57.637573 L30.483929,45.707104 Z M25.351706,61.484501 C27.320944,60.910026 29.430651,61.467789 30.848667,62.976143 C28.301083,65.523483 25.697065,68.127499 23.149965,70.674843 C20.072227,67.774872 21.343964,62.653549 25.351706,61.484501 Z M4.524184,75.375004 C3.75039,74.600967 3.457342,73.507725 3.740703,72.450569 C4.023822,71.393417 4.824256,70.593223 5.881169,70.309864 L17.811878,67.113212 C17.862011,68.282017 18.139076,69.435078 18.637503,70.514271 L10.76394,72.623978 C9.7947,72.883362 9.219743,73.87973 9.479611,74.848728 C9.739239,75.817722 10.73512,76.392677 11.704118,76.133293 L19.883322,73.94173 C16.855232,76.969818 13.986748,79.838547 11.486875,82.33818 L4.524184,75.375004 Z M15.439881,104.072929 L5.165016,93.797829 C5.54937,93.413475 8.498506,90.464336 12.771444,86.191398 C12.771444,86.191154 12.771444,86.191162 12.771444,86.191162 L12.771687,86.190918 C16.099361,82.863243 42.3587,56.603424 46.364262,52.597618 L46.364746,52.597137 C49.550255,49.411384 45.404221,53.557659 53.970928,44.990711 L64.247498,55.263878 L15.439881,104.072929 Z M96.333893,52.193649 L92.803261,55.635395 L79.560852,55.635395 C75.764786,51.934749 75.792885,52.096771 75.914223,51.723801 C76.03701,51.345985 75.857056,51.473621 81.894348,50.596413 C82.486015,50.510677 82.997513,50.13892 83.261986,49.602714 C85.970627,44.114712 85.789711,44.263416 86.18206,44.263416 C86.574646,44.263416 86.393494,44.114712 89.101891,49.602714 C89.3666,50.13892 89.877861,50.510437 90.469528,50.596413 L96.079834,51.411621 C96.458862,51.466598 96.608536,51.925789 96.333893,52.193649 Z" id="Fill-393"></path>
            </g>
        </g>
    </g>
</svg>