<svg width="144" height="128" viewBox="0 0 144 128" fill="none" xmlns="http://www.w3.org/2000/svg">
<g clip-path="url(#clip0)" filter="url(#filter0_d)">
<path d="M99.9667 13.7655C99.6541 12.812 98.6274 12.293 97.6747 12.6054L97.0297 12.8168V12.1113C97.0297 11.108 96.2164 10.2949 95.2133 10.2949C94.2102 10.2949 93.3969 11.108 93.3969 12.1113V12.8171L92.7519 12.6056C91.7989 12.2939 90.7725 12.8125 90.4599 13.7657C90.1477 14.719 90.6672 15.7451 91.6202 16.0578L92.2896 16.2775L91.8684 16.8628C91.0002 18.0692 91.875 19.7408 93.3409 19.7408C94.3995 19.7408 94.8113 18.9927 95.2135 18.4339L95.6105 18.9851C96.1961 19.7989 97.331 19.9847 98.146 19.3981C98.96 18.812 99.145 17.6771 98.5589 16.8626L98.1375 16.2772L98.8069 16.0576C99.7599 15.7449 100.279 14.7187 99.9667 13.7655Z" fill="#FFC701"/>
<path d="M117.928 33.2626C117.615 32.3091 116.588 31.7901 115.636 32.1025L114.991 32.3139V31.6084C114.991 30.605 114.177 29.792 113.174 29.792C112.171 29.792 111.358 30.605 111.358 31.6084V32.3139L110.713 32.1025C109.76 31.7913 108.734 32.3093 108.421 33.2626C108.109 34.2156 108.628 35.2417 109.581 35.5544L110.251 35.7741L109.829 36.3594C109.243 37.1737 109.428 38.3088 110.242 38.8949C111.057 39.4817 112.192 39.2952 112.778 38.482L113.174 37.9307C113.556 38.4609 113.974 39.2376 115.047 39.2376C116.51 39.2376 117.389 37.568 116.52 36.3597L116.098 35.7743L116.768 35.5546C117.721 35.242 118.24 34.2158 117.928 33.2626Z" fill="#FFC701"/>
<path d="M93.6758 30.8809C94.679 30.8809 95.4922 30.0676 95.4922 29.0645C95.4922 28.0613 94.679 27.248 93.6758 27.248C92.6726 27.248 91.8594 28.0613 91.8594 29.0645C91.8594 30.0676 92.6726 30.8809 93.6758 30.8809Z" fill="#FFC701"/>
<path d="M122.738 60.2852C123.741 60.2852 124.555 59.4719 124.555 58.4688C124.555 57.4656 123.741 56.6523 122.738 56.6523C121.735 56.6523 120.922 57.4656 120.922 58.4688C120.922 59.4719 121.735 60.2852 122.738 60.2852Z" fill="#FFC701"/>
<path d="M103.848 46.3809C104.851 46.3809 105.664 45.5676 105.664 44.5645C105.664 43.5613 104.851 42.748 103.848 42.748C102.844 42.748 102.031 43.5613 102.031 44.5645C102.031 45.5676 102.844 46.3809 103.848 46.3809Z" fill="#FFC701"/>
<path d="M123.467 22.6465C124.47 22.6465 125.283 21.8333 125.283 20.8301C125.283 19.8269 124.47 19.0137 123.467 19.0137C122.464 19.0137 121.65 19.8269 121.65 20.8301C121.65 21.8333 122.464 22.6465 123.467 22.6465Z" fill="#FFC701"/>
<path d="M89.9086 33.3606C88.9629 32.1898 87.6226 32.0724 87.6226 32.0724C86.5812 31.9285 85.7008 32.6665 85.564 33.6103C85.418 34.6078 86.1109 35.524 87.0995 35.6689L83.859 38.827C83.4303 39.246 83.2341 39.8466 83.3359 40.4352L84.1012 44.8965C84.1012 44.8965 84.1012 44.8965 84.0987 44.8965C78.7621 42.0888 79.7006 42.1072 74.4039 44.8939H74.4015C74.3988 44.8965 74.3988 44.8965 74.3964 44.8965L75.1617 40.4352C75.2634 39.8466 75.0673 39.2463 74.641 38.827L71.3984 35.6689L75.8788 35.0176C76.4698 34.9304 76.9808 34.5597 77.2448 34.0244L79.2501 29.9653L80.0397 31.5662C80.3472 32.191 80.9723 32.5807 81.6696 32.5807C83.0142 32.5807 83.8907 31.1663 83.2993 29.9578L82.5076 28.3572C81.1736 25.6253 77.2906 25.6941 75.9903 28.3572L74.4114 31.5589C70.8079 32.0823 69.6812 32.0089 68.5892 33.3606C68.0515 34.0218 67.7658 34.8234 67.7658 35.6783C67.7517 37.5623 68.8525 38.2574 71.4204 40.7621L70.8173 44.2835C70.781 44.487 70.7641 44.6977 70.7641 44.9084C70.7616 45.882 71.1637 46.8265 71.8636 47.4998C72.5667 48.1806 73.4754 48.534 74.4017 48.534C75.5357 48.534 75.935 48.1939 79.2477 46.4511H79.2501L82.4107 48.1123C84.8139 49.3869 87.7405 47.618 87.734 44.9084C87.734 44.6977 87.7171 44.487 87.6807 44.2835L87.0777 40.7621L89.635 38.27C90.999 36.9527 91.1004 34.8263 89.9086 33.3606Z" fill="#FFC701"/>
<path d="M132.184 65.6352H108.008L108.87 64.795C111.297 62.4291 109.956 58.3034 106.602 57.8166L101.937 57.1384L99.851 52.9113C98.3509 49.8711 94.013 49.8725 92.5136 52.9113L90.4272 57.1384L85.7624 57.8166C82.4078 58.3036 81.0683 62.4298 83.4947 64.795L84.3567 65.6352H77.8578C77.9641 64.586 77.6173 63.499 76.8154 62.6967L66.5403 52.4216C65.1237 51.0052 62.8193 51.0052 61.403 52.4216C57.8915 55.9333 56.8545 56.9701 55.0809 58.7439L48.118 51.781C46.4156 50.0784 44.0109 49.4342 41.6849 50.0571C39.3592 50.6802 37.5987 52.4409 36.9756 54.7664L33.3343 68.3559C31.1601 69.2791 29.4544 70.9841 28.5309 73.1595L14.9417 76.8006C9.98968 78.127 8.32778 84.3145 11.956 87.9434L18.9189 94.9063C15.3474 98.4779 12.9412 100.884 12.5968 101.228C11.1769 102.648 11.1769 104.946 12.5968 106.366L22.872 116.642C23.5801 117.35 24.5104 117.704 25.4406 117.704C26.3709 117.704 27.3011 117.35 28.0093 116.642L75.3814 69.268H130.367V112.257C130.365 113.254 129.551 114.07 128.551 114.073H67.2783C66.278 114.07 65.4643 113.254 65.4618 112.257V89.0911C65.4618 88.0909 64.6481 87.2747 63.6454 87.2747C62.6452 87.2747 61.8314 88.0885 61.829 89.0863C61.829 89.0887 61.829 89.0911 61.829 89.0911V112.257C61.829 113.712 62.3957 115.08 63.425 116.11C64.4543 117.136 65.8227 117.706 67.2783 117.706H128.551C131.549 117.706 134 115.281 134 112.257V67.4516C134 66.4407 133.174 65.6352 132.184 65.6352ZM40.4839 55.7071C41.087 53.4564 43.8993 52.7003 45.5486 54.3499L52.5115 61.3128C50.0109 63.8134 47.1432 66.6812 44.1153 69.7093L46.3069 61.5301C46.5665 60.5608 45.9916 59.5649 45.0226 59.3053C44.0536 59.0454 43.0574 59.6206 42.798 60.5896L40.6883 68.4634C39.6094 67.9648 38.4563 67.6877 37.2875 67.6376L40.4839 55.7071ZM35.3517 71.4845C37.3209 70.91 39.4307 71.4678 40.8487 72.9761C38.3011 75.5235 35.6971 78.1275 33.15 80.6748C30.0722 77.7749 31.344 72.6535 35.3517 71.4845ZM14.5242 85.375C13.7504 84.601 13.4573 83.5077 13.7407 82.4506C14.0238 81.3934 14.8243 80.5932 15.8812 80.3099L27.8119 77.1132C27.862 78.282 28.1391 79.4351 28.6375 80.5143L20.7639 82.624C19.7947 82.8834 19.2197 83.8797 19.4796 84.8487C19.7392 85.8177 20.7351 86.3927 21.7041 86.1333L29.8833 83.9417C26.8552 86.9698 23.9867 89.8385 21.4869 92.3382L14.5242 85.375ZM25.4399 114.073L15.165 103.798C15.5494 103.413 18.4985 100.464 22.7714 96.1914C22.7714 96.1912 22.7714 96.1912 22.7714 96.1912L22.7717 96.1909C26.0994 92.8632 52.3587 66.6034 56.3643 62.5976L56.3647 62.5971C59.5503 59.4114 55.4042 63.5577 63.9709 54.9907L74.2475 65.2639L25.4399 114.073ZM106.334 62.1936L102.803 65.6354H89.5609C85.7648 61.9347 85.7929 62.0968 85.9142 61.7238C86.037 61.346 85.8571 61.4736 91.8943 60.5964C92.486 60.5107 92.9975 60.1389 93.262 59.6027C95.9706 54.1147 95.7897 54.2634 96.1821 54.2634C96.5746 54.2634 96.3935 54.1147 99.1019 59.6027C99.3666 60.1389 99.8779 60.5104 100.47 60.5964L106.08 61.4116C106.459 61.4666 106.609 61.9258 106.334 62.1936Z" fill="#FFC701"/>
</g>
<defs>
<filter id="filter0_d" x="0" y="-8" width="144" height="144" filterUnits="userSpaceOnUse" color-interpolation-filters="sRGB">
<feFlood flood-opacity="0" result="BackgroundImageFix"/>
<feColorMatrix in="SourceAlpha" type="matrix" values="0 0 0 0 0 0 0 0 0 0 0 0 0 0 0 0 0 0 127 0"/>
<feOffset/>
<feGaussianBlur stdDeviation="5"/>
<feColorMatrix type="matrix" values="0 0 0 0 1 0 0 0 0 0.780863 0 0 0 0 0.00392157 0 0 0 0.7 0"/>
<feBlend mode="normal" in2="BackgroundImageFix" result="effect1_dropShadow"/>
<feBlend mode="normal" in="SourceGraphic" in2="effect1_dropShadow" result="shape"/>
</filter>
<clipPath id="clip0">
<rect width="124" height="124" fill="white" transform="translate(10 2)"/>
</clipPath>
</defs>
</svg>
