<?xml version="1.0" encoding="UTF-8"?>
<svg width="40px" height="40px" viewBox="0 0 40 40" version="1.1" xmlns="http://www.w3.org/2000/svg" xmlns:xlink="http://www.w3.org/1999/xlink">
    <!-- Generator: Sketch 64 (93537) - https://sketch.com -->
    <title>Group</title>
    <desc>Created with Sketch.</desc>
    <defs>
        <path d="M0,10 C0,4.477051 4.477173,0 10,0 L30,0 C35.522827,0 40,4.477051 40,10 L40,30 C40,35.522949 35.522827,40 30,40 L10,40 C4.477173,40 0,35.522949 0,30 L0,10 Z" id="path-1"></path>
    </defs>
    <g id="Page-1" stroke="none" stroke-width="1" fill="none" fill-rule="evenodd">
        <g id="Product" transform="translate(-1824.000000, -1013.000000)">
            <g id="Group" transform="translate(1824.000000, 1013.000000)">
                <g id="Group-359">
                    <mask id="mask-2" fill="white">
                        <use xlink:href="#path-1"></use>
                    </mask>
                    <g id="Clip-358"></g>
                    <path d="M10,2 L30,2 L30,-2 L10,-2 L10,2 Z M38,10 L38,30 L42,30 L42,10 L38,10 Z M30,38 L10,38 L10,42 L30,42 L30,38 Z M2,30 L2,10 L-2,10 L-2,30 L2,30 Z M10,38 C5.581722,38 2,34.418278 2,30 L-2,30 C-2,36.627419 3.372583,42 10,42 L10,38 Z M38,30 C38,34.418278 34.418278,38 30,38 L30,42 C36.627419,42 42,36.627419 42,30 L38,30 Z M30,2 C34.418278,2 38,5.581722 38,10 L42,10 C42,3.372581 36.627419,-2 30,-2 L30,2 Z M10,-2 C3.372583,-2 -2,3.372581 -2,10 L2,10 C2,5.581722 5.581722,2 10,2 L10,-2 Z" id="Fill-357" fill="#7750F8" mask="url(#mask-2)"></path>
                </g>
                <path d="M20,10 C14.473267,10 10,14.472504 10,20 C10,21.753998 10.457458,23.467103 11.326141,24.978028 L10.037689,28.979187 C9.947815,29.258118 10.021667,29.563904 10.228882,29.771119 C10.434113,29.976349 10.739136,30.052948 11.020813,29.962311 L15.021973,28.673859 C16.532898,29.542542 18.246002,30 20,30 C25.526733,30 30,25.527497 30,20 C30,14.473267 25.527496,10 20,10 Z M20,28.4375 C18.41568,28.4375 16.871338,27.995453 15.533905,27.159119 C15.341492,27.03888 15.102539,27.006379 14.880219,27.077942 L11.991882,28.008118 L12.922058,25.119782 C12.992554,24.900666 12.962799,24.661408 12.840729,24.466095 C12.004547,23.128663 11.5625,21.584321 11.5625,20 C11.5625,15.347596 15.347595,11.5625 20,11.5625 C24.652405,11.5625 28.4375,15.347596 28.4375,20 C28.4375,24.652405 24.652405,28.4375 20,28.4375 Z M20.976562,20 C20.976562,20.539246 20.539398,20.976563 20,20.976563 C19.460602,20.976563 19.023438,20.539246 19.023438,20 C19.023438,19.460602 19.460602,19.023438 20,19.023438 C20.539398,19.023438 20.976562,19.460602 20.976562,20 Z M24.882812,20 C24.882812,20.539246 24.445648,20.976563 23.90625,20.976563 C23.366852,20.976563 22.929688,20.539246 22.929688,20 C22.929688,19.460602 23.366852,19.023438 23.90625,19.023438 C24.445648,19.023438 24.882812,19.460602 24.882812,20 Z M17.070312,20 C17.070312,20.539246 16.633148,20.976563 16.09375,20.976563 C15.554504,20.976563 15.117188,20.539246 15.117188,20 C15.117188,19.460602 15.554504,19.023438 16.09375,19.023438 C16.633148,19.023438 17.070312,19.460602 17.070312,20 Z" id="Fill-361" fill="#7750F8"></path>
            </g>
        </g>
    </g>
</svg>