<?xml version="1.0" encoding="UTF-8"?>
<svg width="30px" height="28px" viewBox="0 0 30 28" version="1.1" xmlns="http://www.w3.org/2000/svg" xmlns:xlink="http://www.w3.org/1999/xlink">
    <!-- Generator: Sketch 64 (93537) - https://sketch.com -->
    <title>Fill 108</title>
    <desc>Created with Sketch.</desc>
    <g id="Page-1" stroke="none" stroke-width="1" fill="none" fill-rule="evenodd">
        <g id="Games" transform="translate(-356.000000, -592.000000)" fill="#DB214D">
            <path d="M383.811172,595.351784 C382.331505,593.672838 380.27879,592.74823 378.03125,592.74823 C374.870234,592.74823 372.868965,594.63612 371.746777,596.21991 C371.455625,596.630886 371.20795,597.042976 371,597.430748 C370.79205,597.042976 370.544434,596.630886 370.253223,596.21991 C369.131036,594.63612 367.129766,592.74823 363.96875,592.74823 C361.721211,592.74823 359.668496,593.672897 358.18877,595.351843 C356.777363,596.953445 356,599.098444 356,601.391685 C356,603.887955 356.97459,606.209731 359.06709,608.698324 C360.937227,610.922543 363.627676,613.215198 366.743164,615.870022 C367.904082,616.85932 369.104609,617.882366 370.382714,619.000627 L370.421093,619.03426 C370.586797,619.179338 370.793399,619.25182 371,619.25182 C371.206601,619.25182 371.413203,619.179279 371.578907,619.03426 L371.617286,619.000627 C372.895391,617.882366 374.095919,616.859379 375.257013,615.869905 C378.372326,613.215258 381.062773,610.922602 382.932911,608.698324 C385.02541,606.209673 386,603.887955 386,601.391685 C386,599.098444 385.222637,596.953443 383.811172,595.351784 Z M374.116777,614.532093 C373.115995,615.384867 372.086035,616.262543 371,617.206663 C369.914023,616.262659 368.884004,615.384926 367.883047,614.531977 C361.78584,609.336294 357.757812,605.903813 357.757812,601.391685 C357.757812,599.526646 358.379199,597.794382 359.507539,596.514049 C360.648828,595.219187 362.233144,594.506042 363.96875,594.506042 C366.378653,594.506042 367.936484,595.99069 368.818907,597.236158 C369.610449,598.353189 370.023477,599.479244 370.164336,599.911491 C370.282168,600.273308 370.619493,600.518169 371,600.518169 C371.380507,600.518169 371.717832,600.273308 371.835664,599.911491 C371.976523,599.479244 372.389551,598.353189 373.181093,597.236099 C374.063515,595.99069 375.621347,594.506042 378.03125,594.506042 C379.766855,594.506042 381.351171,595.219187 382.492401,596.514049 C383.6208,597.794382 384.242188,599.526646 384.242188,601.391685 C384.242188,605.903813 380.214159,609.336294 374.116777,614.532093 Z" id="Fill-108"></path>
        </g>
    </g>
</svg>