<?xml version="1.0" encoding="UTF-8"?>
<svg width="30px" height="28px" viewBox="0 0 30 28" version="1.1" xmlns="http://www.w3.org/2000/svg" xmlns:xlink="http://www.w3.org/1999/xlink">
    <!-- Generator: Sketch 64 (93537) - https://sketch.com -->
    <title>Fill 219</title>
    <desc>Created with Sketch.</desc>
    <g id="Page-1" stroke="none" stroke-width="1" fill="none" fill-rule="evenodd">
        <g id="Games" transform="translate(-356.000000, -691.000000)" fill="#DB214D">
            <path d="M378.03125,691.757813 C376.403339,691.757813 374.910839,692.273673 373.595293,693.291094 C372.334063,694.266505 371.494355,695.508868 371,696.412266 C370.505645,695.508809 369.665937,694.266505 368.404707,693.291094 C367.08916,692.273673 365.596661,691.757813 363.96875,691.757813 C359.425859,691.757813 356,695.473652 356,700.401211 C356,705.724688 360.274004,709.366934 366.744278,714.880782 C367.843027,715.817168 369.088438,716.878535 370.382891,718.010508 C370.553515,718.159922 370.772656,718.242188 371,718.242188 C371.227344,718.242188 371.446486,718.159922 371.61711,718.010567 C372.91168,716.878418 374.157032,715.817111 375.256426,714.880196 C381.725996,709.366934 386,705.724688 386,700.401211 C386,695.473652 382.574141,691.757813 378.03125,691.757813 Z" id="Fill-219"></path>
        </g>
    </g>
</svg>