<?xml version="1.0" encoding="UTF-8"?>
<svg width="16px" height="16px" viewBox="0 0 16 16" version="1.1" xmlns="http://www.w3.org/2000/svg" xmlns:xlink="http://www.w3.org/1999/xlink">
    <!-- Generator: Sketch 64 (93537) - https://sketch.com -->
    <title>Fill 434</title>
    <desc>Created with Sketch.</desc>
    <g id="Page-1" stroke="none" stroke-width="1" fill="none" fill-rule="evenodd">
        <g id="Main" transform="translate(-48.000000, -149.000000)" fill="#7750F8" stroke="#7750F8" stroke-width="0.5">
            <g id="Group-435" transform="translate(48.000000, 149.000000)">
                <path d="M14.622648,7.089325 C14.622221,7.089005 14.621901,7.088578 14.62158,7.088257 L8.910689,1.377579 C8.667265,1.134049 8.343626,1 7.999373,1 C7.655119,1 7.331481,1.134049 7.08795,1.377579 L1.38005,7.085373 C1.378127,7.087296 1.376098,7.089325 1.374282,7.091248 C0.874404,7.59401 0.875259,8.409729 1.376739,8.91121 C1.605849,9.140427 1.90834,9.273087 2.231872,9.287079 C2.245116,9.288361 2.258361,9.289002 2.271712,9.289002 L2.499221,9.289002 L2.499221,13.491608 C2.499221,14.323349 3.175979,15 4.00772,15 L6.242003,15 C6.46855,15 6.652159,14.816285 6.652159,14.589844 L6.652159,11.294922 C6.652159,10.915421 6.960951,10.606736 7.340453,10.606736 L8.658293,10.606736 C9.037794,10.606736 9.346479,10.915421 9.346479,11.294922 L9.346479,14.589844 C9.346479,14.816285 9.530088,15 9.756636,15 L11.990919,15 C12.822767,15 13.499418,14.323349 13.499418,13.491608 L13.499418,9.289002 L13.710478,9.289002 C14.054625,9.289002 14.378263,9.154953 14.621901,8.911316 C15.123915,8.409089 15.124128,7.591874 14.622648,7.089325 L14.622648,7.089325 Z M14.041807,8.33133 C13.95326,8.419877 13.835554,8.468689 13.710478,8.468689 L13.089262,8.468689 C12.862715,8.468689 12.679106,8.652298 12.679106,8.878846 L12.679106,13.491608 C12.679106,13.871003 12.37042,14.179688 11.990919,14.179688 L10.166792,14.179688 L10.166792,11.294922 C10.166792,10.463181 9.490141,9.786423 8.658293,9.786423 L7.340453,9.786423 C6.508605,9.786423 5.831847,10.463181 5.831847,11.294922 L5.831847,14.179688 L4.00772,14.179688 C3.628325,14.179688 3.319533,13.871003 3.319533,13.491608 L3.319533,8.878846 C3.319533,8.652298 3.135924,8.468689 2.909377,8.468689 L2.298842,8.468689 C2.292434,8.468262 2.286132,8.467942 2.279616,8.467835 C2.157424,8.465699 2.042815,8.417206 1.956939,8.331223 C1.774291,8.148575 1.774291,7.851319 1.956939,7.668564 C1.957046,7.668564 1.957046,7.668457 1.957152,7.668351 L1.957473,7.66803 L7.66815,1.957566 C7.75659,1.869019 7.87419,1.820313 7.999373,1.820313 C8.124449,1.820313 8.242049,1.869019 8.330595,1.957566 L14.039991,7.666855 C14.040846,7.66771 14.041807,7.668564 14.042662,7.669419 C14.224348,7.852387 14.224028,8.149002 14.041807,8.33133 L14.041807,8.33133 Z" id="Fill-434"></path>
            </g>
        </g>
    </g>
</svg>