<?xml version="1.0" encoding="UTF-8"?>
<svg width="16px" height="16px" viewBox="0 0 16 16" version="1.1" xmlns="http://www.w3.org/2000/svg" xmlns:xlink="http://www.w3.org/1999/xlink">
    <!-- Generator: Sketch 64 (93537) - https://sketch.com -->
    <title>Fill 429</title>
    <desc>Created with Sketch.</desc>
    <g id="Page-1" stroke="none" stroke-width="1" fill="none" fill-rule="evenodd">
        <g id="Main" transform="translate(-48.000000, -1078.000000)" fill="#FFFFFF">
            <g id="Group-430" transform="translate(47.000000, 969.000000)">
                <g id="Group-429" transform="translate(1.000000, 109.000000)">
                    <g id="Fill-429">
                        <path d="M8,-1.70530257e-13 C3.5888,-1.70530257e-13 -1.70530257e-13,3.588848 -1.70530257e-13,8.000049 C-1.70530257e-13,12.411248 3.5888,16 8,16 C12.4112,16 16,12.411248 16,8.000049 C16,3.588848 12.4112,-1.70530257e-13 8,-1.70530257e-13 Z M8,14.545454 C4.390788,14.545454 1.454545,11.609212 1.454545,8.000049 C1.454545,4.390884 4.390788,1.454545 8,1.454545 C11.609212,1.454545 14.545454,4.390884 14.545454,8.000049 C14.545454,11.609212 11.609163,14.545454 8,14.545454 Z" id="Fill-425"></path>
                        <path d="M7.999899,3.393921 C7.465305,3.393921 7.030396,3.829121 7.030396,4.364054 C7.030396,4.898503 7.465305,5.333315 7.999899,5.333315 C8.534493,5.333315 8.969402,4.898503 8.969402,4.364054 C8.969402,3.829121 8.534493,3.393921 7.999899,3.393921 Z" id="Fill-426"></path>
                        <path d="M7.999978,6.787842 C7.598329,6.787842 7.272705,7.113466 7.272705,7.515115 L7.272705,11.878751 C7.272705,12.2804 7.598329,12.606024 7.999978,12.606024 C8.401626,12.606024 8.72725,12.2804 8.72725,11.878751 L8.72725,7.515115 C8.72725,7.113466 8.401626,6.787842 7.999978,6.787842 Z" id="Fill-427"></path>
                    </g>
                </g>
            </g>
        </g>
    </g>
</svg>
