<?xml version="1.0" encoding="UTF-8"?>
<svg width="17px" height="17px" viewBox="0 0 17 17" version="1.1" xmlns="http://www.w3.org/2000/svg" xmlns:xlink="http://www.w3.org/1999/xlink">
    <!-- Generator: Sketch 64 (93537) - https://sketch.com -->
    <title>Group 3</title>
    <desc>Created with Sketch.</desc>
    <g id="Page-1" stroke="none" stroke-width="1" fill="none" fill-rule="evenodd" fill-opacity="0.7">
        <g id="Main" transform="translate(-48.000000, -540.000000)" fill="#FFFFFF">
            <g id="Group-366" transform="translate(46.000000, 193.000000)">
                <g id="Group-356" transform="translate(2.000000, 347.000000)">
                    <g id="Group-3" transform="translate(0.000000, 0.629089)">
                        <path d="M16.364971,1.581665 L6.326941,1.581665 C5.961937,1.581665 5.718567,1.825001 5.718567,2.190039 C5.718567,2.555076 6.022754,2.798412 6.326941,2.798412 L16.364971,2.798412 C16.729976,2.798412 16.973345,2.555076 16.973345,2.190039 C16.973345,1.825001 16.730009,1.581665 16.364971,1.581665 Z" id="Fill-349"></path>
                        <path d="M16.425789,7.421997 L6.326941,7.421997 C5.961937,7.421997 5.718567,7.665333 5.718567,8.030371 C5.718567,8.395408 5.961903,8.638745 6.326941,8.638745 L16.364971,8.638745 C16.729976,8.638745 16.973345,8.395408 16.973345,8.030371 C16.973345,7.665333 16.730009,7.421997 16.425789,7.421997 Z" id="Fill-350"></path>
                        <path d="M16.425789,13.262329 L6.326941,13.262329 C5.961937,13.262329 5.718567,13.505666 5.718567,13.870703 C5.718567,14.235707 5.961903,14.479077 6.326941,14.479077 L16.364971,14.479077 C16.729976,14.479077 16.973345,14.235741 16.973345,13.870703 C16.973345,13.505666 16.730009,13.262329 16.425789,13.262329 Z" id="Fill-351"></path>
                        <path d="M2.190125,-2.27373675e-13 C0.973378,-2.27373675e-13 7.81597009e-14,0.973378 7.81597009e-14,2.190092 C7.81597009e-14,3.406806 0.973378,4.380216 2.190125,4.380216 C3.406839,4.380216 4.38025,3.406839 4.38025,2.190092 C4.38025,0.973378 3.406839,-2.27373675e-13 2.190125,-2.27373675e-13 Z M2.190125,3.22432 C1.642569,3.22432 1.216747,2.798499 1.216747,2.250942 C1.216747,1.703386 1.642602,1.277565 2.190125,1.277565 C2.737681,1.277565 3.163503,1.703419 3.163503,2.250942 C3.163503,2.737648 2.737648,3.22432 2.190125,3.22432 Z" id="Fill-352"></path>
                        <path d="M2.190125,5.840149 C0.973378,5.840149 7.81597009e-14,6.81356 7.81597009e-14,8.030274 C7.81597009e-14,9.246988 0.973378,10.220399 2.190125,10.220399 C3.406839,10.220399 4.38025,9.247021 4.38025,8.030274 C4.38025,6.813527 3.406839,5.840149 2.190125,5.840149 Z M2.190125,9.003651 C1.642569,9.003651 1.216747,8.577797 1.216747,8.030274 C1.216747,7.482751 1.642602,7.056896 2.190125,7.056896 C2.737681,7.056896 3.163503,7.482718 3.163503,8.030274 C3.163503,8.57783 2.737648,9.003651 2.190125,9.003651 Z" id="Fill-353"></path>
                        <path d="M2.190125,11.61969 C0.973378,11.61969 7.81597009e-14,12.593068 7.81597009e-14,13.809815 C7.81597009e-14,15.026562 0.973378,15.999941 2.190125,15.999941 C3.406839,15.999941 4.38025,15.026562 4.38025,13.809815 C4.38025,12.653885 3.406839,11.61969 2.190125,11.61969 Z M2.190125,14.84401 C1.642569,14.84401 1.216747,14.418156 1.216747,13.870633 C1.216747,13.32311 1.642602,12.897255 2.190125,12.897255 C2.737681,12.897255 3.163503,13.32311 3.163503,13.870633 C3.163503,14.418156 2.737648,14.84401 2.190125,14.84401 Z" id="Fill-354"></path>
                    </g>
                </g>
            </g>
        </g>
    </g>
</svg>