<?xml version="1.0" encoding="UTF-8"?>
<svg width="20px" height="13px" viewBox="0 0 20 13" version="1.1" xmlns="http://www.w3.org/2000/svg" xmlns:xlink="http://www.w3.org/1999/xlink">
    <!-- Generator: Sketch 64 (93537) - https://sketch.com -->
    <title>Group</title>
    <desc>Created with Sketch.</desc>
    <g id="Page-1" stroke="none" stroke-width="1" fill="none" fill-rule="evenodd" opacity="0.7">
        <g id="Main" transform="translate(-46.000000, -231.000000)" fill="#FFFFFF" stroke="#FFFFFF" stroke-width="0.3">
            <g id="Group-366" transform="translate(46.000000, 193.000000)">
                <g id="Group-323" transform="translate(0.000000, 38.000000)">
                    <g id="Group">
                        <g id="Group-305">
                            <path d="M19.081162,8.713189 C19.03587,7.671463 18.8547,6.516505 18.582947,5.429486 C18.311192,4.38776 17.971499,3.413972 17.563866,2.666646 C15.97863,-0.118839 14.257518,0.311438 12.196712,0.854948 C11.539972,1.013471 10.837938,1.194641 10.113259,1.26258 L9.886796,1.26258 C9.162117,1.194641 8.460084,1.013471 7.803344,0.854948 C5.742537,0.334085 4.021424,-0.118839 2.436189,2.689293 C2.028557,3.436618 1.666217,4.410406 1.417108,5.452132 C1.145354,6.539151 0.964184,7.694109 0.918892,8.735835 C0.873599,9.890793 0.98683,10.728703 1.235939,11.317505 C1.485047,11.861014 1.847387,12.200707 2.322958,12.336585 C2.753236,12.449816 3.251453,12.404524 3.772316,12.178061 C4.655519,11.815722 5.674599,11.04575 6.671033,10.117255 C7.373065,9.437869 8.686547,9.098175 10.000028,9.098175 C11.313509,9.098175 12.62699,9.437869 13.329023,10.117255 C14.325457,11.04575 15.344536,11.815722 16.227739,12.178061 C16.748602,12.381878 17.246819,12.449816 17.677098,12.336585 C18.130022,12.200707 18.515007,11.88366 18.764115,11.294859 C19.013224,10.728702 19.126456,9.890793 19.081162,8.713189 Z M17.994145,10.977812 C17.858267,11.294859 17.677098,11.476028 17.450634,11.543967 C17.201527,11.611906 16.88448,11.566614 16.52214,11.430736 C15.729522,11.113689 14.801028,10.411656 13.895178,9.5511 C13.034623,8.690543 11.517325,8.260265 10.000028,8.260265 C8.482731,8.260265 6.965433,8.690543 6.082231,9.505807 C5.153736,10.366363 4.22524,11.091042 3.455269,11.385444 C3.092929,11.521321 2.775882,11.58926 2.526774,11.498675 C2.300311,11.430736 2.119141,11.249566 1.983264,10.932519 C1.802094,10.502241 1.711509,9.800208 1.756802,8.758482 C1.802094,7.784694 1.960618,6.675028 2.232373,5.633302 C2.481481,4.659513 2.798528,3.753665 3.183514,3.074278 C4.429057,0.832302 5.878415,1.194642 7.599528,1.647566 C8.30156,1.828736 9.026241,2.009906 9.818858,2.077844 C9.841504,2.077844 9.841504,2.077844 9.86415,2.077844 L10.113259,2.077844 C10.135906,2.077844 10.135906,2.077844 10.158552,2.077844 C10.973815,2.009906 11.698495,1.828736 12.400528,1.647566 C14.121642,1.217288 15.570998,0.832302 16.81654,3.074278 C17.201525,3.753665 17.518574,4.636867 17.767683,5.633302 C18.016791,6.675028 18.19796,7.762048 18.243252,8.758482 C18.288546,9.800208 18.19796,10.502241 17.994145,10.977812 Z" id="Fill-304"></path>
                        </g>
                        <g id="Group-308" transform="translate(3.000000, 2.000000)">
                            <path d="M4.916588,2.29718 C4.690125,2.093363 4.41837,1.93484 4.101323,1.912194 C4.078677,1.617793 3.942799,1.323392 3.738984,1.119576 L3.716337,1.09693 C3.467229,0.847821 3.150181,0.711944 2.787842,0.711944 C2.425502,0.711944 2.085809,0.870467 1.859347,1.09693 C1.655531,1.300746 1.497007,1.595147 1.474361,1.912194 C1.157314,1.93484 0.885559,2.070718 0.659097,2.274533 L0.636451,2.29718 C0.387342,2.546288 0.251465,2.863335 0.251465,3.225674 C0.251465,3.588014 0.409989,3.927708 0.636451,4.15417 C0.862913,4.380632 1.134668,4.516509 1.474361,4.539155 C1.497007,4.856202 1.632885,5.150603 1.859347,5.354419 C2.108455,5.603528 2.425502,5.739405 2.787842,5.739405 C3.150181,5.739405 3.489875,5.580882 3.716337,5.354419 C3.920153,5.127957 4.078677,4.856202 4.101323,4.539155 C4.41837,4.516509 4.712771,4.380632 4.916588,4.15417 C5.165696,3.905061 5.301573,3.588014 5.301573,3.225674 C5.301573,2.863335 5.143049,2.523642 4.916588,2.29718 Z M4.350432,3.565368 C4.259847,3.655953 4.146616,3.701245 4.010738,3.701245 L3.693691,3.701245 C3.467229,3.701245 3.263413,3.882415 3.263413,4.131523 L3.263413,4.425924 C3.263413,4.561801 3.21812,4.675032 3.127535,4.765617 C3.03695,4.856202 2.923719,4.901495 2.787842,4.901495 C2.651965,4.901495 2.538733,4.856202 2.448148,4.765617 C2.357564,4.675032 2.312272,4.561801 2.312272,4.425924 L2.312272,4.108877 C2.312272,3.882415 2.131101,3.678599 1.881993,3.678599 L1.564946,3.678599 C1.429068,3.678599 1.315838,3.633307 1.225253,3.542722 C1.157314,3.474783 1.089375,3.361552 1.089375,3.225674 C1.089375,3.089797 1.134668,2.976566 1.225253,2.885981 C1.225253,2.885981 1.225253,2.885982 1.247899,2.863335 C1.338484,2.795397 1.451715,2.750104 1.564946,2.750104 L1.881993,2.750104 C2.108455,2.750104 2.312272,2.568934 2.312272,2.319826 L2.312272,2.002779 C2.312272,1.866901 2.357564,1.75367 2.448148,1.663085 C2.538733,1.5725 2.651965,1.527208 2.787842,1.527208 C2.923719,1.527208 3.03695,1.5725 3.127535,1.663085 C3.127535,1.663085 3.127535,1.663085 3.150181,1.685732 C3.21812,1.776316 3.263413,1.889548 3.263413,2.002779 L3.263413,2.319826 C3.263413,2.546288 3.444582,2.750104 3.693691,2.750104 L4.010738,2.750104 C4.146616,2.750104 4.259847,2.795396 4.350432,2.885981 C4.441017,2.976566 4.486309,3.089797 4.486309,3.225674 C4.486309,3.361552 4.441017,3.474783 4.350432,3.565368 Z" id="Fill-307"></path>
                        </g>
                        <g id="Group-311" transform="translate(13.000000, 2.000000)">
                            <path d="M0.940445,2.410423 C1.378195,2.410423 1.733063,2.055558 1.733063,1.617809 C1.733063,1.180061 1.378195,0.825196 0.940445,0.825196 C0.502694,0.825196 0.147827,1.180061 0.147827,1.617809 C0.147827,2.055558 0.502694,2.410423 0.940445,2.410423 Z" id="Fill-310"></path>
                        </g>
                        <g id="Group-314" transform="translate(13.000000, 6.000000)">
                            <path d="M0.940445,1.626096 C1.378195,1.626096 1.733063,1.271229 1.733063,0.833479 C1.733063,0.395729 1.378195,0.040863 0.940445,0.040863 C0.502694,0.040863 0.147827,0.395729 0.147827,0.833479 C0.147827,1.271229 0.502694,1.626096 0.940445,1.626096 Z" id="Fill-313"></path>
                        </g>
                        <g id="Group-317" transform="translate(11.000000, 4.000000)">
                            <path d="M1.332534,2.018211 C1.770284,2.018211 2.125151,1.663345 2.125151,1.225597 C2.125151,0.787849 1.770284,0.432984 1.332534,0.432984 C0.894784,0.432984 0.539917,0.787849 0.539917,1.225597 C0.539917,1.663345 0.894784,2.018211 1.332534,2.018211 Z" id="Fill-316"></path>
                        </g>
                        <g id="Group-320" transform="translate(14.000000, 4.000000)">
                            <path d="M1.548357,2.018211 C1.986108,2.018211 2.340976,1.663345 2.340976,1.225597 C2.340976,0.787849 1.986108,0.432984 1.548357,0.432984 C1.110605,0.432984 0.755737,0.787849 0.755737,1.225597 C0.755737,1.663345 1.110605,2.018211 1.548357,2.018211 Z" id="Fill-319"></path>
                        </g>
                    </g>
                </g>
            </g>
        </g>
    </g>
</svg>