<?xml version="1.0" encoding="UTF-8"?>
<svg width="24px" height="22px" viewBox="0 0 24 22" version="1.1" xmlns="http://www.w3.org/2000/svg" xmlns:xlink="http://www.w3.org/1999/xlink">
    <!-- Generator: Sketch 64 (93537) - https://sketch.com -->
    <title>Group</title>
    <desc>Created with Sketch.</desc>
    <g id="Page-1" stroke="none" stroke-width="1" fill="none" fill-rule="evenodd">
        <g id="FAQ" transform="translate(-355.000000, -1344.000000)" fill="#7750F8">
            <g id="Group" transform="translate(355.000000, 1344.000000)">
                <g id="Group-130">
                    <path d="M19.998396,0.223339 L20.1800708,0.228407099 C21.8637166,0.322591216 23.200005,1.71769631 23.200005,3.424949 L23.200005,3.424949 L23.1949369,3.60662935 C23.1007528,5.29032369 21.7056477,6.626558 19.998396,6.626558 L19.998396,6.626558 L18.066983,6.626339 L18.067078,18.575378 L17.867077,18.575083 L17.667076,18.575083 L17.667076,6.226558 L19.998396,6.226558 L20.1690647,6.22144511 C21.6368965,6.13324503 22.800005,4.91495122 22.800005,3.424949 L22.800005,3.424949 L22.7948919,3.25428052 C22.7066883,1.78645039 21.4883481,0.62334 19.998396,0.62334 L19.998396,0.62334 L6.677647,0.62334 C5.131455,0.62562 3.878317,1.878757 3.876037,3.425243 L3.876037,3.425243 L3.876038,15.770587 L3.697747,15.790054 L3.676038,15.591236 L3.674983,15.590339 L3.697747,15.790054 C2.216579,15.9517856 1.13172411,17.2403071 1.20336867,18.7090194 L1.216811,18.879234 C1.372433,20.304487 2.578965,21.382238 4.012723,21.376695 L4.012723,21.376695 L14.865172,21.376693 C16.411658,21.374414 17.664797,20.121275 17.667076,18.574789 L17.667076,18.574789 L18.067076,18.575378 C18.064472,20.342317 16.632701,21.77409 14.865762,21.776693 L14.865762,21.776693 L4.013496,21.776693 L3.83333622,21.7723667 C2.27533285,21.6912508 0.990429296,20.4910789 0.819175,18.922651 L0.819175,18.922651 L0.804492778,18.7414971 C0.715365032,17.0575541 1.95719007,15.5777297 3.654328,15.392418 L3.475983,15.416339 L3.476038,3.424949 L3.48136062,3.24310767 C3.57778329,1.56067154 4.97134093,0.225854241 6.677351,0.223341 L6.677351,0.223341 L19.998396,0.223339 Z M13.220313,16.257084 L12.88024,16.598272 L12.7499115,16.7381326 C11.7941395,17.8358316 11.8375793,19.5013174 12.880244,20.547458 L12.880244,20.547458 L13.220297,20.888643 L4.013496,20.888643 L3.85494418,20.8833004 C2.64993086,20.8018214 1.697718,19.7985388 1.697718,18.572864 L1.697718,18.572864 L1.70306059,18.4143121 C1.78453957,17.2092978 2.78782217,16.257084 4.013496,16.257084 L4.013496,16.257084 L13.220313,16.257084 Z M18.334608,1.111389 L17.995588,1.452396 L17.859225,1.59979094 C17.4239253,2.10562764 17.1826651,2.75277682 17.183466,3.424545 L17.183466,3.424545 L17.183466,18.575083 L17.1781286,18.7334835 C17.0967281,19.9373467 16.0944117,20.888643 14.869907,20.888643 L14.869907,20.888643 L14.7115066,20.8833056 C13.5076443,20.801905 12.556348,19.7995877 12.556348,18.575083 L12.556348,18.575083 L12.5616854,18.4166826 C12.643086,17.2128204 13.6454033,16.261525 14.869907,16.261525 L14.869907,16.261525 L14.925855,16.2550793 C15.0336533,16.2297849 15.113934,16.1330043 15.113934,16.0175 L15.113934,16.0175 L15.1074882,15.9615524 C15.0821936,15.8537547 14.9854121,15.773474 14.869907,15.773474 L14.869907,15.773474 L4.381849,15.773474 L4.381849,3.424949 L4.38743026,3.26722272 C4.47007764,2.07151192 5.45959175,1.12414967 6.67555,1.1114 L6.67555,1.1114 L18.334608,1.111389 Z M12.3018332,16.6563771 L4.013496,16.657083 L3.86377972,16.6628469 C2.87570258,16.7392259 2.097718,17.5651973 2.097718,18.572864 L2.097718,18.572864 L2.1034819,18.7225803 C2.17986063,19.7106575 3.00582933,20.488643 4.013496,20.488643 L4.013496,20.488643 L12.3018317,20.4893348 C11.4517198,19.3568926 11.4517175,17.7887844 12.3018332,16.6563771 Z M17.4177714,1.51127348 L6.679743,1.511379 C5.62987,1.522386 4.784009,2.375431 4.781848,3.425361 L4.781848,3.425361 L4.780983,15.373339 L14.869907,15.373475 L14.9650727,15.3804582 C15.2756214,15.4264595 15.513933,15.6941636 15.513933,16.0175 L15.513933,16.0175 L15.5069497,16.1126659 C15.4609482,16.4232151 15.1932425,16.661525 14.869907,16.661525 L14.869907,16.661525 L14.7203635,16.6672822 C13.7334274,16.7435719 12.956348,17.5685782 12.956348,18.575083 L12.956348,18.575083 L12.9621052,18.7246265 C13.0383951,19.7115627 13.8634032,20.488643 14.869907,20.488643 C15.926737,20.488643 16.783466,19.631912 16.783466,18.575083 L16.783466,18.575083 L16.783466,3.424782 L16.7901464,3.214638 C16.830203,2.59649839 17.0491901,2.00494173 17.4177714,1.51127348 Z M20.242422,5.743295 L20.242422,4.366283 L20.2359763,4.31033506 C20.2106819,4.202537 20.1139011,4.122257 19.998396,4.122257 L19.998396,4.122257 L17.671516,4.122257 L17.671516,3.424949 L17.6772755,3.26602993 C17.7618855,2.06237966 18.766774,1.11379044 19.99127,1.11704362 L19.99127,1.11704362 L20.1496568,1.12281151 C21.3533053,1.20742131 22.3018946,2.21230796 22.2986424,3.436804 C22.295717,4.519348 21.542536,5.455095 20.485704,5.689365 L20.485704,5.689365 L20.242422,5.743295 Z M19.754372,4.610307 L19.754372,5.738508 L17.671516,5.738508 L17.671516,4.610307 L19.754372,4.610307 Z M19.353983,5.009339 L18.070983,5.009339 L18.070983,5.338339 L19.353983,5.338339 L19.353983,5.009339 Z M21.893277,3.2861787 C21.8196164,2.29902868 20.9967011,1.51973095 19.990204,1.51705 L19.990204,1.51705 L19.840644,1.52240884 C18.8534954,1.59606867 18.074195,2.41898486 18.071516,3.425482 L18.071516,3.425482 L18.070983,3.721339 L19.998396,3.722257 C20.3217333,3.722257 20.5894375,3.96056692 20.6354388,4.27111688 L20.642422,4.366283 L20.6433436,5.22750439 C21.3870281,4.95552676 21.8964544,4.2452466 21.898636,3.435734 L21.898636,3.435734 Z" id="Fill-128"></path>
                    <path d="M19.998396,0.42334 L6.677647,0.42334 C5.020934,0.425781 3.67848,1.768236 3.676038,3.424949 L3.676038,15.591236 C2.028094,15.771177 0.838052,17.252998 1.017993,18.900942 C1.184724,20.427944 2.477392,21.582632 4.013496,21.5767168 L14.865467,21.5767168 C16.52218,21.574251 17.864635,20.231796 17.867077,18.575083 L17.867077,6.426559 L19.998396,6.426559 C21.656164,6.426559 23,5.082718 23,3.424949 C23,1.767181 21.656109,0.42334 19.998396,0.42334 Z M12.738587,20.688644 L4.013496,20.688644 C2.844989,20.688644 1.897718,19.741371 1.897718,18.572864 C1.897718,17.404358 2.844989,16.457083 4.013496,16.457083 L12.738587,16.457083 C11.572801,17.626701 11.572801,19.51897 12.738587,20.688644 Z M16.983466,3.424782 L16.983466,18.575083 C16.983466,19.74237 16.037193,20.688644 14.869907,20.688644 C13.702621,20.688644 12.756349,19.74237 12.756349,18.575083 C12.756349,17.407797 13.702621,16.461525 14.869907,16.461525 C15.11512,16.461525 15.313933,16.262712 15.313933,16.0175 C15.313933,15.772287 15.11512,15.573475 14.869907,15.573475 L4.581848,15.573475 L4.581848,3.424949 C4.584235,2.265545 5.518297,1.323545 6.677647,1.31139 L17.853754,1.31139 C17.295448,1.87297 16.982523,2.632919 16.983466,3.424782 Z M19.554371,5.538509 L17.871517,5.538509 L17.871517,4.810306 L19.554371,4.810306 L19.554371,5.538509 Z M20.442421,5.494106 L20.442421,5.489666 L20.442421,4.366283 C20.442421,4.121069 20.243608,3.922256 19.998396,3.922256 L17.871517,3.922256 L17.871517,3.424949 C17.874624,2.257664 18.82345,1.313944 19.990736,1.31704335 C21.158024,1.32016 22.101742,2.268986 22.0986426,3.436271 C22.09597,4.425226 21.407898,5.280086 20.442421,5.494106 Z" id="Fill-129"></path>
                </g>
                <g id="Group-133" transform="translate(6.000000, 4.000000)">
                    <path d="M7.95525,0.628003 L1.459162,0.628003 L1.459162,1.028003 L7.95525,1.028003 L7.95525,0.628003 Z M1.459162,0.628003 C1.103492,0.628003 0.815137,0.916358 0.815137,1.272028 L1.215137,1.272028 C1.215137,1.137272 1.324406,1.028003 1.459162,1.028003 L1.459162,0.628003 Z M0.815137,1.272028 C0.815137,1.627698 1.103492,1.916053 1.459162,1.916053 L1.459162,1.516053 C1.324406,1.516053 1.215137,1.406784 1.215137,1.272028 L0.815137,1.272028 Z M1.459162,1.916053 L7.95525,1.916053 L7.95525,1.516053 L1.459162,1.516053 L1.459162,1.916053 Z M7.95525,1.916053 C8.31092,1.916053 8.599276,1.627698 8.599276,1.272028 L8.199276,1.272028 C8.199276,1.406783 8.090007,1.516053 7.95525,1.516053 L7.95525,1.916053 Z M8.599276,1.272028 C8.599276,0.916358 8.31092,0.628003 7.95525,0.628003 L7.95525,1.028003 C8.090007,1.028003 8.199276,1.137273 8.199276,1.272028 L8.599276,1.272028 Z" id="Fill-131"></path>
                    <path d="M7.95525,0.828003 L1.459162,0.828003 C1.213949,0.828003 1.015137,1.026815 1.015137,1.272028 C1.015137,1.517241 1.213949,1.716053 1.459162,1.716053 L7.95525,1.716053 C8.200463,1.716053 8.399276,1.517241 8.399276,1.272028 C8.399276,1.026815 8.200463,0.828003 7.95525,0.828003 Z" id="Fill-132"></path>
                </g>
                <g id="Group-136" transform="translate(6.000000, 7.000000)">
                    <path d="M7.95525,0.798413 L1.459162,0.798413 L1.459162,1.198413 L7.95525,1.198413 L7.95525,0.798413 Z M1.459162,0.798413 C1.103492,0.798413 0.815137,1.086768 0.815137,1.442438 L1.215137,1.442438 C1.215137,1.307682 1.324406,1.198413 1.459162,1.198413 L1.459162,0.798413 Z M0.815137,1.442438 C0.815137,1.798108 1.103492,2.086463 1.459162,2.086463 L1.459162,1.686463 C1.324406,1.686463 1.215137,1.577194 1.215137,1.442438 L0.815137,1.442438 Z M1.459162,2.086463 L7.95525,2.086463 L7.95525,1.686463 L1.459162,1.686463 L1.459162,2.086463 Z M7.95525,2.086463 C8.31092,2.086463 8.599276,1.798108 8.599276,1.442438 L8.199276,1.442438 C8.199276,1.577194 8.090007,1.686463 7.95525,1.686463 L7.95525,2.086463 Z M8.599276,1.442438 C8.599276,1.086768 8.31092,0.798413 7.95525,0.798413 L7.95525,1.198413 C8.090007,1.198413 8.199276,1.307683 8.199276,1.442438 L8.599276,1.442438 Z" id="Fill-134"></path>
                    <path d="M7.95525,0.998413 L1.459162,0.998413 C1.213949,0.998413 1.015137,1.197225 1.015137,1.442438 C1.015137,1.687651 1.213949,1.886463 1.459162,1.886463 L7.95525,1.886463 C8.200463,1.886463 8.399276,1.687651 8.399276,1.442438 C8.399276,1.197225 8.200463,0.998413 7.95525,0.998413 Z" id="Fill-135"></path>
                </g>
                <g id="Group-139" transform="translate(6.000000, 10.000000)">
                    <path d="M7.95525,0.968701 L1.459162,0.968701 L1.459162,1.368701 L7.95525,1.368701 L7.95525,0.968701 Z M1.459162,0.968701 C1.103491,0.968701 0.815137,1.257058 0.815137,1.612729 L1.215137,1.612729 C1.215137,1.47797 1.324407,1.368701 1.459162,1.368701 L1.459162,0.968701 Z M0.815137,1.612729 C0.815137,1.968399 1.103491,2.256756 1.459162,2.256756 L1.459162,1.856756 C1.324407,1.856756 1.215137,1.747487 1.215137,1.612729 L0.815137,1.612729 Z M1.459162,2.256756 L7.95525,2.256756 L7.95525,1.856756 L1.459162,1.856756 L1.459162,2.256756 Z M7.95525,2.256756 C8.310921,2.256756 8.599276,1.968399 8.599276,1.612729 L8.199276,1.612729 C8.199276,1.747486 8.090006,1.856756 7.95525,1.856756 L7.95525,2.256756 Z M8.599276,1.612729 C8.599276,1.257058 8.310921,0.968701 7.95525,0.968701 L7.95525,1.368701 C8.090006,1.368701 8.199276,1.477971 8.199276,1.612729 L8.599276,1.612729 Z" id="Fill-137"></path>
                    <path d="M7.95525,1.168701 L1.459162,1.168701 C1.213949,1.168701 1.015137,1.367514 1.015137,1.6127285 C1.015137,1.857943 1.213949,2.056756 1.459162,2.056756 L7.95525,2.056756 C8.200463,2.056756 8.399276,1.857943 8.399276,1.6127285 C8.399276,1.367514 8.200463,1.168701 7.95525,1.168701 Z" id="Fill-138"></path>
                </g>
            </g>
        </g>
    </g>
</svg>