<svg width="19" height="18" viewBox="0 0 19 18" fill="none" xmlns="http://www.w3.org/2000/svg">
<mask id="path-1-outside-1" maskUnits="userSpaceOnUse" x="0" y="0" width="19" height="18" fill="black">
<rect fill="white" width="19" height="18"/>
<path d="M17.3879 11.0739H17.5923C18.0832 11.0739 18.4812 10.6759 18.4812 10.185C18.4812 9.69412 18.0832 9.29615 17.5923 9.29615H17.3011C17.2169 9.26653 16.9998 8.90772 16.9998 8.25914C16.9998 7.61055 17.2187 7.24819 17.296 7.22212H17.5923C18.0832 7.22212 18.4812 6.82415 18.4812 6.33324C18.4812 5.84233 18.0832 5.44437 17.5923 5.44437H14.0268C14.8373 4.76403 15.1357 3.64932 14.7734 2.65504C14.4111 1.66076 13.4655 0.999349 12.4072 1H4.25923C3.76832 1 3.37036 1.39796 3.37036 1.88887C3.37036 2.37979 3.76832 2.77775 4.25923 2.77775H4.37508C4.51443 2.99836 4.5778 3.25849 4.55552 3.51848C4.5778 3.77846 4.51443 4.03859 4.37508 4.2592H4.25923C3.76832 4.2592 3.37036 4.65717 3.37036 5.14808C3.37036 5.63899 3.76832 6.03695 4.25923 6.03695H4.46397C3.77435 6.56785 3.37029 7.38883 3.37029 8.25914C3.37029 9.12944 3.77435 9.95042 4.46397 10.4813H1.8889C1.39799 10.4813 1.00003 10.8793 1.00003 11.3702C0.998122 11.6049 1.09158 11.8303 1.25899 11.9948C1.4243 12.1648 1.65173 12.2603 1.8889 12.2591H2.21482C2.39411 12.7323 2.48451 13.2345 2.48148 13.7405C2.48451 14.2465 2.39411 14.7488 2.21482 15.222H1.8889C1.39799 15.222 1.00003 15.6199 1.00003 16.1109C0.998122 16.3455 1.09158 16.5709 1.25899 16.7354C1.4243 16.9055 1.65173 17.0009 1.8889 16.9997H15.4264C17.1603 17.0219 18.6177 15.7027 18.7677 13.9752C18.8366 13.0317 18.4916 12.105 17.8226 11.4363C17.6883 11.3032 17.5429 11.182 17.3879 11.0739ZM17.8886 10.185C17.8886 10.3487 17.756 10.4813 17.5923 10.4813H10.7776V9.88874H17.5923C17.756 9.88874 17.8886 10.0214 17.8886 10.185ZM10.1851 14.0368L8.97026 13.4282C8.80321 13.3453 8.60695 13.3453 8.4399 13.4282L7.22214 14.0368V8.70357H10.1851V10.7752V10.7776V10.78V11.9592V11.9628V11.9663V14.0368ZM16.5968 9.29615H10.7776V8.70357C10.7776 8.3763 10.5123 8.11099 10.1851 8.11099H7.22214C6.89487 8.11099 6.62956 8.3763 6.62956 8.70357V9.29615H6.18512C5.61239 9.29615 5.14811 8.83186 5.14811 8.25914C5.14811 7.68641 5.61239 7.22212 6.18512 7.22212H16.5968C16.344 7.89034 16.344 8.62793 16.5968 9.29615ZM5.03611 2.77775H12.4072C12.8163 2.77775 13.148 3.10938 13.148 3.51848C13.148 3.92757 12.8163 4.2592 12.4072 4.2592H5.03611C5.11377 4.0201 5.15161 3.76985 5.14811 3.51848C5.15161 3.2671 5.11377 3.01685 5.03611 2.77775ZM4.25923 5.44437C4.09559 5.44437 3.96294 5.31171 3.96294 5.14808C3.96294 4.98444 4.09559 4.85179 4.25923 4.85179H12.4072C13.1436 4.85179 13.7406 4.25484 13.7406 3.51848C13.7406 2.78211 13.1436 2.18517 12.4072 2.18517H4.25923C4.09559 2.18517 3.96294 2.05251 3.96294 1.88887C3.96294 1.72524 4.09559 1.59258 4.25923 1.59258H12.4072C13.4709 1.59258 14.3331 2.45483 14.3331 3.51848C14.3331 4.58212 13.4709 5.44437 12.4072 5.44437H4.25923ZM3.96294 8.25914C3.96425 7.0324 4.95839 6.03826 6.18512 6.03695H17.5923C17.756 6.03695 17.8886 6.16961 17.8886 6.33324C17.8886 6.49688 17.756 6.62953 17.5923 6.62953H6.18512C5.28512 6.62953 4.55552 7.35913 4.55552 8.25914C4.55552 9.15914 5.28512 9.88874 6.18512 9.88874H6.62956V10.4813H6.18512C4.95839 10.48 3.96425 9.48587 3.96294 8.25914ZM1.67765 11.5758C1.6227 11.5216 1.59203 11.4474 1.59261 11.3702C1.59261 11.2066 1.72527 11.0739 1.8889 11.0739H6.62956V11.6665L1.8889 11.6665C1.80899 11.6667 1.73255 11.6339 1.67765 11.5758ZM2.84977 12.2591H6.62956V14.0368C6.62936 14.2426 6.73596 14.4338 6.91115 14.5418C7.08633 14.6498 7.30501 14.6592 7.48881 14.5666L8.7036 13.9583L9.91988 14.5666C10.1036 14.6588 10.3221 14.6489 10.4968 14.5405C10.6719 14.4331 10.7783 14.2422 10.7776 14.0368V12.2591H15.5183C16.3201 12.2606 16.9759 12.8984 16.9998 13.6999C17.0062 14.0895 16.854 14.4649 16.5781 14.7399C16.2799 15.0458 15.8715 15.2195 15.4442 15.222H2.84977C3.001 14.7428 3.07667 14.243 3.07407 13.7405C3.07667 13.2381 3.001 12.7382 2.84977 12.2591ZM18.1766 13.9337C18.049 15.3511 16.8494 16.4299 15.4264 16.4071H1.8889C1.80899 16.4073 1.73255 16.3745 1.67765 16.3165C1.6227 16.2622 1.59203 16.1881 1.59261 16.1109C1.59261 15.9472 1.72527 15.8146 1.8889 15.8146H15.4442C16.031 15.8117 16.5922 15.5737 17.0021 15.1538C17.3901 14.7648 17.6032 14.2347 17.5923 13.6854C17.5603 12.5625 16.6417 11.6683 15.5183 11.6665H10.7776V11.0739H15.5183C16.2589 11.0743 16.9659 11.3826 17.4701 11.925C17.9743 12.4674 18.2303 13.1951 18.1766 13.9337Z"/>
</mask>
<path d="M17.3879 11.0739H17.5923C18.0832 11.0739 18.4812 10.6759 18.4812 10.185C18.4812 9.69412 18.0832 9.29615 17.5923 9.29615H17.3011C17.2169 9.26653 16.9998 8.90772 16.9998 8.25914C16.9998 7.61055 17.2187 7.24819 17.296 7.22212H17.5923C18.0832 7.22212 18.4812 6.82415 18.4812 6.33324C18.4812 5.84233 18.0832 5.44437 17.5923 5.44437H14.0268C14.8373 4.76403 15.1357 3.64932 14.7734 2.65504C14.4111 1.66076 13.4655 0.999349 12.4072 1H4.25923C3.76832 1 3.37036 1.39796 3.37036 1.88887C3.37036 2.37979 3.76832 2.77775 4.25923 2.77775H4.37508C4.51443 2.99836 4.5778 3.25849 4.55552 3.51848C4.5778 3.77846 4.51443 4.03859 4.37508 4.2592H4.25923C3.76832 4.2592 3.37036 4.65717 3.37036 5.14808C3.37036 5.63899 3.76832 6.03695 4.25923 6.03695H4.46397C3.77435 6.56785 3.37029 7.38883 3.37029 8.25914C3.37029 9.12944 3.77435 9.95042 4.46397 10.4813H1.8889C1.39799 10.4813 1.00003 10.8793 1.00003 11.3702C0.998122 11.6049 1.09158 11.8303 1.25899 11.9948C1.4243 12.1648 1.65173 12.2603 1.8889 12.2591H2.21482C2.39411 12.7323 2.48451 13.2345 2.48148 13.7405C2.48451 14.2465 2.39411 14.7488 2.21482 15.222H1.8889C1.39799 15.222 1.00003 15.6199 1.00003 16.1109C0.998122 16.3455 1.09158 16.5709 1.25899 16.7354C1.4243 16.9055 1.65173 17.0009 1.8889 16.9997H15.4264C17.1603 17.0219 18.6177 15.7027 18.7677 13.9752C18.8366 13.0317 18.4916 12.105 17.8226 11.4363C17.6883 11.3032 17.5429 11.182 17.3879 11.0739ZM17.8886 10.185C17.8886 10.3487 17.756 10.4813 17.5923 10.4813H10.7776V9.88874H17.5923C17.756 9.88874 17.8886 10.0214 17.8886 10.185ZM10.1851 14.0368L8.97026 13.4282C8.80321 13.3453 8.60695 13.3453 8.4399 13.4282L7.22214 14.0368V8.70357H10.1851V10.7752V10.7776V10.78V11.9592V11.9628V11.9663V14.0368ZM16.5968 9.29615H10.7776V8.70357C10.7776 8.3763 10.5123 8.11099 10.1851 8.11099H7.22214C6.89487 8.11099 6.62956 8.3763 6.62956 8.70357V9.29615H6.18512C5.61239 9.29615 5.14811 8.83186 5.14811 8.25914C5.14811 7.68641 5.61239 7.22212 6.18512 7.22212H16.5968C16.344 7.89034 16.344 8.62793 16.5968 9.29615ZM5.03611 2.77775H12.4072C12.8163 2.77775 13.148 3.10938 13.148 3.51848C13.148 3.92757 12.8163 4.2592 12.4072 4.2592H5.03611C5.11377 4.0201 5.15161 3.76985 5.14811 3.51848C5.15161 3.2671 5.11377 3.01685 5.03611 2.77775ZM4.25923 5.44437C4.09559 5.44437 3.96294 5.31171 3.96294 5.14808C3.96294 4.98444 4.09559 4.85179 4.25923 4.85179H12.4072C13.1436 4.85179 13.7406 4.25484 13.7406 3.51848C13.7406 2.78211 13.1436 2.18517 12.4072 2.18517H4.25923C4.09559 2.18517 3.96294 2.05251 3.96294 1.88887C3.96294 1.72524 4.09559 1.59258 4.25923 1.59258H12.4072C13.4709 1.59258 14.3331 2.45483 14.3331 3.51848C14.3331 4.58212 13.4709 5.44437 12.4072 5.44437H4.25923ZM3.96294 8.25914C3.96425 7.0324 4.95839 6.03826 6.18512 6.03695H17.5923C17.756 6.03695 17.8886 6.16961 17.8886 6.33324C17.8886 6.49688 17.756 6.62953 17.5923 6.62953H6.18512C5.28512 6.62953 4.55552 7.35913 4.55552 8.25914C4.55552 9.15914 5.28512 9.88874 6.18512 9.88874H6.62956V10.4813H6.18512C4.95839 10.48 3.96425 9.48587 3.96294 8.25914ZM1.67765 11.5758C1.6227 11.5216 1.59203 11.4474 1.59261 11.3702C1.59261 11.2066 1.72527 11.0739 1.8889 11.0739H6.62956V11.6665L1.8889 11.6665C1.80899 11.6667 1.73255 11.6339 1.67765 11.5758ZM2.84977 12.2591H6.62956V14.0368C6.62936 14.2426 6.73596 14.4338 6.91115 14.5418C7.08633 14.6498 7.30501 14.6592 7.48881 14.5666L8.7036 13.9583L9.91988 14.5666C10.1036 14.6588 10.3221 14.6489 10.4968 14.5405C10.6719 14.4331 10.7783 14.2422 10.7776 14.0368V12.2591H15.5183C16.3201 12.2606 16.9759 12.8984 16.9998 13.6999C17.0062 14.0895 16.854 14.4649 16.5781 14.7399C16.2799 15.0458 15.8715 15.2195 15.4442 15.222H2.84977C3.001 14.7428 3.07667 14.243 3.07407 13.7405C3.07667 13.2381 3.001 12.7382 2.84977 12.2591ZM18.1766 13.9337C18.049 15.3511 16.8494 16.4299 15.4264 16.4071H1.8889C1.80899 16.4073 1.73255 16.3745 1.67765 16.3165C1.6227 16.2622 1.59203 16.1881 1.59261 16.1109C1.59261 15.9472 1.72527 15.8146 1.8889 15.8146H15.4442C16.031 15.8117 16.5922 15.5737 17.0021 15.1538C17.3901 14.7648 17.6032 14.2347 17.5923 13.6854C17.5603 12.5625 16.6417 11.6683 15.5183 11.6665H10.7776V11.0739H15.5183C16.2589 11.0743 16.9659 11.3826 17.4701 11.925C17.9743 12.4674 18.2303 13.1951 18.1766 13.9337Z" fill="white"/>
<path d="M17.3879 11.0739H17.5923C18.0832 11.0739 18.4812 10.6759 18.4812 10.185C18.4812 9.69412 18.0832 9.29615 17.5923 9.29615H17.3011C17.2169 9.26653 16.9998 8.90772 16.9998 8.25914C16.9998 7.61055 17.2187 7.24819 17.296 7.22212H17.5923C18.0832 7.22212 18.4812 6.82415 18.4812 6.33324C18.4812 5.84233 18.0832 5.44437 17.5923 5.44437H14.0268C14.8373 4.76403 15.1357 3.64932 14.7734 2.65504C14.4111 1.66076 13.4655 0.999349 12.4072 1H4.25923C3.76832 1 3.37036 1.39796 3.37036 1.88887C3.37036 2.37979 3.76832 2.77775 4.25923 2.77775H4.37508C4.51443 2.99836 4.5778 3.25849 4.55552 3.51848C4.5778 3.77846 4.51443 4.03859 4.37508 4.2592H4.25923C3.76832 4.2592 3.37036 4.65717 3.37036 5.14808C3.37036 5.63899 3.76832 6.03695 4.25923 6.03695H4.46397C3.77435 6.56785 3.37029 7.38883 3.37029 8.25914C3.37029 9.12944 3.77435 9.95042 4.46397 10.4813H1.8889C1.39799 10.4813 1.00003 10.8793 1.00003 11.3702C0.998122 11.6049 1.09158 11.8303 1.25899 11.9948C1.4243 12.1648 1.65173 12.2603 1.8889 12.2591H2.21482C2.39411 12.7323 2.48451 13.2345 2.48148 13.7405C2.48451 14.2465 2.39411 14.7488 2.21482 15.222H1.8889C1.39799 15.222 1.00003 15.6199 1.00003 16.1109C0.998122 16.3455 1.09158 16.5709 1.25899 16.7354C1.4243 16.9055 1.65173 17.0009 1.8889 16.9997H15.4264C17.1603 17.0219 18.6177 15.7027 18.7677 13.9752C18.8366 13.0317 18.4916 12.105 17.8226 11.4363C17.6883 11.3032 17.5429 11.182 17.3879 11.0739ZM17.8886 10.185C17.8886 10.3487 17.756 10.4813 17.5923 10.4813H10.7776V9.88874H17.5923C17.756 9.88874 17.8886 10.0214 17.8886 10.185ZM10.1851 14.0368L8.97026 13.4282C8.80321 13.3453 8.60695 13.3453 8.4399 13.4282L7.22214 14.0368V8.70357H10.1851V10.7752V10.7776V10.78V11.9592V11.9628V11.9663V14.0368ZM16.5968 9.29615H10.7776V8.70357C10.7776 8.3763 10.5123 8.11099 10.1851 8.11099H7.22214C6.89487 8.11099 6.62956 8.3763 6.62956 8.70357V9.29615H6.18512C5.61239 9.29615 5.14811 8.83186 5.14811 8.25914C5.14811 7.68641 5.61239 7.22212 6.18512 7.22212H16.5968C16.344 7.89034 16.344 8.62793 16.5968 9.29615ZM5.03611 2.77775H12.4072C12.8163 2.77775 13.148 3.10938 13.148 3.51848C13.148 3.92757 12.8163 4.2592 12.4072 4.2592H5.03611C5.11377 4.0201 5.15161 3.76985 5.14811 3.51848C5.15161 3.2671 5.11377 3.01685 5.03611 2.77775ZM4.25923 5.44437C4.09559 5.44437 3.96294 5.31171 3.96294 5.14808C3.96294 4.98444 4.09559 4.85179 4.25923 4.85179H12.4072C13.1436 4.85179 13.7406 4.25484 13.7406 3.51848C13.7406 2.78211 13.1436 2.18517 12.4072 2.18517H4.25923C4.09559 2.18517 3.96294 2.05251 3.96294 1.88887C3.96294 1.72524 4.09559 1.59258 4.25923 1.59258H12.4072C13.4709 1.59258 14.3331 2.45483 14.3331 3.51848C14.3331 4.58212 13.4709 5.44437 12.4072 5.44437H4.25923ZM3.96294 8.25914C3.96425 7.0324 4.95839 6.03826 6.18512 6.03695H17.5923C17.756 6.03695 17.8886 6.16961 17.8886 6.33324C17.8886 6.49688 17.756 6.62953 17.5923 6.62953H6.18512C5.28512 6.62953 4.55552 7.35913 4.55552 8.25914C4.55552 9.15914 5.28512 9.88874 6.18512 9.88874H6.62956V10.4813H6.18512C4.95839 10.48 3.96425 9.48587 3.96294 8.25914ZM1.67765 11.5758C1.6227 11.5216 1.59203 11.4474 1.59261 11.3702C1.59261 11.2066 1.72527 11.0739 1.8889 11.0739H6.62956V11.6665L1.8889 11.6665C1.80899 11.6667 1.73255 11.6339 1.67765 11.5758ZM2.84977 12.2591H6.62956V14.0368C6.62936 14.2426 6.73596 14.4338 6.91115 14.5418C7.08633 14.6498 7.30501 14.6592 7.48881 14.5666L8.7036 13.9583L9.91988 14.5666C10.1036 14.6588 10.3221 14.6489 10.4968 14.5405C10.6719 14.4331 10.7783 14.2422 10.7776 14.0368V12.2591H15.5183C16.3201 12.2606 16.9759 12.8984 16.9998 13.6999C17.0062 14.0895 16.854 14.4649 16.5781 14.7399C16.2799 15.0458 15.8715 15.2195 15.4442 15.222H2.84977C3.001 14.7428 3.07667 14.243 3.07407 13.7405C3.07667 13.2381 3.001 12.7382 2.84977 12.2591ZM18.1766 13.9337C18.049 15.3511 16.8494 16.4299 15.4264 16.4071H1.8889C1.80899 16.4073 1.73255 16.3745 1.67765 16.3165C1.6227 16.2622 1.59203 16.1881 1.59261 16.1109C1.59261 15.9472 1.72527 15.8146 1.8889 15.8146H15.4442C16.031 15.8117 16.5922 15.5737 17.0021 15.1538C17.3901 14.7648 17.6032 14.2347 17.5923 13.6854C17.5603 12.5625 16.6417 11.6683 15.5183 11.6665H10.7776V11.0739H15.5183C16.2589 11.0743 16.9659 11.3826 17.4701 11.925C17.9743 12.4674 18.2303 13.1951 18.1766 13.9337Z" stroke="white" stroke-width="0.2" mask="url(#path-1-outside-1)"/>
</svg>
