<?xml version="1.0" encoding="UTF-8"?>
<svg width="19px" height="18px" viewBox="0 0 19 18" version="1.1" xmlns="http://www.w3.org/2000/svg" xmlns:xlink="http://www.w3.org/1999/xlink">
    <!-- Generator: Sketch 64 (93537) - https://sketch.com -->
    <title>Group 403</title>
    <desc>Created with Sketch.</desc>
    <g id="Page-1" stroke="none" stroke-width="1" fill="none" fill-rule="evenodd">
        <g id="Main" transform="translate(-46.000000, -889.000000)" fill="#FFFFFF" stroke="#FFFFFF" stroke-width="0.1">
            <g id="Group-412" transform="translate(46.000000, 818.000000)">
                <g id="Group-403" transform="translate(1.000000, 72.000000)">
                    <path d="M3.25910646,-0.0500004815 C7.38800614,-0.0502926804 9.85691066,0.0827095821 11.3571174,0.318858072 C12.1907024,0.450073218 12.7273623,0.61370848 13.084326,0.803210165 C13.5359577,1.04296833 13.7060437,1.32453499 13.8202411,1.63792019 C14.0049973,2.14493564 14.0212996,2.68265956 13.8880802,3.18036104 C13.7658772,3.63690554 13.5178593,4.05977315 13.1586394,4.394369 L13.1586394,4.394369 L16.592213,4.394369 C16.8514757,4.394369 17.0861943,4.49945604 17.2560972,4.66935891 C17.4259999,4.8392616 17.531087,5.07398 17.531087,5.333243 C17.531087,5.5925056 17.4259998,5.82722411 17.256097,5.99712696 C17.0908295,6.16239441 16.8642349,6.26633463 16.6132853,6.27195198 C16.0884702,6.80542619 16.049631,7.0096394 16.049631,7.259136 C16.049631,7.50523464 16.0814403,7.70871672 16.1254796,7.86732341 C16.8734993,8.25822072 17.0947794,8.35982646 17.256097,8.52114404 C17.4259998,8.69104689 17.531087,8.9257654 17.531087,9.185028 C17.531087,9.444291 17.4259999,9.6790094 17.2560972,9.84891209 C17.0945526,10.0104567 16.8744125,10.1134058 16.6303252,10.1231484 C17.5371304,11.0798973 17.8874318,12.0208814 17.8174135,12.9795116 C17.7412561,13.8563115 17.3333386,14.6294915 16.7244532,15.1806578 C16.1155678,15.7318242 15.3057145,16.0609768 14.426325,16.049726 L14.426325,16.049726 L0.889033612,16.0497254 C0.638268838,16.0509973 0.397797079,15.9501035 0.223822178,15.7710991 C0.0467464672,15.5971131 -0.0521068638,15.3586906 -0.0501216225,15.110852 C-0.0501216225,14.8515908 0.0549709198,14.6168737 0.224878779,14.4469711 C0.390381404,14.2814736 0.61738189,14.1774736 0.868739562,14.1721276 C1.34893265,13.7145796 1.43428462,13.2292309 1.43136389,12.740223 C1.4342845,12.2518276 1.34910061,11.7670044 1.17999098,11.3090147 C0.618750049,11.3061186 0.391121093,11.2025759 0.223822069,11.03044 C0.0467463877,10.8564529 -0.0521068634,10.6180326 -0.0501216225,10.370193 C-0.0501216225,10.1109318 0.0549709198,9.87621469 0.224878779,9.70631211 C0.394788862,9.5364073 0.629515887,9.431319 0.88878,9.431319 L0.88878,9.431319 L3.3227403,9.431319 C2.68841999,8.89063773 2.320163,8.0973627 2.320163,7.259136 C2.320163,6.41916241 2.68995652,5.62432713 3.32658075,5.08362462 C2.94658076,5.06433701 2.74573196,4.96246764 2.59522566,4.81196134 C2.42532295,4.64205862 2.320236,4.40734013 2.320236,4.148077 C2.320236,3.88881432 2.42532299,3.65409601 2.59522579,3.48419341 C2.76094937,3.31847002 2.98833933,3.21441289 3.24005173,3.20937364 C3.46936801,3.00388774 3.52618722,2.76301398 3.50558358,2.51420694 C3.52615971,2.2740955 3.47049243,2.03384875 3.34682933,1.8275506 C2.98413256,1.8223934 2.75951409,1.71704746 2.59522578,1.55275895 C2.42532299,1.38285598 2.320236,1.14813718 2.320236,0.888874 C2.320236,0.629611243 2.42532306,0.394892489 2.59522596,0.224989494 C2.76512866,0.0550867058 2.99984703,-0.0500004816 3.25910646,-0.0500004815 Z M14.5181509,10.123902 L9.827515,10.616483 L14.518175,10.616483 C15.0934643,10.6173981 15.6162488,10.846786 15.9993309,11.2196893 C16.3824128,11.5925923 16.6257924,12.1090105 16.6421927,12.6839864 C16.6532887,13.2473136 16.4349609,13.7905006 16.0374043,14.1891383 C15.6184659,14.6181801 15.0445243,14.8615973 14.4443488,14.8645594 L3.177225,15.357143 L14.426325,15.357143 C15.1255129,15.3683426 15.7690764,15.1091899 16.2537084,14.6733239 C16.7383405,14.2374578 17.0640411,13.6248784 17.1267016,12.9292185 C17.1792754,12.2053082 16.9281462,11.4912832 16.4333952,10.9590348 C15.9386432,10.4267853 15.244834,10.1242523 14.5181509,10.123902 Z M5.57944,11.309066 L1.91736597,11.309066 C2.05680054,11.7732992 2.12645859,12.2558149 2.12394433,12.7407812 C2.12645859,13.2252533 2.05680053,13.707745 1.91736595,14.171978 L14.444102,14.171978 C14.8576723,14.1695465 15.2532971,14.0013517 15.5422075,13.7050085 C15.8090111,13.4390515 15.9559056,13.0767156 15.9496379,12.7007635 C15.9381364,12.3141689 15.7739515,11.9664597 15.5157914,11.7153732 C15.257631,11.4642865 14.9054953,11.3098225 14.5180773,11.3090659 L9.827515,11.309066 L9.827515,13.036813 C9.82828395,13.259512 9.71277253,13.4666515 9.52276472,13.5831362 C9.33355005,13.7005818 9.0966111,13.7112891 8.89732464,13.6112685 L7.70349163,13.0142072 L6.51107082,13.6112893 C6.31188539,13.7116598 6.0747507,13.7014893 5.88478315,13.5843648 C5.69481558,13.4672402 5.57922315,13.2599367 5.57944002,13.0367644 L5.57944,11.309066 Z M9.134934,7.753572 L6.272022,7.753572 L6.272022,12.9559289 L7.41742703,12.3835053 C7.59860063,12.2935202 7.81131837,12.2935202 7.99238158,12.3834503 L9.134934,12.9558407 L9.134934,7.753572 Z" id="Fill-401"></path>
                </g>
            </g>
        </g>
    </g>
</svg>
