<?xml version="1.0" encoding="UTF-8"?>
<svg width="23px" height="22px" viewBox="0 0 23 22" version="1.1" xmlns="http://www.w3.org/2000/svg" xmlns:xlink="http://www.w3.org/1999/xlink">
    <!-- Generator: Sketch 64 (93537) - https://sketch.com -->
    <title>Group 18</title>
    <desc>Created with Sketch.</desc>
    <g id="Page-1" stroke="none" stroke-width="1" fill="none" fill-rule="evenodd">
        <g id="Main" transform="translate(-1482.000000, -1502.000000)" fill="#40D04F">
            <g id="Group-18" transform="translate(1482.000000, 1502.000000)">
                <path d="M22.128851,12.217534 C22.653991,11.616041 22.916662,10.904734 22.916662,10.083462 C22.916662,9.338695 22.644159,8.694259 22.10101,8.149705 C21.556756,7.6052 20.912321,7.333099 20.167553,7.333099 L16.200307,7.333099 C16.238434,7.199455 16.276659,7.084876 16.314786,6.98941 C16.352561,6.893944 16.405637,6.788795 16.472207,6.674215 C16.538828,6.559586 16.586738,6.4736 16.615282,6.416411 C16.787102,6.091936 16.918637,5.8244 17.009439,5.614504 C17.100089,5.404207 17.190337,5.117859 17.281339,4.755005 C17.37219,4.392355 17.417339,4.029352 17.417339,3.6665 C17.417339,3.437441 17.41458,3.251072 17.410066,3.107948 C17.405601,2.964724 17.38127,2.749811 17.338679,2.463312 C17.295435,2.176964 17.238046,1.938223 17.166609,1.747339 C17.094872,1.556408 16.98019,1.341394 16.822919,1.102854 C16.665298,0.863863 16.474416,0.670773 16.249822,0.522682 C16.025277,0.374691 15.738928,0.25058 15.390423,0.150398 C15.041567,0.050116 14.647914,0 14.208408,0 C13.960185,0 13.745523,0.090752 13.563921,0.272202 C13.372988,0.463135 13.2104,0.701826 13.076858,0.988174 C12.943115,1.274673 12.849955,1.522945 12.797381,1.733093 C12.744857,1.943138 12.685109,2.234453 12.618539,2.606737 C12.532303,3.007967 12.46814,3.296623 12.424897,3.473259 C12.382004,3.649895 12.298227,3.881413 12.174216,4.16781 C12.049955,4.454411 11.902115,4.683418 11.730195,4.855389 C11.415151,5.170433 10.933003,5.743382 10.283551,6.574034 C9.81555,7.185059 9.333403,7.762722 8.836907,8.307026 C8.340312,8.85143 7.97751,9.133063 7.748401,9.152177 C7.50986,9.17124 7.30453,9.269114 7.13261,9.445849 C6.960691,9.622485 6.874756,9.830223 6.874756,10.068864 L6.874756,19.249786 C6.874756,19.498058 6.965406,19.710413 7.146857,19.887049 C7.328208,20.063885 7.54307,20.156942 7.791343,20.166525 C8.1255,20.176105 8.87985,20.385952 10.054392,20.796913 C10.789528,21.044785 11.364734,21.23366 11.78011,21.362387 C12.195386,21.491114 12.77586,21.629673 13.520076,21.777864 C14.264994,21.925804 14.952372,22 15.582409,22 L15.825967,22 L16.914575,22 L17.430082,22 C18.700341,21.980938 19.640456,21.608402 20.251782,20.882898 C20.805416,20.223965 21.039242,19.3598 20.953609,18.290358 C21.325942,17.937086 21.583946,17.488501 21.72697,16.944096 C21.889057,16.361967 21.889057,15.803316 21.72697,15.268694 C22.166125,14.686214 22.371456,14.032147 22.34261,13.306442 C22.343814,13.000579 22.272377,12.637827 22.128851,12.217534 Z" id="Fill-205"></path>
                <path d="M5.041706,9.16687 L0.916838,9.16687 C0.668415,9.16687 0.453553,9.257621 0.272152,9.439071 C0.090751,9.620422 -1.13686838e-13,9.835285 -1.13686838e-13,10.083557 L-1.13686838e-13,19.250533 C-1.13686838e-13,19.498455 0.090751,19.713418 0.272202,19.895019 C0.453754,20.07617 0.668616,20.16697 0.916888,20.16697 L5.041706,20.16697 C5.289929,20.16697 5.50469,20.07617 5.686192,19.895019 C5.867593,19.713418 5.958293,19.498505 5.958293,19.250533 L5.958293,10.083557 C5.958293,9.835285 5.867543,9.620473 5.686192,9.439071 C5.504741,9.25757 5.289979,9.16687 5.041706,9.16687 Z" id="Fill-206"></path>
            </g>
        </g>
    </g>
</svg>