<?xml version="1.0" encoding="UTF-8"?>
<svg width="26px" height="24px" viewBox="0 0 26 24" version="1.1" xmlns="http://www.w3.org/2000/svg" xmlns:xlink="http://www.w3.org/1999/xlink">
    <!-- Generator: Sketch 64 (93537) - https://sketch.com -->
    <title>Group 2</title>
    <desc>Created with Sketch.</desc>
    <g id="Page-1" stroke="none" stroke-width="1" fill="none" fill-rule="evenodd">
        <g id="Write-review" transform="translate(-359.000000, -2425.000000)">
            <g id="Group-2" transform="translate(360.000000, 2425.166992)">
                <g id="Group-119" transform="translate(7.000000, 0.833008)" stroke="#40D04F">
                    <path d="M16.129095,12.217534 C16.654235,11.616041 16.916906,10.904734 16.916906,10.083462 C16.916906,9.338695 16.644403,8.694259 16.101254,8.149705 C15.557,7.6052 14.912565,7.333099 14.167797,7.333099 L10.200551,7.333099 C10.238678,7.199455 10.276903,7.084876 10.31503,6.98941 C10.352805,6.893944 10.405881,6.788795 10.472451,6.674215 C10.539072,6.559586 10.586982,6.4736 10.615526,6.416411 C10.787346,6.091936 10.918881,5.8244 11.009683,5.614504 C11.100333,5.404207 11.190581,5.117859 11.281583,4.755005 C11.372434,4.392355 11.417583,4.029352 11.417583,3.6665 C11.417583,3.437441 11.414824,3.251072 11.41031,3.107948 C11.405845,2.964724 11.381514,2.749811 11.338923,2.463312 C11.295679,2.176964 11.23829,1.938223 11.166853,1.747339 C11.095116,1.556408 10.980434,1.341394 10.823163,1.102854 C10.665542,0.863863 10.47466,0.670773 10.250066,0.522682 C10.025521,0.374691 9.739172,0.25058 9.390667,0.150398 C9.041811,0.050116 8.648158,0 8.208652,0 C7.960429,0 7.745767,0.090752 7.564165,0.272202 C7.373232,0.463135 7.210644,0.701826 7.077102,0.988174 C6.943359,1.274673 6.850199,1.522945 6.797625,1.733093 C6.745101,1.943138 6.685353,2.234453 6.618783,2.606737 C6.532547,3.007967 6.468384,3.296623 6.425141,3.473259 C6.382248,3.649895 6.298471,3.881413 6.17446,4.16781 C6.050199,4.454411 5.902359,4.683418 5.730439,4.855389 C5.415395,5.170433 4.933247,5.743382 4.283795,6.574034 C3.815794,7.185059 3.333647,7.762722 2.837151,8.307026 C2.340556,8.85143 1.977754,9.133063 1.748645,9.152177 C1.510104,9.17124 1.304774,9.269114 1.132854,9.445849 C0.960935,9.622485 0.875,9.830223 0.875,10.068864 L0.875,19.249786 C0.875,19.498058 0.96565,19.710413 1.147101,19.887049 C1.328452,20.063885 1.543314,20.156942 1.791587,20.166525 C2.125744,20.176105 2.880094,20.385952 4.054636,20.796913 C4.789772,21.044785 5.364978,21.23366 5.780354,21.362387 C6.19563,21.491114 6.776104,21.629673 7.52032,21.777864 C8.265238,21.925804 8.952616,22 9.582653,22 L9.826211,22 L10.914819,22 L11.430326,22 C12.700585,21.980938 13.6407,21.608402 14.252026,20.882898 C14.80566,20.223965 15.039486,19.3598 14.953853,18.290358 C15.326186,17.937086 15.58419,17.488501 15.727214,16.944096 C15.889301,16.361967 15.889301,15.803316 15.727214,15.268694 C16.166369,14.686214 16.3717,14.032147 16.342854,13.306442 C16.344058,13.000579 16.272621,12.637827 16.129095,12.217534 Z" id="Fill-115"></path>
                </g>
                <g id="Group-124" transform="translate(0.000000, 9.833008)"></g>
                <path d="M5.041706,10 L0.916838,10 C0.668415,10 0.453553,10.090751 0.272152,10.272202 C0.090751,10.453552 0,10.668415 0,10.916687 L0,20.083663 C0,20.331585 0.090751,20.546548 0.272202,20.728149 C0.453754,20.9093 0.668616,21.0001 0.916888,21.0001 L5.041706,21.0001 C5.289929,21.0001 5.50469,20.9093 5.686192,20.728149 C5.867593,20.546548 5.958293,20.331635 5.958293,20.083663 L5.958293,10.916687 C5.958293,10.668415 5.867543,10.453603 5.686192,10.272202 C5.504741,10.0907 5.289979,10 5.041706,10 Z" id="Fill-120" stroke="#40D04F"></path>
            </g>
        </g>
    </g>
</svg>