<?xml version="1.0" encoding="UTF-8"?>
<svg width="20px" height="20px" viewBox="0 0 20 20" version="1.1" xmlns="http://www.w3.org/2000/svg" xmlns:xlink="http://www.w3.org/1999/xlink">
    <!-- Generator: Sketch 64 (93537) - https://sketch.com -->
    <title>Fill 364</title>
    <desc>Created with Sketch.</desc>
    <g id="Page-1" stroke="none" stroke-width="1" fill="none" fill-rule="evenodd">
        <g id="Main" transform="translate(-46.000000, -619.000000)" fill="#FFFFFF">
            <g id="Group-366" transform="translate(46.000000, 193.000000)">
                <g id="Group-365" transform="translate(0.000000, 426.000000)">
                    <path d="M19.414062,14.434943 C16.546133,14.434943 14.053712,13.225139 12.328829,11.500256 C12.328829,11.500256 12.039258,11.210687 11.670078,10.841468 L15.433437,11.849866 C17.365391,12.367522 19.358282,11.216936 19.875977,9.284983 C20.345665,7.532053 19.441797,5.728968 17.826954,5.023342 C18.023281,3.271974 16.913671,1.587639 15.160742,1.117952 C13.228788,0.600296 11.235859,1.750881 10.718203,3.682835 L10.295664,5.259709 L10.295664,3.627365 C10.295664,1.627249 8.668477,6.09999997e-05 6.66836,6.09999997e-05 C4.853594,6.09999997e-05 3.345898,1.339786 3.082266,3.082287 C1.339726,3.34592 0,4.853655 0,6.668421 C0,8.668538 1.627227,10.295725 3.627305,10.295725 L5.259492,10.295725 L3.683359,10.717913 C1.751367,11.235413 0.600625,13.228265 1.118125,15.160257 C1.587695,16.913187 3.271914,18.022913 5.023281,17.82674 C5.728828,19.441702 7.531836,20.345686 9.284804,19.876116 C11.216797,19.358616 12.367578,17.365764 11.850039,15.433772 L10.842071,11.670764 L11.500156,12.32889 C13.42668,14.255413 16.21043,15.606818 19.414022,15.606818 C19.737617,15.606818 19.9999697,15.344475 19.9999697,15.020881 C19.9999697,14.697287 19.737656,14.434943 19.414062,14.434943 Z M11.850157,3.986154 C12.200586,2.678343 13.549649,1.899475 14.857462,2.249905 C16.165079,2.600296 16.943827,3.949318 16.593397,5.257131 C16.509647,5.56971 16.695156,5.890999 17.007734,5.974748 C18.315548,6.325178 19.094452,7.674084 18.744062,8.981701 C18.393633,10.289513 17.044571,11.068381 15.736797,10.717951 L11.227969,9.509827 L14.4725,7.636545 C14.752734,7.474748 14.84875,7.116389 14.686953,6.836155 C14.525156,6.55592 14.166836,6.459905 13.886562,6.621702 L10.642032,8.494983 L11.850157,3.986154 Z M1.171875,6.668421 C1.171875,5.31467 2.273398,4.213302 3.627305,4.213302 C3.950898,4.213302 4.213242,3.95096 4.213242,3.627365 C4.213242,2.27342 5.31461,1.171936 6.66836,1.171936 C8.022305,1.171936 9.123789,2.27342 9.123789,3.627365 L9.123789,8.295256 L6.474531,5.645998 C6.245742,5.417169 5.874727,5.417169 5.645899,5.645998 C5.41707,5.874826 5.41707,6.245803 5.645899,6.474631 L8.295156,9.12389 L3.627305,9.12389 C2.273398,9.12389 1.171875,8.022365 1.171875,6.668421 L1.171875,6.668421 Z M8.981602,18.744163 C7.673945,19.094437 6.325078,18.315412 5.974765,17.007601 C5.891055,16.695022 5.569766,16.509514 5.257187,16.593225 C3.949375,16.943539 2.60043,16.164709 2.250117,14.857053 C1.899805,13.54924 2.67875,12.200217 3.986602,11.849904 L8.494766,10.642326 L6.621602,13.886623 C6.459805,14.166858 6.55582,14.525217 6.836055,14.687014 C7.116367,14.848888 7.474648,14.752834 7.636445,14.472561 L9.510118,11.227405 L10.718086,15.737053 C11.068438,17.044826 10.289414,18.39385 8.981602,18.744163 L8.981602,18.744163 Z" id="Fill-364"></path>
                </g>
            </g>
        </g>
    </g>
</svg>
