<?xml version="1.0" encoding="UTF-8"?>
<svg width="17px" height="16px" viewBox="0 0 17 16" version="1.1" xmlns="http://www.w3.org/2000/svg" xmlns:xlink="http://www.w3.org/1999/xlink">
    <!-- Generator: Sketch 64 (93537) - https://sketch.com -->
    <title>Group 7</title>
    <desc>Created with Sketch.</desc>
    <g id="Page-1" stroke="none" stroke-width="1" fill="none" fill-rule="evenodd" opacity="0.7">
        <g id="Main" transform="translate(-47.000000, -737.000000)" fill="#FFFFFF" stroke="#FFFFFF" stroke-width="0.2">
            <g id="Group-396" transform="translate(47.000000, 663.000000)">
                <g id="Group-392" transform="translate(1.000000, 75.000000)">
                    <g id="Group-6" transform="translate(0.000000, 0.048732)">
                        <g id="Group-7" transform="translate(0.000000, -0.000000)">
                            <path d="M4.39783875,0.462109676 C6.1164132,0.398384055 7.01964152,0.416924562 7.54080943,0.447581481 C7.8428464,0.465348352 8.01988055,0.487748832 8.1236568,0.512399451 C8.200663,0.530691215 8.24516443,0.552623643 8.27237651,0.572932493 C8.33284094,0.618058139 8.342197,0.665290427 8.342197,0.715408748 L8.342197,0.715408748 L8.342197,13.7293537 C8.342197,13.8168574 8.3067256,13.8960832 8.24937657,13.9534325 C8.19202705,14.0107823 8.11280096,14.0462537 8.025298,14.0462537 L8.025298,14.0462537 L4.554912,14.0462537 C4.46740848,14.0462537 4.3881826,14.0107823 4.3308333,13.9534328 C4.27348427,13.8960835 4.238013,13.8168576 4.238013,13.7293537 L4.238013,13.7293537 L4.238013,0.715408748 C4.34082699,0.481336904 4.35148468,0.47200781 4.36302189,0.463407851 L4.36302189,0.463407851 Z M7.708399,8.62377575 L4.871811,8.62377575 L4.871811,13.4124547 L7.708399,13.4124547 L7.708399,8.62377575 Z M7.708399,2.11680275 L4.871811,2.11680275 L4.871811,7.98997775 L7.708399,7.98997775 L7.708399,2.11680275 Z" id="Fill-374"></path>
                            <path d="M6.290103,10.1590067 C6.67706025,10.1590067 7.02740978,10.315875 7.28101932,10.5694847 C7.53462893,10.8230945 7.691497,11.1734444 7.691497,11.5604017 C7.691497,11.9473591 7.53462893,12.297709 7.28101932,12.5513188 C7.02740978,12.8049285 6.67706025,12.9617967 6.28999973,12.9617967 C5.90318458,12.9613972 5.55306212,12.80448 5.29954307,12.5509609 C5.04602397,12.2974418 4.88910699,11.9473196 4.888708,11.5604017 C4.888708,11.1734443 5.04557613,10.8230944 5.29918594,10.5694846 C5.55279558,10.3158749 5.9031453,10.1590067 6.290103,10.1590067 Z M6.290103,10.7928057 C6.07815173,10.7928057 5.88625348,10.878731 5.74734238,11.017642 C5.6084314,11.1565528 5.522506,11.3484507 5.522506,11.5604017 C5.522506,11.7723528 5.6084314,11.9642507 5.74734238,12.1031615 C5.88625348,12.2420725 6.07815173,12.3279977 6.290103,12.3279977 C6.50205384,12.3279977 6.69395185,12.2420724 6.83286282,12.1031614 C6.97177364,11.9642506 7.057699,11.7723528 7.057699,11.5604017 C7.057699,11.3484507 6.97177364,11.1565529 6.83286282,11.017642 C6.69395185,10.8787311 6.50205384,10.7928057 6.290103,10.7928057 Z" id="Fill-377"></path>
                            <path d="M0.0598257454,0.462109676 C1.7784002,0.398384055 2.68162852,0.416924562 3.20279643,0.447581481 C3.5048334,0.465348352 3.68186755,0.487748832 3.7856438,0.512399451 C3.86265,0.530691215 3.90715143,0.552623643 3.93436351,0.572932493 C3.99482794,0.618058139 4.004184,0.665290427 4.004184,0.715408748 L4.004184,0.715408748 L4.004184,13.7293537 C4.004184,13.8168574 3.9687126,13.8960832 3.91136357,13.9534325 C3.85401405,14.0107823 3.77478796,14.0462537 3.687285,14.0462537 L3.687285,14.0462537 L0.216899,14.0462537 C0.129395481,14.0462537 0.0501695969,14.0107823 -0.00717970117,13.9534328 C-0.0645287314,13.8960835 -0.1,13.8168576 -0.1,13.7293537 L-0.1,13.7293537 L-0.1,0.715408748 C0.00281398789,0.481336904 0.0134716831,0.47200781 0.0250088892,0.463407851 L0.0250088892,0.463407851 Z M3.370386,8.62377575 L0.533798,8.62377575 L0.533798,13.4124547 L3.370386,13.4124547 L3.370386,8.62377575 Z M3.370386,2.11680275 L0.533798,2.11680275 L0.533798,7.98997775 L3.370386,7.98997775 L3.370386,2.11680275 Z" id="Fill-380"></path>
                            <path d="M1.952091,10.1590067 C2.33904825,10.1590067 2.68939778,10.315875 2.94300732,10.5694847 C3.19661693,10.8230945 3.353485,11.1734444 3.353485,11.5604017 C3.353485,11.9473591 3.19661693,12.297709 2.94300732,12.5513188 C2.68939778,12.8049285 2.33904825,12.9617967 1.95198773,12.9617967 C1.56517258,12.9613972 1.21505012,12.80448 0.961531072,12.5509609 C0.708011974,12.2974418 0.551094993,11.9473196 0.550696,11.5604017 C0.550696,11.1734443 0.707564127,10.8230944 0.961173943,10.5694846 C1.21478358,10.3158749 1.5651333,10.1590067 1.952091,10.1590067 Z M1.952091,10.7928057 C1.74013973,10.7928057 1.54824148,10.878731 1.40933038,11.017642 C1.2704194,11.1565528 1.184494,11.3484507 1.184494,11.5604017 C1.184494,11.7723528 1.2704194,11.9642507 1.40933038,12.1031615 C1.54824148,12.2420725 1.74013973,12.3279977 1.952091,12.3279977 C2.16404184,12.3279977 2.35593985,12.2420724 2.49485082,12.1031614 C2.63376164,11.9642506 2.719687,11.7723528 2.719687,11.5604017 C2.719687,11.3484507 2.63376164,11.1565529 2.49485082,11.017642 C2.35593985,10.8787311 2.16404184,10.7928057 1.952091,10.7928057 Z" id="Fill-383"></path>
                            <path d="M11.9024358,-0.00459751209 C11.9815523,-0.00685968977 12.0302139,0.00280759596 12.0617551,0.0153814369 C12.1318386,0.0433201281 12.1531005,0.0865214928 12.1660721,0.134932078 L12.1660721,0.134932078 L15.5343283,12.7054399 C15.5569759,12.789962 15.5432183,12.8756689 15.5026665,12.9459071 C15.4621143,13.0161459 15.3947684,13.0709139 15.3102471,13.0935613 L15.3102471,13.0935613 L11.958111,13.9917632 C11.8735891,14.0144107 11.7878821,14.0006531 11.7176437,13.9601008 C11.6474057,13.9195486 11.592638,13.852203 11.5699903,13.7676807 L11.5699903,13.7676807 L8.20173406,1.19717287 C8.24046253,0.944466587 8.24834252,0.93269696 8.25726077,0.921403993 L8.25726077,0.921403993 L8.29055528,0.911138788 C9.93407763,0.404784833 10.811328,0.18892094 11.3226722,0.0836450984 C11.619016,0.0226336738 11.7958155,-0.00154892239 11.9024358,-0.00459751209 Z M13.6007058,7.93786832 L10.8607716,8.6720312 L12.1001728,13.2975408 L14.8401069,12.5633779 L13.6007058,7.93786832 Z M11.9165775,1.65261392 L9.17664339,2.3867768 L10.6967327,8.05982926 L13.4366668,7.32566639 L11.9165775,1.65261392 Z" id="Fill-386"></path>
                            <path d="M12.6280805,9.78781436 C13.0018526,9.68766246 13.3808648,9.74850824 13.6914718,9.92783732 C14.0020788,10.1071664 14.2442789,10.4049777 14.3444308,10.7787499 C14.4445827,11.152522 14.383737,11.5315345 14.2044079,11.8421418 C14.0250789,12.152749 13.7272676,12.3949492 13.3533959,12.4951277 C12.9796578,12.5948575 12.6008523,12.5339057 12.290356,12.3546406 C11.9798598,12.1753754 11.7376713,11.8777961 11.637144,11.5041649 C11.5369921,11.1303927 11.5978379,10.7513805 11.7771672,10.4407734 C11.9564964,10.1301664 12.254308,9.88796638 12.6280805,9.78781436 Z M12.7921195,10.4000163 C12.5873903,10.4548733 12.4242701,10.5875378 12.326045,10.7576683 C12.22782,10.9277988 12.1944891,11.1353972 12.249346,11.3401259 C12.304203,11.5448551 12.4368675,11.7079754 12.6069982,11.8062004 C12.7771288,11.9044254 12.9847274,11.9377562 13.1894566,11.8828992 C13.3941853,11.8280423 13.5573054,11.6953777 13.6555303,11.5252471 C13.7537551,11.3551165 13.7870858,11.147518 13.7322288,10.9427888 C13.677372,10.7380601 13.5447075,10.5749401 13.374577,10.4767152 C13.2044465,10.3784903 12.9968482,10.3451594 12.7921195,10.4000163 Z" id="Fill-389"></path>
                        </g>
                    </g>
                </g>
            </g>
        </g>
    </g>
</svg>