<svg width="33" height="20" viewBox="0 0 33 20" fill="none" xmlns="http://www.w3.org/2000/svg">
<path d="M32.0438 16.1968V15.8086H31.9427L31.8257 16.075L31.7094 15.8086H31.608V16.1968H31.6798V15.9043L31.7892 16.1567H31.8636L31.973 15.9037V16.1968H32.0441H32.0438ZM31.4024 16.1968V15.8751H31.5318V15.8096H31.2012V15.8751H31.3306V16.1968H31.4018H31.4024Z" fill="#F79410"/>
<path d="M20.5538 17.8622H11.8047V2.13867H20.554L20.5538 17.8622Z" fill="#FF5F00"/>
<path d="M12.3588 9.99979C12.3588 6.81029 13.8522 3.96906 16.1777 2.13805C14.4174 0.750026 12.2402 -0.0033014 9.99849 1.08762e-05C4.47634 1.08762e-05 0 4.477 0 9.99979C0 15.5226 4.47634 19.9996 9.99849 19.9996C12.2403 20.0029 14.4175 19.2496 16.1779 17.8615C13.8525 16.0309 12.3588 13.1895 12.3588 9.99979Z" fill="#EB001B"/>
<path d="M32.3565 9.99979C32.3565 15.5226 27.8801 19.9996 22.358 19.9996C20.116 20.0029 17.9384 19.2496 16.1777 17.8615C18.5039 16.0305 19.9973 13.1895 19.9973 9.99979C19.9973 6.81013 18.5039 3.96906 16.1777 2.13805C17.9384 0.750068 20.1158 -0.00324334 22.3578 1.04968e-05C27.88 1.04968e-05 32.3563 4.477 32.3563 9.99979" fill="#F79E1B"/>
</svg>
