<?xml version="1.0" encoding="UTF-8"?>
<svg width="22px" height="24px" viewBox="0 0 22 24" version="1.1" xmlns="http://www.w3.org/2000/svg" xmlns:xlink="http://www.w3.org/1999/xlink">
    <!-- Generator: Sketch 64 (93537) - https://sketch.com -->
    <title>Group</title>
    <desc>Created with Sketch.</desc>
    <g id="Page-1" stroke="none" stroke-width="1" fill="none" fill-rule="evenodd">
        <g id="Analytics-(Dashboard)" transform="translate(-1789.000000, -2321.000000)" fill="#FFC701">
            <g id="Group" transform="translate(1789.000000, 2321.000000)">
                <path d="M15.399453,2.915432 C14.89334,2.694321 14.303836,2.925369 14.082725,3.431482 C13.861613,3.937595 14.092662,4.5271 14.598776,4.748211 C17.852489,6.169661 20.000132,9.387794 20.000132,12.999915 C20.000132,17.970297 15.97016,21.999985 11.000058,21.999985 C6.029299,21.999985 1.999985,17.970672 1.999985,12.999915 C1.999985,9.38859 4.146877,6.170456 7.399654,4.748072 C7.905674,4.526819 8.136536,3.937221 7.915236,3.431202 C7.693985,2.925182 7.104386,2.694321 6.598366,2.915619 C2.62385,4.653524 -7.95807864e-13,8.586647 -7.95807864e-13,12.999869 C-7.95807864e-13,19.075197 4.924775,23.999969 11.000105,23.999969 C17.07478,23.999969 22.00021,19.074869 22.00021,12.999869 C22.00021,8.585617 19.375282,4.652306 15.399453,2.915432 Z" id="Fill-480"></path>
                <path d="M11,11.000102 C11.552278,11.000102 11.999985,10.552395 11.999985,10.000109 L11.999985,1.000039 C12.000032,0.447706 11.552278,-9.09494702e-13 11,-9.09494702e-13 C10.447707,-9.09494702e-13 10,0.447706 10,1 L10,10.000062 C10,10.552347 10.447707,11.000102 11,11.000102 Z" id="Fill-481"></path>
            </g>
        </g>
    </g>
</svg>