<?xml version="1.0" encoding="UTF-8"?>
<svg width="16px" height="18px" viewBox="0 0 16 18" version="1.1" xmlns="http://www.w3.org/2000/svg" xmlns:xlink="http://www.w3.org/1999/xlink">
    <!-- Generator: Sketch 64 (93537) - https://sketch.com -->
    <title>Group 8</title>
    <desc>Created with Sketch.</desc>
    <g id="Page-1" stroke="none" stroke-width="1" fill="none" fill-rule="evenodd" opacity="0.7">
        <g id="Main" transform="translate(-48.000000, -850.000000)" fill="#FFFFFF">
            <g id="Group-412" transform="translate(46.000000, 818.000000)">
                <g id="Group-8" transform="translate(2.300000, 32.300000)">
                    <path d="M14,16.489558 C14,16.876157 14.3134,17.189558 14.7,17.189558 C15.0866,17.189558 15.4,16.876157 15.4,16.489558 L14,16.489558 Z M-1.84741111e-13,16.489558 C-1.84741111e-13,16.876157 0.313401,17.189558 0.7,17.189558 C1.086599,17.189558 1.4,16.876157 1.4,16.489558 L-1.84741111e-13,16.489558 Z M15.4,16.489558 L15.4,14.735161 L14,14.735161 L14,16.489558 L15.4,16.489558 Z M15.4,14.735161 C15.4,12.412366 13.521251,10.526367 11.2,10.526367 L11.2,11.926367 C12.744743,11.926367 14,13.18225 14,14.735161 L15.4,14.735161 Z M11.2,10.526367 L4.2,10.526367 L4.2,11.926367 L11.2,11.926367 L11.2,10.526367 Z M4.2,10.526367 C1.878749,10.526367 -1.84741111e-13,12.412366 -1.84741111e-13,14.735161 L1.4,14.735161 C1.4,13.18225 2.655258,11.926367 4.2,11.926367 L4.2,10.526367 Z M-1.84741111e-13,14.735161 L-1.84741111e-13,16.489558 L1.4,16.489558 L1.4,14.735161 L-1.84741111e-13,14.735161 Z" id="Fill-398"></path>
                    <path d="M7.7,8.417587 C10.021251,8.417587 11.9,6.531589 11.9,4.208793 L10.5,4.208793 C10.5,5.761705 9.244742,7.017588 7.7,7.017588 L7.7,8.417587 Z M11.9,4.208793 C11.9,1.885998 10.021251,-5.68434189e-14 7.7,-5.68434189e-14 L7.7,1.399999 C9.244742,1.399999 10.5,2.655883 10.5,4.208793 L11.9,4.208793 Z M7.7,-5.68434189e-14 C5.378749,-5.68434189e-14 3.5,1.885998 3.5,4.208793 L4.9,4.208793 C4.9,2.655883 6.155258,1.399999 7.7,1.399999 L7.7,-5.68434189e-14 Z M3.5,4.208793 C3.5,6.531589 5.378749,8.417587 7.7,8.417587 L7.7,7.017588 C6.155258,7.017588 4.9,5.761705 4.9,4.208793 L3.5,4.208793 Z" id="Fill-399"></path>
                </g>
            </g>
        </g>
    </g>
</svg>