<?xml version="1.0" encoding="UTF-8"?>
<svg width="26px" height="26px" viewBox="0 0 26 26" version="1.1" xmlns="http://www.w3.org/2000/svg" xmlns:xlink="http://www.w3.org/1999/xlink">
    <!-- Generator: Sketch 64 (93537) - https://sketch.com -->
    <title>Group 474</title>
    <desc>Created with Sketch.</desc>
    <g id="Page-1" stroke="none" stroke-width="1" fill="none" fill-rule="evenodd">
        <g id="Analytics-(Dashboard)" transform="translate(-1679.000000, -2320.000000)" fill="#40D04F">
            <g id="Group-474" transform="translate(1679.000000, 2320.000000)">
                <g id="Group-461">
                    <path d="M5.05034,14.538432 L5.148731,14.556299 L5.167068,14.455319 L5.065645,14.439611 L5.05034,14.538432 Z M11.46162,20.949665 L11.560443,20.934361 L11.544734,20.832937 L11.443753,20.851275 L11.46162,20.949665 Z M13.1911775,25.000088 L13.1911775,25.100088 L13.1911775,25.100088 L13.1911775,25.000088 Z M13.281027,23.508993 L13.182205,23.5243 L13.206079,23.678427 L13.336179,23.592411 L13.281027,23.508993 Z M12.834027,20.623135 L12.805819,20.527197 L12.721801,20.551899 L12.735206,20.638443 L12.834027,20.623135 Z M17.132559,18.576573 L17.232262,18.584275 L17.248127,18.378876 L17.076933,18.493473 L17.132559,18.576573 Z M6.955809,12.854073 L7.026519,12.783362 L6.914954,12.671796 L6.861681,12.820308 L6.955809,12.854073 Z M13.144621,19.042885 L13.178343,19.137028 L13.326952,19.083796 L13.215331,18.972174 L13.144621,19.042885 Z M7.423387,8.867495 L7.506485,8.923123 L7.62109,8.751925 L7.415685,8.767792 L7.423387,8.867495 Z M5.376778,13.166025 L5.361472,13.264847 L5.448014,13.278251 L5.472717,13.194233 L5.376778,13.166025 Z M2.490965,12.719073 L2.407548,12.663921 L2.32153,12.794023 L2.475659,12.817894 L2.490965,12.719073 Z M14.542433,18.452072 L14.471723,18.522784 L14.522168,18.573229 L14.586284,18.541947 L14.542433,18.452072 Z M7.547699,11.457339 L7.457886,11.413365 L7.42647,11.477531 L7.476988,11.528049 L7.547699,11.457339 Z M25.071737,2.786206 C25.016975,1.78191 24.218082,0.983126 23.213806,0.928314 L23.202906,1.128018 C24.105316,1.177269 24.822828,1.894703 24.872034,2.797097 L25.071737,2.786206 Z M23.213812,0.928314 C21.281908,0.822771 17.497112,0.924793 13.875071,2.79822 L13.966953,2.975863 C17.543787,1.12582 21.287491,1.023375 23.2029,1.128018 L23.213812,0.928314 Z M13.875069,2.79822 C12.02648,3.754414 10.07577,5.372774 8.51997,7.237908 L8.673553,7.366019 C10.215158,5.517903 12.1457,3.917918 13.966955,2.975863 L13.875069,2.79822 Z M8.519965,7.237913 C8.501098,7.260536 8.480623,7.285862 8.46309,7.307083 L8.617276,7.434468 C8.637618,7.409846 8.654269,7.389141 8.673558,7.366013 L8.519965,7.237913 Z M8.532481,7.271073 L5.017794,7.542572 L5.033198,7.741978 L8.547885,7.470478 L8.532481,7.271073 Z M5.017789,7.542572 C4.408503,7.589669 3.865267,7.909342 3.528283,8.419014 L3.695115,8.52932 C3.998069,8.071116 4.485427,7.784319 5.033203,7.741978 L5.017789,7.542572 Z M3.528282,8.419016 L1.130438,12.045828 L1.297273,12.156129 L3.695116,8.529316 L3.528282,8.419016 Z M1.13044,12.045826 C0.868976,12.441279 0.827372,12.936638 1.019139,13.370122 L1.202041,13.28921 C1.037839,12.918038 1.073391,12.494742 1.297271,12.156131 L1.13044,12.045826 Z M1.019141,13.370128 C1.210954,13.80365 1.605456,14.106053 2.073889,14.178628 L2.10451,13.980987 C1.703411,13.918844 1.366288,13.660432 1.202039,13.289204 L1.019141,13.370128 Z M2.073894,14.178629 L5.035034,14.637254 L5.065645,14.439611 L2.104505,13.980986 L2.073894,14.178629 Z M4.951949,14.520565 C4.941534,14.577915 4.930893,14.636196 4.921142,14.694606 L5.118412,14.727538 C5.12788,14.670823 5.138239,14.614074 5.148731,14.556299 L4.951949,14.520565 Z M4.921146,14.694584 C4.817194,15.316419 5.023214,15.955105 5.471774,16.403615 L5.613187,16.262185 C5.209934,15.858977 5.025205,15.2851 5.118409,14.72756 L4.921146,14.694584 Z M5.471769,16.40361 L9.596394,20.528282 L9.737816,20.386862 L5.613192,16.26219 L5.471769,16.40361 Z M9.596395,20.528284 C9.968335,20.900223 10.470942,21.105355 10.986261,21.105355 L10.986261,20.905354 C10.523767,20.905354 10.072094,20.72114 9.737816,20.386862 L9.596395,20.528284 Z M10.986261,21.105355 C11.092443,21.105355 11.199203,21.096604 11.305449,21.078863 L11.272511,20.881594 C11.177196,20.897509 11.081454,20.905354 10.986261,20.905354 L10.986261,21.105355 Z M11.305447,21.078863 C11.363856,21.069113 11.422138,21.058472 11.479488,21.048056 L11.443753,20.851275 C11.385979,20.861767 11.329229,20.872126 11.272514,20.881594 L11.305447,21.078863 Z M11.362799,20.964972 L11.821424,23.926159 L12.019068,23.89555 L11.560443,20.934361 L11.362799,20.964972 Z M11.821424,23.926165 C11.893999,24.394589 12.196394,24.789143 12.629832,24.980912 L12.710753,24.798014 C12.339629,24.633814 12.081211,24.296652 12.019067,23.895544 L11.821424,23.926165 Z M12.629831,24.980912 C12.810022,25.060639 13.000951,25.100088 13.191168,25.100088 L13.191168,24.90009 C13.028698,24.90009 12.865344,24.866413 12.710754,24.798014 L12.629831,24.980912 Z M13.191187,25.100088 C13.458305,25.100039 13.723406,25.022248 13.95418,24.86966 L13.843873,24.70283 C13.646022,24.833649 13.419312,24.900046 13.191149,24.90009 L13.191187,25.100088 Z M13.954178,24.869662 L17.58099,22.471771 L17.470688,22.304938 L13.843875,24.702828 L13.954178,24.869662 Z M17.580994,22.471768 C18.090712,22.134737 18.410341,21.591498 18.45734,20.982249 L18.257933,20.966866 C18.215681,21.514584 17.928936,22.001938 17.470684,22.30494 L17.580994,22.471768 Z M18.457338,20.982258 L18.72884,17.467617 L18.529434,17.452214 L18.257933,20.966854 L18.457338,20.982258 Z M18.692829,17.537009 C18.71384,17.51965 18.739532,17.498911 18.762045,17.480133 L18.633947,17.326542 C18.61071,17.345921 18.590279,17.362307 18.565445,17.382822 L18.692829,17.537009 Z M18.762051,17.480129 C20.627232,15.92433 22.24564,13.973621 23.201788,12.124982 L23.024143,12.0331 C22.082134,13.8544 20.482105,15.784939 18.633942,17.326546 L18.762051,17.480129 Z M23.201788,12.124983 C25.075308,8.502798 25.177139,4.717953 25.071737,2.786202 L24.872034,2.797098 C24.976538,4.71238 24.874279,8.456127 23.024143,12.033099 L23.201788,12.124983 Z M16.695142,21.131844 L13.225875,23.425577 L13.336179,23.592411 L16.805445,21.298678 L16.695142,21.131844 Z M13.379848,23.493687 L12.932849,20.607828 L12.735206,20.638443 L13.182205,23.5243 L13.379848,23.493687 Z M12.862235,20.719074 C14.339036,20.284863 15.798656,19.589813 17.188185,18.659674 L17.076933,18.493473 C15.702806,19.413302 14.261518,20.09919 12.805819,20.527197 L12.862235,20.719074 Z M17.032856,18.568871 L16.855996,20.858481 L17.055403,20.873884 L17.232262,18.584275 L17.032856,18.568871 Z M16.855995,20.858492 C16.847353,20.970545 16.788898,21.069866 16.695148,21.13184 L16.805438,21.298682 C16.950657,21.202685 17.042013,21.047476 17.055403,20.873873 L16.855995,20.858492 Z M10.732175,19.392502 L6.607503,15.267831 L6.466082,15.409252 L10.590754,19.533924 L10.732175,19.392502 Z M6.607519,15.267846 C6.524274,15.184564 6.487064,15.06884 6.505388,14.959436 L6.308136,14.926398 C6.278741,15.101899 6.338843,15.281957 6.466066,15.409237 L6.607519,15.267846 Z M6.505392,14.959411 C6.62694,14.232585 6.815872,13.540349 7.049936,12.887837 L6.861681,12.820308 C6.623995,13.48292 6.431833,14.186717 6.308132,14.926422 L6.505392,14.959411 Z M6.885098,12.924783 L13.07391,19.113596 L13.215331,18.972174 L7.026519,12.783362 L6.885098,12.924783 Z M13.110898,18.948742 C12.327117,19.229496 11.625525,19.396809 11.040597,19.494614 L11.073582,19.691876 C11.669436,19.592243 12.382624,19.422056 13.178343,19.137028 L13.110898,18.948742 Z M11.040691,19.494599 C10.9309,19.512848 10.815349,19.475676 10.732175,19.392502 L10.590754,19.533924 C10.718048,19.661219 10.897904,19.721077 11.073487,19.691891 L11.040691,19.494599 Z M5.141526,9.144058 L7.431088,8.967198 L7.415685,8.767792 L5.126123,8.944651 L5.141526,9.144058 Z M7.340287,8.811865 C6.4101,10.201396 5.71505,11.661017 5.280838,13.137818 L5.472717,13.194233 C5.900724,11.738534 6.58661,10.297249 7.506485,8.923123 L7.340287,8.811865 Z M5.392083,13.067204 L2.50627,12.620251 L2.475659,12.817894 L5.361472,13.264847 L5.392083,13.067204 Z M2.574381,12.774225 L4.868162,9.304912 L4.70133,9.194607 L2.407548,12.663921 L2.574381,12.774225 Z M4.868162,9.304913 C4.930178,9.211117 5.029501,9.152699 5.141517,9.144058 L5.126132,8.944651 C4.952586,8.958039 4.797377,9.049341 4.70133,9.194607 L4.868162,9.304913 Z M17.733286,16.246592 C16.603666,17.188818 15.507832,17.86977 14.498583,18.3622 L14.586284,18.541947 C15.609722,18.042593 16.719168,17.352919 17.861393,16.400177 L17.733286,16.246592 Z M14.613144,18.381361 L7.61841,11.386627 L7.476988,11.528049 L14.471723,18.522784 L14.613144,18.381361 Z M7.637512,11.501312 C8.282744,10.18347 9.070621,9.085364 9.753412,8.266815 L9.59983,8.138705 C8.909559,8.966219 8.111842,10.077707 7.457886,11.413365 L7.637512,11.501312 Z M9.753413,8.266815 C11.179648,6.556965 12.952104,5.083996 14.613078,4.224896 L14.521195,4.047251 C12.832577,4.920649 11.039999,6.41215 9.599829,8.138706 L9.753413,8.266815 Z M14.61308,4.224894 C17.893833,2.527909 21.353714,2.435612 23.126371,2.532112 L23.137243,2.332407 C21.348528,2.235033 17.847378,2.326767 14.521194,4.047251 L14.61308,4.224894 Z M23.126366,2.532112 C23.3111,2.542179 23.457872,2.68894 23.467941,2.873732 L23.667645,2.86285 C23.652025,2.576174 23.423889,2.348028 23.137249,2.332409 L23.126366,2.532112 Z M23.467941,2.873736 C23.564581,4.646382 23.472097,8.106217 21.77511,11.387021 L21.952755,11.478906 C23.673237,8.152678 23.765162,4.651577 23.667645,2.862849 L23.467941,2.873736 Z M21.77511,11.387023 C20.916056,13.04795 19.443089,14.820356 17.733284,16.246594 L17.861395,16.400175 C19.587902,14.960007 21.079403,13.167478 21.952755,11.478904 L21.77511,11.387023 Z" id="Fill-459"></path>
                    <path d="M24.971886,2.791651 C24.919901,1.838307 24.161699,1.080199 23.208355,1.028166 C21.2847,0.923073 17.520449,1.025307 13.921012,2.887041 C12.08609,3.836167 10.145464,5.445339 8.596761,7.301964 C8.577683,7.324839 8.559121,7.347855 8.540183,7.370775 L5.025496,7.642275 C4.446965,7.686995 3.931668,7.990229 3.611699,8.474167 L1.213855,12.100979 C0.971184,12.46801 0.932605,12.927338 1.11059,13.329666 C1.288621,13.732041 1.654434,14.012449 2.089199,14.079808 L5.05034,14.538432 C5.039886,14.595995 5.029387,14.653509 5.019777,14.711072 C4.921199,15.30076 5.116574,15.907041 5.54248,16.3329 L9.667105,20.457573 C10.020214,20.810683 10.497355,21.005354 10.986261,21.005354 C11.086948,21.005354 11.188199,20.997057 11.28898,20.980229 C11.346542,20.970619 11.404058,20.960119 11.46162,20.949665 L11.920246,23.910855 C11.987605,24.345619 12.268012,24.711479 12.670293,24.889464 C12.837684,24.963526 13.014824,25.000088 13.191168,25.000088 C13.438808,25.000088 13.684714,24.927948 13.899027,24.786244 L17.525839,22.388354 C18.009823,22.068339 18.313011,21.553042 18.357635,20.974556 L18.629137,17.459915 C18.65206,17.440979 18.675121,17.422415 18.697996,17.403338 C20.554668,15.854635 22.163887,13.91401 23.112965,12.079041 C24.974792,8.479462 25.076839,4.715166 24.971886,2.791651 L24.971886,2.791651 Z M16.750294,21.21526 L13.281027,23.508993 L12.834027,20.623135 C14.300277,20.192026 15.750731,19.501557 17.132559,18.576573 L16.955699,20.866183 C16.944683,21.009011 16.869778,21.136276 16.750294,21.21526 L16.750294,21.21526 Z M10.661465,19.463213 L6.536793,15.338541 C6.431559,15.23326 6.382903,15.085369 6.406762,14.942917 C6.529387,14.209651 6.719934,13.511635 6.955809,12.854073 L13.144621,19.042885 C12.354871,19.325775 11.64748,19.494526 11.057089,19.593245 C10.914402,19.616963 10.766699,19.568447 10.661465,19.463213 L10.661465,19.463213 Z M5.133824,9.044354 L7.423387,8.867495 C6.498355,10.249322 5.807887,11.699775 5.376778,13.166025 L2.490965,12.719073 L4.784746,9.24976 C4.863777,9.130228 4.991043,9.055371 5.133824,9.044354 L5.133824,9.044354 Z M17.797338,16.323385 C16.661417,17.270869 15.558777,17.956183 14.542433,18.452072 L7.547699,11.457339 C8.197293,10.130588 8.990089,9.025791 9.67662,8.202759 C11.109824,6.484556 12.89234,5.002323 14.567137,4.136072 C17.870605,2.427338 21.35112,2.335324 23.131807,2.432261 C23.367495,2.445103 23.554949,2.632557 23.567793,2.868292 C23.664871,4.648979 23.572666,8.129448 21.863934,11.432964 C20.99773,13.107714 19.515495,14.890182 17.797338,16.323385 Z" id="Fill-460"></path>
                </g>
                <g id="Group-464" transform="translate(13.000000, 4.000000)">
                    <path d="M4.440327,8.174097 C5.365773,8.174001 6.292037,7.821632 6.996876,7.116793 L6.855455,6.975371 C6.189762,7.641064 5.315089,7.974007 4.440327,7.974098 L4.440327,8.174097 Z M6.996874,7.116795 C7.679663,6.434053 8.05582,5.525772 8.05582,4.560254 L7.85582,4.560254 C7.85582,5.472736 7.50073,6.330142 6.855457,6.975369 L6.996874,7.116795 Z M8.05582,4.560254 C8.05582,3.594734 7.679615,2.686454 6.996876,2.003715 L6.855455,2.145136 C7.500685,2.790367 7.85582,3.647775 7.85582,4.560254 L8.05582,4.560254 Z M6.996878,2.003716 C5.587104,0.593895 3.293473,0.593992 1.883797,2.003716 L2.02522,2.145135 C3.356794,0.813516 5.523789,0.813425 6.855453,2.145135 L6.996878,2.003716 Z M1.8838,2.003713 C1.201013,2.686452 0.824805,3.594733 0.824805,4.560254 L1.024805,4.560254 C1.024805,3.647776 1.379942,2.790368 2.025217,2.145139 L1.8838,2.003713 Z M0.824805,4.560254 C0.824805,5.525779 1.201062,6.434057 1.883798,7.116793 L2.025219,6.975371 C1.379987,6.330139 1.024805,5.47273 1.024805,4.560254 L0.824805,4.560254 Z M1.883798,7.116793 C2.588766,7.821761 3.514562,8.174194 4.440348,8.17409702 L4.440348,7.974098 C3.565268,7.974189 2.691063,7.641215 2.025219,6.975371 L1.883798,7.116793 Z M3.019489,3.139445 C3.411106,2.747783 3.925448,2.55191 4.440243,2.55191 L4.440243,2.35191 C3.874756,2.35191 3.308817,2.567225 2.878059,2.998031 L3.019489,3.139445 Z M4.440243,2.55191 C4.955085,2.55191 5.469427,2.747784 5.861044,3.139445 L6.002473,2.998031 C5.571714,2.567224 5.005775,2.35191 4.440243,2.35191 L4.440243,2.55191 Z M5.861048,3.139449 C6.240682,3.519084 6.449525,4.023335 6.449525,4.560207 L6.649525,4.560207 C6.649525,3.970298 6.419615,3.415174 6.002469,2.998028 L5.861048,3.139449 Z M6.449525,4.560207 C6.449525,5.097081 6.240681,5.601379 5.861048,5.981012 L6.002469,6.122434 C6.419617,5.705285 6.649525,5.150114 6.649525,4.560207 L6.449525,4.560207 Z M5.861046,5.981014 C5.077727,6.764377 3.802809,6.764339 3.019436,5.98101 L2.878018,6.122435 C3.739488,6.983857 5.141039,6.983912 6.002471,6.122431 L5.861046,5.981014 Z M3.019438,5.981012 C2.639799,5.601373 2.430915,5.097121 2.430915,4.560254 L2.230915,4.560254 C2.230915,5.150169 2.460874,5.705291 2.878016,6.122434 L3.019438,5.981012 Z M2.430915,4.560254 C2.430915,4.023392 2.639844,3.519091 3.019485,3.139449 L2.878064,2.998028 C2.460924,3.415168 2.230915,3.970336 2.230915,4.560254 L2.430915,4.560254 Z" id="Fill-462"></path>
                    <path d="M4.440337,8.07409802 C5.340431,8.074004 6.2409,7.731347 6.926165,7.046082 C7.590197,6.382098 7.95582,5.499254 7.95582,4.560254 C7.95582,3.621254 7.59015,2.73841 6.926165,2.074426 C5.555446,0.70366 3.325134,0.703754 1.954509,2.074426 C1.290477,2.73841 0.924805,3.621254 0.924805,4.560254 C0.924805,5.499254 1.290524,6.382098 1.954509,7.046082 C2.639915,7.731488 3.539915,8.074191 4.440337,8.07409802 Z M2.948774,3.068738 C3.359962,2.657504 3.900102,2.45191 4.440243,2.45191 C4.98043,2.45191 5.520571,2.657504 5.931758,3.068738 C6.330149,3.467129 6.549525,3.996817 6.549525,4.560207 C6.549525,5.123597 6.330149,5.653332 5.931758,6.051722 C5.109383,6.874144 3.771149,6.874098 2.948727,6.051722 C2.550336,5.653332 2.330915,5.123645 2.330915,4.560254 C2.330915,3.996863 2.550384,3.467129 2.948774,3.068738 Z" id="Fill-463"></path>
                </g>
                <g id="Group-467" transform="translate(0.000000, 16.000000)">
                    <path d="M1.716774,4.878549 C1.922153,4.878549 2.127891,4.800149 2.284665,4.643268 L2.143195,4.501895 C2.025469,4.619702 1.8713,4.678549 1.716774,4.678549 L1.716774,4.878549 Z M2.284641,4.643292 L4.58025,2.347679 L4.438828,2.206257 L2.143219,4.501871 L2.284641,4.643292 Z M4.58025,2.347679 C4.893896,2.034032 4.893896,1.525542 4.58025,1.211896 L4.438828,1.353317 C4.67437,1.588859 4.67437,1.970715 4.438828,2.206257 L4.58025,2.347679 Z M4.580256,1.211902 C4.266652,0.898243 3.758112,0.898252 3.444469,1.211896 L3.585891,1.353317 C3.821435,1.117772 4.203333,1.11778 4.438822,1.353311 L4.580256,1.211902 Z M3.444468,1.211896 L1.148906,3.50751 L1.290329,3.648929 L3.585891,1.353316 L3.444468,1.211896 Z M1.148907,3.507509 C0.83526,3.821155 0.83526,4.329645 1.148907,4.643292 L1.290328,4.501871 C1.054787,4.266329 1.054787,3.884472 1.290328,3.64893 L1.148907,3.507509 Z M1.148894,4.64328 C1.305653,4.800092 1.511378,4.878549 1.716774,4.878549 L1.716774,4.678549 C1.562262,4.678549 1.408082,4.619665 1.29034,4.501883 L1.148894,4.64328 Z" id="Fill-465"></path>
                    <path d="M1.716774,4.77855 C1.896727,4.77855 2.07668,4.709925 2.21393,4.572581 L4.509539,2.276968 C4.784133,2.002374 4.784133,1.5572 4.509539,1.282606 C4.234992,1.008012 3.789774,1.008012 3.51518,1.282606 L1.219617,3.57822 C0.945024,3.852814 0.945024,4.297987 1.219617,4.572581 C1.356867,4.709878 1.53682,4.77855 1.716774,4.77855 L1.716774,4.77855 Z" id="Fill-466"></path>
                </g>
                <g id="Group-470" transform="translate(0.000000, 19.000000)">
                    <path d="M6.68449,0.315417 C6.370886,0.001758 5.862346,0.001767 5.548703,0.31541 L5.690125,0.456832 C5.925669,0.221287 6.307567,0.221296 6.543056,0.456825 L6.68449,0.315417 Z M5.548703,0.315411 L1.135234,4.728931 L1.276656,4.870352 L5.690125,0.456831 L5.548703,0.315411 Z M1.135235,4.728931 C0.821588,5.042577 0.821588,5.551065 1.135235,5.864712 L1.276656,5.723291 C1.041115,5.487749 1.041115,5.105894 1.276656,4.870352 L1.135235,4.728931 Z M1.135235,5.864712 C1.29204,6.021517 1.497713,6.099924 1.703102,6.099924 L1.703102,5.899923 C1.548584,5.899923 1.394445,5.841079 1.276656,5.723291 L1.135235,5.864712 Z M1.703102,6.099924 C1.908482,6.099924 2.114219,6.021521 2.270993,5.86464 L2.129523,5.723268 C2.011796,5.841075 1.857628,5.899923 1.703102,5.899923 L1.703102,6.099924 Z M2.270969,5.864665 L6.684437,1.451191 L6.543016,1.30977 L2.129547,5.723243 L2.270969,5.864665 Z M6.684431,1.451197 C6.998131,1.137551 6.998131,0.629058 6.684484,0.31541 L6.543063,0.456832 C6.778603,0.692372 6.778603,1.074223 6.543022,1.309764 L6.684431,1.451197 Z" id="Fill-468"></path>
                    <path d="M6.613773,0.386121 C6.339226,0.111527 5.894008,0.111527 5.619414,0.386121 L1.205945,4.799642 C0.931352,5.074236 0.931352,5.519407 1.205945,5.794001 C1.343242,5.931298 1.523148,5.999923 1.703102,5.999923 C1.883055,5.999923 2.063008,5.931298 2.200258,5.793954 L6.613727,1.38048 C6.888367,1.105887 6.888367,0.660715 6.613773,0.386121 L6.613773,0.386121 Z" id="Fill-469"></path>
                </g>
                <g id="Group-473" transform="translate(5.000000, 21.000000)">
                    <path d="M2.652519,0.419415 L0.356914,2.715028 L0.498336,2.856449 L2.793941,0.560836 L2.652519,0.419415 Z M0.356914,2.715028 C0.043269,3.028675 0.043269,3.537165 0.356914,3.850811 L0.498336,3.70939 C0.262795,3.473848 0.262795,3.091991 0.498336,2.856449 L0.356914,2.715028 Z M0.356914,3.850811 C0.513709,4.007607 0.719425,4.086071 0.92478,4.086071 L0.92478,3.886071 C0.770323,3.886071 0.616134,3.827189 0.498336,3.70939 L0.356914,3.850811 Z M0.92478,4.086071 C1.130109,4.086071 1.335895,4.00767 1.49267,3.850787 L1.3512,3.709414 C1.233476,3.827219 1.079262,3.886071 0.92478,3.886071 L0.92478,4.086071 Z M1.492646,3.850811 L3.788251,1.555198 L3.64683,1.413777 L1.351224,3.70939 L1.492646,3.850811 Z M3.788251,1.555198 C4.101897,1.241551 4.101897,0.733061 3.788251,0.419415 L3.64683,0.560836 C3.882371,0.796378 3.882371,1.178235 3.64683,1.413777 L3.788251,1.555198 Z M3.788257,0.419421 C3.474657,0.105766 2.966113,0.105766 2.652513,0.419421 L2.793947,0.56083 C3.029439,0.325296 3.411331,0.325296 3.646824,0.56083 L3.788257,0.419421 Z" id="Fill-471"></path>
                    <path d="M2.72323,0.490125 L0.427625,2.785739 C0.153032,3.060333 0.153032,3.505507 0.427625,3.780101 C0.564921,3.917398 0.744874,3.98607 0.92478,3.98607 C1.104686,3.98607 1.284686,3.917445 1.421935,3.780101 L3.717541,1.484487 C3.992134,1.209893 3.992134,0.76472 3.717541,0.490125 C3.442994,0.215531 2.997776,0.215531 2.72323,0.490125 Z" id="Fill-472"></path>
                </g>
            </g>
        </g>
    </g>
</svg>