<?xml version="1.0" encoding="UTF-8"?>
<svg width="27px" height="28px" viewBox="0 0 27 28" version="1.1" xmlns="http://www.w3.org/2000/svg" xmlns:xlink="http://www.w3.org/1999/xlink">
    <!-- Generator: Sketch 64 (93537) - https://sketch.com -->
    <title>Group 14</title>
    <desc>Created with Sketch.</desc>
    <g id="Page-1" stroke="none" stroke-width="1" fill="none" fill-rule="evenodd">
        <g id="Main" transform="translate(-468.000000, -50.000000)" fill="#40D04F">
            <g id="Group-14" transform="translate(468.299097, 50.849970)">
                <path d="M11.816672,23.633343 C18.342841,23.633343 23.633343,18.34284 23.633343,11.816671 L21.333344,11.816671 C21.333344,17.072584 17.072585,21.333344 11.816672,21.333344 L11.816672,23.633343 Z M23.633343,11.816671 C23.633343,5.290503 18.342841,1.13686838e-13 11.816672,1.13686838e-13 L11.816672,2.299999 C17.072585,2.299999 21.333344,6.560759 21.333344,11.816671 L23.633343,11.816671 Z M11.816672,1.13686838e-13 C5.290504,1.13686838e-13 -2.27373675e-13,5.290503 -2.27373675e-13,11.816671 L2.3,11.816671 C2.3,6.560759 6.560759,2.299999 11.816672,2.299999 L11.816672,1.13686838e-13 Z M-2.27373675e-13,11.816671 C-2.27373675e-13,18.34284 5.290504,23.633343 11.816672,23.633343 L11.816672,21.333344 C6.560759,21.333344 2.3,17.072584 2.3,11.816671 L-2.27373675e-13,11.816671 Z" id="Fill-4"></path>
                <path d="M24.336781,25.963187 C24.785884,26.41229 25.514024,26.41229 25.963126,25.963187 C26.412229,25.514084 26.412229,24.785944 25.963126,24.336841 L24.336781,25.963187 Z M20.163124,18.536839 C19.714021,18.087736 18.985881,18.087736 18.536778,18.536839 C18.087675,18.985942 18.087675,19.714081 18.536778,20.163184 L20.163124,18.536839 Z M25.963126,24.336841 L20.163124,18.536839 L18.536778,20.163184 L24.336781,25.963187 L25.963126,24.336841 Z" id="Fill-6"></path>
            </g>
        </g>
    </g>
</svg>