<?xml version="1.0" encoding="UTF-8"?>
<svg width="22px" height="22px" viewBox="0 0 22 22" version="1.1" xmlns="http://www.w3.org/2000/svg" xmlns:xlink="http://www.w3.org/1999/xlink">
    <!-- Generator: Sketch 64 (93537) - https://sketch.com -->
    <title>Group 155</title>
    <desc>Created with Sketch.</desc>
    <g id="Page-1" stroke="none" stroke-width="1" fill="none" fill-rule="evenodd">
        <g id="FAQ" transform="translate(-356.000000, -1096.000000)" fill="#40D04F">
            <g id="Group-155" transform="translate(356.000000, 1096.000000)">
                <path d="M20.096115,17.983597 L20.096115,10.7108 C21.217331,10.196518 22,9.050461 22,7.721115 C22,7.698288 21.999161,7.675797 21.998657,7.653137 C22.006714,7.518692 21.971802,7.383072 21.895935,7.267258 C21.895599,7.266754 21.895264,7.266251 21.894928,7.265747 L20.420395,4.997131 C20.417374,4.992432 20.414352,4.987564 20.411331,4.982864 L19.25,3.196472 L19.25,1.903885 C19.25,0.854004 18.395996,0 17.346115,0 L4.653885,0 C3.604004,0 2.75,0.854004 2.75,1.903885 L2.75,3.196472 L0.105072,7.265747 C0.104736,7.266418 0.104401,7.26709 0.104065,7.267593 C0.030045,7.380554 -0.004196,7.51181 0.001511,7.642059 C0.000839,7.668411 0,7.694595 0,7.721115 C0,9.050461 0.782669,10.196518 1.903885,10.7108 L1.903885,17.983597 C0.844772,18.038818 0,18.917831 0,19.990372 C0,21.098495 0.901505,22 2.009628,22 L19.990372,22 C21.098495,22 22,21.098495 22,19.990372 C22,18.917831 21.155228,18.038818 20.096115,17.983597 L20.096115,17.983597 Z M19.287262,9.660248 C19.246307,9.671661 19.205185,9.681732 19.163895,9.690292 C19.163055,9.69046 19.162048,9.690628 19.161209,9.690964 C19.079468,9.707916 18.996887,9.719162 18.913971,9.725204 C18.906921,9.725708 18.899536,9.726212 18.892487,9.726715 C18.853043,9.729065 18.813599,9.730743 18.773987,9.730743 C18.742767,9.730743 18.711716,9.729736 18.680832,9.728394 C18.670929,9.72789 18.661194,9.727051 18.651291,9.726379 C18.630142,9.725037 18.609161,9.723526 18.588181,9.721344 C18.576935,9.720337 18.565689,9.718994 18.554443,9.717819 C18.534805,9.715469 18.515167,9.712952 18.495697,9.710098 C18.484451,9.70842 18.473373,9.706741 18.462296,9.704895 C18.441986,9.701538 18.421677,9.697845 18.401535,9.693817 C18.391968,9.691971 18.382233,9.690125 18.372833,9.68811 C18.344467,9.682068 18.316605,9.675522 18.288742,9.668137 C18.287567,9.667801 18.286392,9.667633 18.285217,9.667297 C18.25618,9.659576 18.227478,9.651184 18.199112,9.64212 C18.190216,9.639267 18.181656,9.636246 18.172928,9.633224 C18.153122,9.626846 18.133652,9.620132 18.114182,9.612915 C18.104111,9.609055 18.09404,9.605194 18.083969,9.601334 C18.06601,9.594284 18.04805,9.587067 18.030258,9.579514 C18.020187,9.575317 18.010284,9.571121 18.000381,9.566589 C17.98175,9.558533 17.963455,9.549805 17.945328,9.541077 C17.936768,9.53688 17.928207,9.53302 17.919815,9.528824 C17.895309,9.516403 17.870972,9.503815 17.847137,9.490555 C17.845291,9.489548 17.843445,9.488541 17.841599,9.487534 C17.81575,9.473099 17.790405,9.457993 17.765396,9.442551 C17.758011,9.437851 17.750626,9.432983 17.74324,9.428284 C17.725784,9.417038 17.708328,9.405792 17.691208,9.393875 C17.68248,9.388 17.67392,9.381958 17.665359,9.375748 C17.649582,9.36467 17.633972,9.353256 17.618362,9.341507 C17.60997,9.335129 17.60141,9.328751 17.593018,9.322205 C17.57724,9.309784 17.561462,9.297028 17.546021,9.284271 C17.538803,9.278229 17.531418,9.272186 17.5242,9.266144 C17.504059,9.248856 17.484253,9.231232 17.464783,9.213272 C17.462769,9.211258 17.460419,9.209412 17.458405,9.207397 C17.436752,9.187256 17.415771,9.166443 17.395126,9.145462 C17.389252,9.13942 17.383545,9.133209 17.37767,9.127167 C17.363068,9.111725 17.348633,9.096283 17.334534,9.080505 C17.327484,9.072784 17.320602,9.064728 17.313721,9.056839 C17.301132,9.042236 17.288544,9.027298 17.276123,9.01236 C17.269241,9.003967 17.262527,8.995743 17.255814,8.987183 C17.243393,8.971573 17.23114,8.95546 17.219223,8.939346 C17.213348,8.931625 17.207474,8.923904 17.201767,8.916016 C17.186829,8.895203 17.172226,8.874054 17.157959,8.852737 C17.155777,8.84938 17.153427,8.846191 17.151077,8.842834 C17.134796,8.817993 17.119019,8.792648 17.103745,8.766968 C17.09938,8.75975 17.095352,8.752365 17.091156,8.74498 C17.080414,8.726517 17.069839,8.707886 17.059769,8.688919 C17.054565,8.67952 17.049698,8.669785 17.04483,8.660217 C17.035767,8.642929 17.027039,8.625641 17.018646,8.608017 C17.013779,8.597946 17.009079,8.587708 17.004379,8.577637 C16.995987,8.559509 16.98793,8.541214 16.980042,8.522751 C16.976013,8.513184 16.971817,8.503784 16.967957,8.494217 C16.958725,8.471222 16.949829,8.448059 16.941269,8.424896 C16.939423,8.419693 16.937408,8.414658 16.935562,8.409454 C16.925491,8.381088 16.915924,8.352219 16.907028,8.323349 C16.90451,8.314789 16.902161,8.306229 16.899643,8.297668 C16.895111,8.281891 16.890747,8.265945 16.886551,8.250168 L20.662094,8.250168 C20.480148,8.934311 19.953781,9.473938 19.287262,9.660248 L19.287262,9.660248 Z M15.458344,8.323181 C15.449448,8.352219 15.43988,8.38092 15.42981,8.409454 C15.427963,8.414658 15.425949,8.419525 15.424103,8.424728 C15.415543,8.448059 15.406647,8.471222 15.397415,8.494049 C15.393555,8.503784 15.389359,8.513184 15.38533,8.522751 C15.377441,8.541046 15.369385,8.559341 15.36116,8.577469 C15.356461,8.587708 15.351593,8.597778 15.346725,8.607849 C15.338333,8.625473 15.329605,8.642929 15.320709,8.660217 C15.315674,8.669785 15.310806,8.679352 15.305603,8.688919 C15.295532,8.707886 15.284958,8.726349 15.274216,8.74498 C15.27002,8.752197 15.265991,8.75975 15.261627,8.766968 C15.246353,8.79248 15.230576,8.817825 15.214294,8.842667 C15.211945,8.846024 15.209595,8.84938 15.207413,8.852737 C15.193146,8.874054 15.178543,8.895203 15.163605,8.915848 C15.157898,8.923737 15.152023,8.931458 15.146149,8.939346 C15.134232,8.95546 15.121979,8.971405 15.109558,8.987183 C15.102844,8.995575 15.09613,9.003967 15.089249,9.012192 C15.076828,9.027298 15.064407,9.042068 15.051651,9.056839 C15.044769,9.064728 15.037888,9.072617 15.030838,9.080505 C15.016739,9.096283 15.002304,9.111725 14.987701,9.126999 C14.981827,9.133209 14.97612,9.13942 14.970245,9.145294 C14.9496,9.166443 14.928619,9.187256 14.906967,9.207397 C14.904953,9.209244 14.902603,9.211258 14.900589,9.213104 C14.881119,9.231232 14.861313,9.248688 14.841171,9.265976 C14.833954,9.272186 14.826569,9.278061 14.819351,9.284103 C14.803909,9.297028 14.788132,9.309616 14.772354,9.322037 C14.763962,9.328583 14.755402,9.335129 14.747009,9.341507 C14.731567,9.353088 14.715958,9.364502 14.70018,9.375748 C14.691452,9.38179 14.682892,9.387833 14.674164,9.393875 C14.657043,9.405624 14.639587,9.417038 14.622131,9.428284 C14.614746,9.432983 14.607529,9.437851 14.599976,9.442383 C14.574966,9.457993 14.549622,9.473099 14.523773,9.487534 C14.521927,9.488541 14.520081,9.48938 14.518234,9.490387 C14.4944,9.503647 14.470062,9.516403 14.445557,9.528656 C14.437164,9.532852 14.428604,9.53688 14.420044,9.540909 C14.401917,9.549805 14.383621,9.558365 14.36499,9.566589 C14.355087,9.570953 14.345184,9.57515 14.335114,9.579514 C14.317322,9.586899 14.29953,9.594116 14.281403,9.601166 C14.271332,9.605194 14.261261,9.609055 14.25119,9.612747 C14.23172,9.619965 14.21225,9.626678 14.192612,9.633224 C14.183716,9.636078 14.175156,9.639267 14.16626,9.641953 C14.137894,9.651016 14.109192,9.659409 14.080154,9.66713 C14.078979,9.667465 14.077805,9.667801 14.07663,9.668137 C14.048767,9.675354 14.020737,9.6819 13.992706,9.68811 C13.983139,9.690125 13.973404,9.691803 13.963837,9.693649 C13.943695,9.697678 13.923386,9.701538 13.903076,9.704895 C13.891998,9.706741 13.88092,9.70842 13.869675,9.70993 C13.850204,9.712784 13.830566,9.715302 13.810928,9.717651 C13.799683,9.718994 13.788605,9.720169 13.777191,9.721344 C13.756378,9.723358 13.735229,9.724869 13.714081,9.726212 C13.704178,9.726883 13.694443,9.727722 13.68454,9.728226 C13.653656,9.729736 13.622604,9.730576 13.591385,9.730576 C13.559998,9.730576 13.528946,9.729736 13.498062,9.728226 C13.488159,9.727722 13.478424,9.726883 13.468689,9.726212 C13.44754,9.724869 13.426392,9.723358 13.405411,9.721344 C13.394165,9.720169 13.382919,9.718994 13.371841,9.717651 C13.352036,9.715302 13.332397,9.712784 13.312927,9.70993 C13.301849,9.708252 13.290771,9.706741 13.279694,9.704895 C13.259216,9.701538 13.239075,9.697678 13.218765,9.693649 C13.209198,9.691803 13.199631,9.690125 13.190063,9.68811 C13.161865,9.682068 13.133835,9.675354 13.10614,9.668137 C13.104965,9.667801 13.10379,9.667465 13.102448,9.66713 C13.073578,9.659409 13.044876,9.651016 13.016342,9.641953 C13.007614,9.639267 12.998886,9.636078 12.990158,9.633224 C12.97052,9.626678 12.950882,9.619965 12.93158,9.612747 C12.921341,9.609055 12.91127,9.605194 12.901199,9.601166 C12.88324,9.594116 12.86528,9.586899 12.847488,9.579514 C12.837585,9.57515 12.827515,9.570953 12.817612,9.566589 C12.799149,9.558365 12.780853,9.549805 12.762558,9.540909 C12.753998,9.53688 12.745438,9.532852 12.737045,9.528656 C12.71254,9.516403 12.68837,9.503647 12.664368,9.490387 C12.662689,9.48938 12.660675,9.488541 12.658829,9.487534 C12.633148,9.473099 12.607803,9.457993 12.582626,9.442383 C12.575241,9.437851 12.568024,9.432983 12.560638,9.428284 C12.543015,9.417038 12.525726,9.405624 12.508438,9.393875 C12.49971,9.387833 12.49115,9.38179 12.48259,9.375748 C12.466812,9.364502 12.451202,9.353088 12.43576,9.341507 C12.4272,9.335129 12.418808,9.328583 12.410416,9.322037 C12.39447,9.309616 12.37886,9.297028 12.363419,9.284103 C12.356033,9.278061 12.348648,9.272186 12.341599,9.265976 C12.321457,9.248856 12.301651,9.231232 12.282181,9.213104 C12.279999,9.211258 12.277817,9.209244 12.275635,9.207397 C12.25415,9.187088 12.233002,9.166443 12.212357,9.145294 C12.206482,9.139252 12.200775,9.133041 12.195068,9.126999 C12.180466,9.111725 12.165863,9.096283 12.151764,9.080505 C12.144882,9.072617 12.138,9.064728 12.131119,9.056839 C12.118362,9.042068 12.105774,9.027298 12.093521,9.012192 C12.086639,9.003967 12.079926,8.995575 12.073212,8.987183 C12.060623,8.971405 12.048538,8.95546 12.036453,8.939346 C12.030746,8.931458 12.024872,8.923737 12.019165,8.915848 C12.004059,8.895203 11.989456,8.874054 11.975357,8.852737 C11.973007,8.84938 11.970657,8.846024 11.968475,8.842667 C11.952194,8.817825 11.936417,8.79248 11.921143,8.766968 C11.916779,8.75975 11.91275,8.752197 11.908554,8.74498 C11.897644,8.726349 11.887238,8.707718 11.876999,8.688919 C11.871964,8.679352 11.866928,8.669785 11.862061,8.660217 C11.853165,8.642929 11.844437,8.625473 11.835876,8.607849 C11.831009,8.597778 11.826309,8.587708 11.821609,8.577469 C11.813217,8.559509 11.805161,8.541046 11.79744,8.522751 C11.793411,8.513184 11.789215,8.503784 11.785355,8.494049 C11.775955,8.471222 11.767059,8.448059 11.758667,8.424728 C11.756821,8.419693 11.754639,8.414658 11.752792,8.409454 C11.742722,8.38092 11.733322,8.352219 11.724426,8.323181 C11.721741,8.314621 11.719559,8.306061 11.717041,8.297501 C11.712341,8.281891 11.708145,8.265945 11.703949,8.25 L15.478821,8.25 C15.474625,8.265945 15.470261,8.281723 15.465729,8.297501 C15.463211,8.306061 15.460861,8.314621 15.458344,8.323181 Z M10.275574,8.323181 C10.266678,8.352219 10.257278,8.38092 10.247208,8.409454 C10.245361,8.414658 10.243179,8.419525 10.241333,8.424728 C10.232941,8.448059 10.224045,8.471222 10.214645,8.494049 C10.210785,8.503784 10.206589,8.513184 10.20256,8.522751 C10.194839,8.541046 10.186783,8.559341 10.178391,8.577469 C10.173691,8.587708 10.168991,8.597778 10.164124,8.607849 C10.155563,8.625473 10.146835,8.642929 10.137939,8.660217 C10.133072,8.669785 10.128036,8.679352 10.123001,8.688919 C10.112762,8.707886 10.102356,8.726349 10.091446,8.74498 C10.08725,8.752197 10.083221,8.75975 10.078857,8.766968 C10.063583,8.79248 10.047974,8.817825 10.031525,8.842667 C10.029343,8.846024 10.026993,8.84938 10.024643,8.852737 C10.010544,8.874054 9.995941,8.895203 9.980835,8.915848 C9.975296,8.923737 9.969254,8.931458 9.963547,8.939346 C9.951462,8.95546 9.939377,8.971405 9.926788,8.987183 C9.920074,8.995575 9.913361,9.003967 9.906479,9.012192 C9.894226,9.027298 9.881638,9.042068 9.868881,9.056839 C9.862,9.064728 9.855118,9.072617 9.848236,9.080505 C9.834137,9.096283 9.819534,9.111725 9.804932,9.126999 C9.799225,9.133209 9.793518,9.13942 9.787643,9.145294 C9.766998,9.166443 9.74585,9.187256 9.724365,9.207397 C9.722183,9.209244 9.720001,9.211258 9.717819,9.213104 C9.698349,9.231232 9.678543,9.248688 9.658401,9.265976 C9.651352,9.272186 9.643967,9.278061 9.636581,9.284103 C9.62114,9.297028 9.60553,9.309616 9.589584,9.322037 C9.581192,9.328583 9.5728,9.335129 9.56424,9.341507 C9.548798,9.353088 9.533188,9.364502 9.51741,9.375748 C9.50885,9.38179 9.50029,9.387833 9.491562,9.393875 C9.474274,9.405624 9.456985,9.417038 9.439362,9.428284 C9.431976,9.432983 9.424759,9.437851 9.417374,9.442383 C9.392197,9.457993 9.366852,9.473099 9.341171,9.487534 C9.339325,9.488541 9.337311,9.48938 9.335632,9.490387 C9.31163,9.503647 9.28746,9.516403 9.262955,9.528656 C9.254562,9.532852 9.246002,9.53688 9.237442,9.540909 C9.219147,9.549805 9.200851,9.558365 9.182388,9.566589 C9.172485,9.570953 9.162415,9.57515 9.152512,9.579514 C9.13472,9.586899 9.11676,9.594116 9.098801,9.601166 C9.08873,9.605194 9.078659,9.609055 9.06842,9.612747 C9.049118,9.619965 9.02948,9.626678 9.009842,9.633224 C9.001114,9.636078 8.992386,9.639267 8.983658,9.641953 C8.955124,9.651016 8.926422,9.659409 8.897552,9.66713 C8.89621,9.667465 8.895035,9.667801 8.89386,9.668137 C8.866165,9.675354 8.838135,9.6819 8.809937,9.68811 C8.800369,9.690125 8.790802,9.691803 8.781235,9.693649 C8.760925,9.697678 8.740784,9.701538 8.720306,9.704895 C8.709229,9.706741 8.698151,9.70842 8.687073,9.70993 C8.667603,9.712784 8.647964,9.715302 8.628159,9.717651 C8.617081,9.718994 8.605835,9.720169 8.594589,9.721344 C8.573608,9.723358 8.55246,9.724869 8.531311,9.726212 C8.521576,9.726883 8.511841,9.727722 8.501938,9.728226 C8.471054,9.729736 8.440002,9.730576 8.408615,9.730576 C8.377396,9.730576 8.346344,9.729736 8.31546,9.728226 C8.305557,9.727722 8.295822,9.726883 8.285919,9.726212 C8.264771,9.724869 8.24379,9.723358 8.222809,9.721344 C8.211563,9.720169 8.200317,9.718994 8.189072,9.717651 C8.169434,9.715302 8.149796,9.712784 8.130325,9.70993 C8.11908,9.708252 8.108002,9.706741 8.096924,9.704895 C8.076614,9.701538 8.056305,9.697678 8.036163,9.693649 C8.026596,9.691803 8.016861,9.690125 8.007294,9.68811 C7.979095,9.682068 7.951065,9.675354 7.92337,9.668137 C7.922195,9.667801 7.921021,9.667465 7.919846,9.66713 C7.890808,9.659409 7.862106,9.651016 7.83374,9.641953 C7.824844,9.639267 7.816284,9.636078 7.807388,9.633224 C7.78775,9.626678 7.76828,9.619965 7.74881,9.612747 C7.738739,9.609055 7.728668,9.605194 7.718597,9.601166 C7.70047,9.594116 7.682678,9.586899 7.664886,9.579514 C7.654816,9.57515 7.644913,9.570953 7.63501,9.566589 C7.616379,9.558365 7.598083,9.549805 7.579956,9.540909 C7.571396,9.53688 7.562836,9.532852 7.554443,9.528656 C7.529938,9.516403 7.5056,9.503647 7.481766,9.490387 C7.479919,9.48938 7.478073,9.488541 7.476227,9.487534 C7.450378,9.473099 7.425034,9.457993 7.400024,9.442383 C7.392471,9.437851 7.385254,9.432983 7.377869,9.428284 C7.360413,9.417038 7.342957,9.405624 7.325836,9.393875 C7.317108,9.387833 7.308548,9.38179 7.29982,9.375748 C7.284042,9.364502 7.268433,9.353088 7.252991,9.341507 C7.244598,9.335129 7.236038,9.328583 7.227646,9.322037 C7.211868,9.309616 7.196091,9.297028 7.180649,9.284103 C7.173431,9.278061 7.166046,9.272186 7.158829,9.265976 C7.138687,9.248856 7.118881,9.231232 7.099411,9.213104 C7.097397,9.211258 7.095047,9.209244 7.093033,9.207397 C7.071381,9.187088 7.0504,9.166443 7.029755,9.145294 C7.02388,9.139252 7.018173,9.133041 7.012299,9.126999 C6.997696,9.111725 6.983261,9.096283 6.969162,9.080505 C6.962112,9.072617 6.955231,9.064728 6.948349,9.056839 C6.935593,9.042068 6.923172,9.027298 6.910751,9.012192 C6.90387,9.003967 6.897156,8.995575 6.890442,8.987183 C6.878021,8.971405 6.865768,8.95546 6.853851,8.939346 C6.847977,8.931458 6.842102,8.923737 6.836395,8.915848 C6.821457,8.895203 6.806854,8.874054 6.792587,8.852737 C6.790405,8.84938 6.788055,8.846024 6.785706,8.842667 C6.769424,8.817825 6.753647,8.79248 6.738373,8.766968 C6.734009,8.75975 6.72998,8.752197 6.725784,8.74498 C6.715042,8.726349 6.704468,8.707718 6.694397,8.688919 C6.689194,8.679352 6.684326,8.669785 6.679291,8.660217 C6.670395,8.642929 6.661667,8.625473 6.653275,8.607849 C6.648407,8.597778 6.643539,8.587708 6.63884,8.577469 C6.630615,8.559509 6.622559,8.541046 6.61467,8.522751 C6.610641,8.513184 6.606445,8.503784 6.602585,8.494049 C6.593353,8.471222 6.584457,8.448059 6.575897,8.424728 C6.574051,8.419693 6.572037,8.414658 6.57019,8.409454 C6.56012,8.38092 6.550552,8.352219 6.541656,8.323181 C6.539139,8.314621 6.536789,8.306061 6.534271,8.297501 C6.529739,8.281891 6.525375,8.265945 6.521179,8.25 L10.296051,8.25 C10.291855,8.265945 10.287491,8.281723 10.282959,8.297501 C10.280441,8.306061 10.278259,8.314621 10.275574,8.323181 Z M3.916702,3.73056 C3.983673,3.627502 4.019257,3.507324 4.019257,3.384628 L4.019257,1.903885 C4.019257,1.553925 4.303925,1.269257 4.653885,1.269257 L17.346115,1.269257 C17.696075,1.269257 17.980743,1.553925 17.980743,1.903885 L17.980743,3.384628 C17.980743,3.507324 18.016327,3.627502 18.083298,3.73056 L20.195816,6.980743 L1.804016,6.980743 L3.916702,3.73056 Z M1.337906,8.25 L5.113449,8.25 C5.109253,8.265945 5.104889,8.281723 5.100357,8.297501 C5.097839,8.306061 5.09549,8.314621 5.092972,8.323181 C5.084076,8.352219 5.074509,8.38092 5.064438,8.409454 C5.062592,8.414658 5.060577,8.419525 5.058731,8.424728 C5.050171,8.448059 5.041275,8.471222 5.032043,8.494049 C5.028183,8.503784 5.023987,8.513184 5.019958,8.522751 C5.01207,8.541046 5.004013,8.559341 4.995621,8.577469 C4.990921,8.587708 4.986221,8.597778 4.981354,8.607849 C4.972961,8.625473 4.964233,8.642929 4.95517,8.660217 C4.950302,8.669785 4.945267,8.679352 4.940231,8.688919 C4.930161,8.707886 4.919586,8.726349 4.908844,8.74498 C4.904648,8.752197 4.90062,8.75975 4.896255,8.766968 C4.880981,8.79248 4.865204,8.817825 4.848923,8.842667 C4.846573,8.846024 4.844223,8.84938 4.842041,8.852737 C4.827774,8.874054 4.813171,8.895203 4.798233,8.915848 C4.792526,8.923737 4.786652,8.931458 4.780777,8.939346 C4.76886,8.95546 4.756607,8.971405 4.744186,8.987183 C4.737473,8.995575 4.730759,9.003967 4.723877,9.012192 C4.711456,9.027298 4.699036,9.042068 4.686279,9.056839 C4.679398,9.064728 4.672516,9.072617 4.665466,9.080505 C4.651367,9.096283 4.636932,9.111725 4.62233,9.126999 C4.616455,9.133209 4.610748,9.13942 4.604874,9.145294 C4.584229,9.166443 4.563248,9.187256 4.541595,9.207397 C4.539413,9.209244 4.537231,9.211258 4.535217,9.213104 C4.515747,9.231232 4.495941,9.248688 4.4758,9.265976 C4.468582,9.272186 4.461197,9.278061 4.453979,9.284103 C4.438538,9.297028 4.42276,9.309616 4.406982,9.322037 C4.39859,9.328583 4.39003,9.335129 4.381638,9.341507 C4.366028,9.353088 4.350418,9.364502 4.334641,9.375748 C4.32608,9.38179 4.31752,9.387833 4.308792,9.393875 C4.291672,9.405624 4.274216,9.417038 4.25676,9.428284 C4.249374,9.432983 4.242157,9.437851 4.234604,9.442383 C4.209595,9.457993 4.18425,9.473099 4.158401,9.487534 C4.156555,9.488541 4.154709,9.48938 4.152863,9.490387 C4.129028,9.503647 4.104691,9.516403 4.080185,9.528656 C4.071793,9.532852 4.063232,9.53688 4.054672,9.540909 C4.036545,9.549805 4.01825,9.558365 3.999619,9.566589 C3.989716,9.570953 3.979813,9.57515 3.969742,9.579514 C3.95195,9.586899 3.934158,9.594116 3.916031,9.601166 C3.90596,9.605194 3.895889,9.609055 3.885818,9.612747 C3.866348,9.619965 3.84671,9.626678 3.827072,9.633224 C3.818344,9.636078 3.809784,9.639267 3.800888,9.641953 C3.772522,9.651016 3.74382,9.659409 3.714783,9.66713 C3.713608,9.667465 3.712433,9.667801 3.711258,9.668137 C3.683395,9.675354 3.655365,9.6819 3.627167,9.68811 C3.617767,9.690125 3.608032,9.691803 3.598465,9.693649 C3.578323,9.697678 3.558014,9.701538 3.537704,9.704895 C3.526627,9.706741 3.515549,9.70842 3.504303,9.70993 C3.484833,9.712784 3.465195,9.715302 3.445557,9.717651 C3.434311,9.718994 3.423233,9.720169 3.411819,9.721344 C3.390839,9.723358 3.369858,9.724869 3.348709,9.726212 C3.338806,9.726883 3.329071,9.727722 3.319168,9.728226 C3.288284,9.729904 3.257233,9.730743 3.226013,9.730743 C3.186569,9.730743 3.146957,9.729233 3.107513,9.726715 C3.100296,9.726212 3.093079,9.725876 3.086029,9.725372 C3.003113,9.719162 2.920532,9.707916 2.838791,9.690964 C2.837952,9.690796 2.836945,9.690628 2.836105,9.69046 C2.794815,9.681732 2.753693,9.671661 2.712738,9.660248 C2.046219,9.473938 1.519852,8.934311 1.337906,8.25 L1.337906,8.25 Z M3.375397,10.99614 C3.38446,10.995804 3.393356,10.995468 3.40242,10.994965 C3.449921,10.992279 3.497086,10.988586 3.544083,10.983887 C3.553146,10.983047 3.56221,10.98204 3.571442,10.981033 C3.619614,10.975662 3.667618,10.969788 3.715286,10.962234 C3.717133,10.962067 3.719147,10.961563 3.720993,10.961395 C3.767487,10.95401 3.813644,10.94545 3.859634,10.93605 C3.867859,10.934372 3.876251,10.932861 3.884644,10.931015 C3.929962,10.921448 3.974777,10.910873 4.019424,10.89946 C4.028488,10.89711 4.037384,10.894592 4.046448,10.892242 C4.091934,10.87999 4.137085,10.867233 4.181732,10.853134 C4.185089,10.851959 4.188446,10.850784 4.191803,10.849777 C4.234604,10.836014 4.277069,10.821243 4.319031,10.805801 C4.326752,10.802948 4.334473,10.80043 4.342026,10.797409 C4.384659,10.781464 4.42662,10.764511 4.468414,10.746719 C4.477142,10.743027 4.48587,10.739166 4.494766,10.735306 C4.536896,10.716843 4.57869,10.697876 4.619812,10.677734 C4.624176,10.675552 4.628372,10.67337 4.632568,10.671188 C4.671844,10.651886 4.710449,10.631744 4.748718,10.610764 C4.755432,10.607071 4.762314,10.603378 4.769028,10.599686 C4.808472,10.577866 4.847244,10.555038 4.885681,10.53154 C4.893906,10.526505 4.90213,10.521301 4.910355,10.516098 C4.948792,10.492096 4.986893,10.467422 5.024323,10.44191 C5.029022,10.438553 5.033722,10.435196 5.038422,10.432007 C5.073669,10.407501 5.108582,10.382156 5.142822,10.356308 C5.148697,10.351944 5.154572,10.347748 5.160278,10.343384 C5.19603,10.316025 5.23111,10.287994 5.265686,10.259125 C5.273071,10.252914 5.280457,10.246704 5.287842,10.240494 C5.322418,10.211288 5.356323,10.18158 5.389557,10.150864 C5.394424,10.1465 5.398956,10.142136 5.403656,10.137772 C5.435043,10.108398 5.466095,10.078522 5.496307,10.047806 C5.500839,10.043274 5.505539,10.03891 5.509903,10.034378 C5.541626,10.001984 5.572678,9.968918 5.603058,9.935181 C5.609436,9.928131 5.615646,9.921082 5.622025,9.913864 C5.652069,9.880127 5.681442,9.845718 5.710144,9.810638 C5.714508,9.805267 5.718704,9.799728 5.723068,9.794357 C5.750427,9.760284 5.777283,9.725876 5.803299,9.690628 C5.806488,9.686432 5.809677,9.682236 5.812866,9.67804 C5.814377,9.676025 5.815887,9.674011 5.817398,9.671997 C5.818909,9.674011 5.820419,9.675858 5.82193,9.67804 C5.825119,9.682236 5.828308,9.686432 5.831497,9.690628 C5.857513,9.725876 5.884369,9.760452 5.911728,9.794357 C5.916092,9.799728 5.920288,9.805267 5.924652,9.810638 C5.953354,9.845718 5.982727,9.880127 6.012772,9.913864 C6.01915,9.921082 6.02536,9.928131 6.031738,9.935181 C6.062119,9.968918 6.09317,10.001984 6.124893,10.034378 C6.129257,10.03891 6.133957,10.043274 6.138489,10.047806 C6.168701,10.078522 6.199585,10.108398 6.23114,10.137772 C6.23584,10.142136 6.24054,10.1465 6.245239,10.150864 C6.278473,10.18158 6.312378,10.211288 6.346954,10.240494 C6.354172,10.246704 6.361557,10.252914 6.36911,10.259125 C6.403687,10.287994 6.438766,10.316025 6.474518,10.343384 C6.480225,10.347748 6.486099,10.351944 6.491974,10.356308 C6.526215,10.382156 6.560959,10.407501 6.596375,10.432007 C6.601074,10.435196 6.605774,10.438553 6.610474,10.44191 C6.647903,10.467422 6.686005,10.492096 6.724442,10.516098 C6.732666,10.521301 6.740891,10.526505 6.749115,10.53154 C6.787552,10.555038 6.826324,10.577866 6.865768,10.599686 C6.872482,10.603378 6.879364,10.607071 6.886078,10.610764 C6.924347,10.631744 6.962952,10.651886 7.00206,10.671188 C7.006424,10.67337 7.01062,10.675552 7.014984,10.677734 C7.056107,10.697876 7.0979,10.716843 7.14003,10.735306 C7.148926,10.739166 7.157654,10.743027 7.166382,10.746719 C7.208008,10.764511 7.250137,10.781464 7.29277,10.797409 C7.300323,10.80043 7.308044,10.803116 7.315765,10.805801 C7.357727,10.821243 7.400192,10.836014 7.442993,10.849777 C7.44635,10.850784 7.449707,10.851959 7.453064,10.853134 C7.497711,10.867233 7.542862,10.87999 7.588348,10.892242 C7.597244,10.894592 7.606308,10.89711 7.615372,10.89946 C7.660019,10.910873 7.704834,10.921448 7.750153,10.931015 C7.758545,10.932861 7.766769,10.934372 7.775162,10.93605 C7.821152,10.94545 7.867142,10.95401 7.913803,10.961395 C7.915649,10.961563 7.917664,10.962067 7.91951,10.962234 C7.967178,10.969788 8.015182,10.975662 8.063354,10.981033 C8.072586,10.981873 8.08165,10.983047 8.090714,10.983887 C8.137711,10.988586 8.184875,10.992279 8.232376,10.994965 C8.24144,10.995468 8.250336,10.995804 8.259399,10.99614 C8.308914,10.998489 8.358765,11 8.408783,11 C8.458969,11 8.508652,10.998489 8.558334,10.99614 C8.56723,10.995804 8.576294,10.995468 8.58519,10.994965 C8.63269,10.992279 8.679855,10.988586 8.726852,10.983887 C8.736084,10.983047 8.745148,10.98204 8.754211,10.981033 C8.802551,10.975662 8.850555,10.969788 8.898224,10.962234 C8.90007,10.962067 8.901917,10.961563 8.903931,10.961395 C8.950424,10.95401 8.996582,10.94545 9.042404,10.93605 C9.050797,10.934372 9.059189,10.932861 9.067413,10.931015 C9.112732,10.921448 9.157715,10.910873 9.202194,10.89946 C9.211258,10.89711 9.220322,10.894592 9.229385,10.892242 C9.274872,10.87999 9.320023,10.867233 9.36467,10.853134 C9.368027,10.851959 9.371216,10.850784 9.374573,10.849777 C9.417542,10.836014 9.459839,10.821243 9.501968,10.805801 C9.509521,10.802948 9.517242,10.80043 9.524963,10.797409 C9.567429,10.781464 9.609558,10.764511 9.651184,10.746719 C9.66008,10.743027 9.668808,10.739166 9.677536,10.735306 C9.719666,10.716843 9.761459,10.697876 9.80275,10.677734 C9.806946,10.675552 9.81131,10.67337 9.815506,10.671188 C9.854614,10.651886 9.893219,10.631744 9.931488,10.610764 C9.93837,10.607071 9.945251,10.603378 9.951965,10.599686 C9.991241,10.577866 10.030014,10.555038 10.068451,10.53154 C10.076843,10.526505 10.0849,10.521301 10.093292,10.516098 C10.131729,10.492096 10.16983,10.467422 10.20726,10.44191 C10.21196,10.438553 10.21666,10.435196 10.221359,10.432007 C10.256607,10.407501 10.291351,10.382156 10.32576,10.356308 C10.331467,10.351944 10.337341,10.347748 10.343048,10.343384 C10.378799,10.316025 10.413879,10.287994 10.448624,10.259125 C10.456009,10.252914 10.463394,10.246704 10.470779,10.240494 C10.505188,10.211288 10.539261,10.18158 10.572495,10.150864 C10.577194,10.1465 10.581726,10.142136 10.586426,10.137772 C10.617981,10.108398 10.648865,10.078522 10.679245,10.047806 C10.683777,10.043274 10.688309,10.03891 10.692841,10.034378 C10.724564,10.001984 10.755447,9.968918 10.785828,9.935181 C10.792206,9.928131 10.798584,9.921082 10.804794,9.913864 C10.834839,9.880127 10.86438,9.845718 10.893082,9.810638 C10.897278,9.805267 10.901642,9.799728 10.905838,9.794357 C10.933197,9.760284 10.960052,9.725876 10.986069,9.690628 C10.989258,9.686432 10.992615,9.682236 10.995636,9.67804 C10.997147,9.676025 10.998825,9.674011 11.000336,9.671997 C11.001678,9.674011 11.003357,9.675858 11.004868,9.67804 C11.007889,9.682236 11.011246,9.686432 11.014435,9.690628 C11.040451,9.725876 11.067139,9.760452 11.094666,9.794357 C11.098862,9.799728 11.103226,9.805267 11.107422,9.810638 C11.136124,9.845718 11.165665,9.880127 11.195709,9.913864 C11.20192,9.921082 11.208298,9.928131 11.214676,9.935181 C11.245056,9.968918 11.27594,10.001984 11.307663,10.034378 C11.312195,10.03891 11.316727,10.043274 11.321259,10.047806 C11.351639,10.078522 11.382523,10.108398 11.414078,10.137772 C11.418777,10.142136 11.423309,10.1465 11.428009,10.150864 C11.461243,10.18158 11.495316,10.211288 11.529724,10.240494 L11.55188,10.259125 C11.586456,10.287994 11.621704,10.316025 11.657455,10.343384 C11.663162,10.347748 11.669037,10.351944 11.674744,10.356308 C11.709152,10.382156 11.743896,10.407501 11.779144,10.432007 C11.784012,10.435196 11.788544,10.438553 11.793243,10.44191 C11.830673,10.467422 11.868774,10.492096 11.907211,10.516098 C11.915604,10.521301 11.923828,10.526505 11.932053,10.53154 C11.970322,10.555038 12.009094,10.577866 12.048538,10.599686 C12.055252,10.603378 12.062134,10.607071 12.069016,10.610764 C12.107285,10.631744 12.145889,10.651886 12.184998,10.671188 C12.189194,10.67337 12.193558,10.675552 12.197754,10.677734 C12.239044,10.697876 12.280838,10.716843 12.322968,10.735306 C12.331696,10.739166 12.340424,10.743027 12.349319,10.746719 C12.390945,10.764511 12.433075,10.781464 12.47554,10.797409 C12.483261,10.80043 12.490982,10.803116 12.498535,10.805801 C12.540665,10.821243 12.582962,10.836014 12.625931,10.849777 C12.629288,10.850784 12.632645,10.851959 12.635834,10.853134 C12.680481,10.867233 12.725632,10.87999 12.771118,10.892242 C12.780182,10.894592 12.789078,10.89711 12.798309,10.89946 C12.842789,10.910873 12.887772,10.921448 12.93309,10.931015 C12.941315,10.932861 12.949707,10.934372 12.958099,10.93605 C13.003922,10.94545 13.050079,10.95401 13.096573,10.961395 C13.098587,10.961563 13.100433,10.962067 13.10228,10.962234 C13.149948,10.969788 13.197952,10.975662 13.246292,10.981033 C13.255356,10.981873 13.26442,10.983047 13.273651,10.983887 C13.320648,10.988586 13.367813,10.992279 13.415314,10.994965 C13.42421,10.995468 13.433273,10.995804 13.442169,10.99614 C13.491852,10.998489 13.541534,11 13.591721,11 C13.641739,11 13.691589,10.998489 13.741104,10.99614 C13.750168,10.995804 13.759064,10.995468 13.768127,10.994965 C13.815628,10.992279 13.862793,10.988586 13.90979,10.983887 C13.918854,10.983047 13.927917,10.98204 13.937149,10.981033 C13.985321,10.975662 14.033493,10.969788 14.080994,10.962234 C14.08284,10.962067 14.084854,10.961563 14.0867,10.961395 C14.133194,10.95401 14.179352,10.94545 14.225342,10.93605 C14.233734,10.934372 14.241959,10.932861 14.250351,10.931015 C14.29567,10.921448 14.340652,10.910873 14.385132,10.89946 C14.394196,10.89711 14.403259,10.894592 14.412323,10.892242 C14.457642,10.87999 14.502792,10.867233 14.54744,10.853134 C14.550797,10.851959 14.554153,10.850784 14.55751,10.849777 C14.600311,10.836014 14.642776,10.821243 14.684738,10.805801 C14.692459,10.802948 14.70018,10.80043 14.707733,10.797409 C14.750366,10.781464 14.792496,10.764511 14.834122,10.746719 C14.84285,10.743027 14.851578,10.739166 14.860474,10.735306 C14.902603,10.716843 14.944397,10.697876 14.985519,10.677734 C14.989883,10.675552 14.99408,10.67337 14.998444,10.671188 C15.037552,10.651886 15.076157,10.631744 15.114426,10.610764 C15.12114,10.607071 15.128021,10.603378 15.134735,10.599686 C15.174179,10.577866 15.212952,10.555038 15.251389,10.53154 C15.259613,10.526505 15.267838,10.521301 15.276062,10.516098 C15.314499,10.492096 15.3526,10.467422 15.39003,10.44191 C15.39473,10.438553 15.399429,10.435196 15.404129,10.432007 C15.439545,10.407501 15.474289,10.382156 15.50853,10.356308 C15.514404,10.351944 15.520279,10.347748 15.525986,10.343384 C15.561737,10.316025 15.596817,10.287994 15.631393,10.259125 C15.638947,10.252914 15.646164,10.246704 15.653717,10.240494 C15.688126,10.211288 15.722031,10.18158 15.755264,10.150864 C15.760132,10.1465 15.764664,10.142136 15.769363,10.137772 C15.800751,10.108398 15.831802,10.078522 15.862015,10.047806 C15.866547,10.043274 15.871246,10.03891 15.87561,10.034378 C15.907333,10.001984 15.938385,9.968918 15.968765,9.935181 C15.975143,9.928131 15.981354,9.921082 15.987732,9.913864 C16.017776,9.880127 16.04715,9.845718 16.075851,9.810638 C16.080215,9.805267 16.084412,9.799728 16.088776,9.794357 C16.116135,9.760284 16.14299,9.725876 16.169006,9.690628 C16.172195,9.686432 16.175385,9.682236 16.178574,9.67804 C16.180084,9.676025 16.181595,9.674011 16.183105,9.671997 C16.184616,9.674011 16.186127,9.675858 16.187637,9.67804 C16.190826,9.682236 16.194016,9.686432 16.197205,9.690628 C16.223389,9.725876 16.250076,9.760452 16.277435,9.794357 C16.281799,9.799728 16.285995,9.805267 16.290359,9.810638 C16.319061,9.845718 16.348434,9.880127 16.378479,9.913864 C16.384857,9.921082 16.391068,9.928131 16.397614,9.935181 C16.427826,9.968918 16.458878,10.001984 16.490601,10.034378 C16.495132,10.03891 16.499664,10.043274 16.504196,10.047806 C16.534409,10.078522 16.565292,10.108398 16.596848,10.137772 C16.601547,10.142136 16.606247,10.1465 16.610947,10.150864 C16.64418,10.18158 16.678085,10.211288 16.712662,10.240494 C16.719879,10.246704 16.727432,10.252914 16.734818,10.259125 C16.769394,10.287994 16.804474,10.316025 16.840225,10.343384 C16.845932,10.347748 16.851807,10.351944 16.857681,10.356308 C16.891922,10.382156 16.926834,10.407501 16.962082,10.432007 C16.966782,10.435196 16.971481,10.438553 16.976181,10.44191 C17.013611,10.467422 17.051712,10.492096 17.090149,10.516098 C17.098373,10.521301 17.106598,10.526505 17.114822,10.53154 C17.153259,10.555038 17.192032,10.577866 17.231476,10.599686 C17.23819,10.603378 17.245071,10.607071 17.251785,10.610764 C17.290054,10.631744 17.328659,10.651886 17.367935,10.671188 C17.372131,10.67337 17.376328,10.675552 17.380692,10.677734 C17.421814,10.697876 17.463608,10.716843 17.505905,10.735306 C17.514633,10.739166 17.523361,10.743027 17.532089,10.746719 C17.573883,10.764511 17.615845,10.781464 17.658478,10.797409 C17.666031,10.80043 17.673752,10.803116 17.681473,10.805801 C17.723434,10.821243 17.7659,10.836014 17.808701,10.849777 C17.812057,10.850784 17.815414,10.851959 17.818771,10.853134 C17.863419,10.867233 17.908569,10.87999 17.954056,10.892242 C17.96312,10.894592 17.972015,10.89711 17.981079,10.89946 C18.025726,10.910873 18.070709,10.921448 18.11586,10.931015 C18.124252,10.932861 18.132645,10.934372 18.140869,10.93605 C18.186859,10.94545 18.232849,10.95401 18.27951,10.961395 C18.281357,10.961563 18.283371,10.962067 18.285217,10.962234 C18.332886,10.969788 18.38089,10.975662 18.42923,10.981033 C18.438293,10.981873 18.447357,10.983047 18.456421,10.983887 C18.503418,10.988586 18.550583,10.992279 18.598083,10.994965 C18.607147,10.995468 18.616043,10.995804 18.625107,10.99614 C18.674622,10.998489 18.724472,11 18.77449,11 C18.792114,11 18.809738,10.999832 18.827362,10.999496 L18.827362,17.980743 L10.365372,17.980743 L10.365372,13.961487 C10.365372,12.911774 9.511368,12.05777 8.461487,12.05777 L6.769257,12.05777 C5.719376,12.05777 4.865372,12.911774 4.865372,13.961487 L4.865372,17.980743 L3.173141,17.980743 L3.173141,10.999496 C3.190765,10.999832 3.208389,11 3.226013,11 C3.276031,11 3.325882,10.998489 3.375397,10.99614 L3.375397,10.99614 Z M9.096115,17.980743 L6.134628,17.980743 L6.134628,13.961487 C6.134628,13.611694 6.419296,13.326859 6.769257,13.326859 L8.461487,13.326859 C8.811447,13.326859 9.096115,13.611694 9.096115,13.961487 L9.096115,17.980743 Z M19.990372,20.730743 L2.009628,20.730743 C1.601425,20.730743 1.269257,20.398575 1.269257,19.990372 C1.269257,19.582169 1.601425,19.25 2.009628,19.25 L19.990372,19.25 C20.398575,19.25 20.730743,19.582169 20.730743,19.990372 C20.730743,20.398575 20.398575,20.730743 19.990372,20.730743 Z" id="Fill-152"></path>
                <path d="M13.538406,15.865341 L15.230636,15.865341 C16.280517,15.865341 17.134521,15.011337 17.134521,13.961456 C17.134521,12.911743 16.280517,12.057739 15.230636,12.057739 L13.538406,12.057739 C12.488525,12.057739 11.634521,12.911743 11.634521,13.961456 C11.634521,15.011337 12.488525,15.865341 13.538406,15.865341 L13.538406,15.865341 Z M13.538406,13.326828 L15.230636,13.326828 C15.580596,13.326828 15.865264,13.611663 15.865264,13.961456 C15.865264,14.311416 15.580596,14.596084 15.230636,14.596084 L13.538406,14.596084 C13.188446,14.596084 12.903778,14.311416 12.903778,13.961456 C12.903778,13.611663 13.188446,13.326828 13.538406,13.326828 L13.538406,13.326828 Z" id="Fill-153"></path>
                <path d="M17.134736,3.384628 C17.134736,3.034164 16.850571,2.75 16.500107,2.75 L5.500107,2.75 C5.149643,2.75 4.865479,3.034164 4.865479,3.384628 C4.865479,3.735092 5.149643,4.019256 5.500107,4.019256 L16.500107,4.019256 C16.850571,4.019256 17.134736,3.735092 17.134736,3.384628 L17.134736,3.384628 Z" id="Fill-154"></path>
            </g>
        </g>
    </g>
</svg>