<?xml version="1.0" encoding="UTF-8"?>
<svg width="32px" height="32px" viewBox="0 0 32 32" version="1.1" xmlns="http://www.w3.org/2000/svg" xmlns:xlink="http://www.w3.org/1999/xlink">
    <!-- Generator: Sketch 64 (93537) - https://sketch.com -->
    <title>Group 62</title>
    <desc>Created with Sketch.</desc>
    <g id="Page-1" stroke="none" stroke-width="1" fill="none" fill-rule="evenodd">
        <g id="Support" transform="translate(-1804.000000, -1399.000000)" fill="#FFFFFF">
            <g id="Group-62" transform="translate(1804.000000, 1399.000000)">
                <path d="M31.725895,0.275368 C31.460708,0.01012 31.062834,-0.071446 30.714834,0.067806 L0.589832,12.117657 C0.245145,12.255531 0.014333,12.583782 0.001083,12.954843 C-0.012105,13.325844 0.194895,13.669655 0.528894,13.831654 L12.40812,19.592955 L18.169483,31.472185 C18.326608,31.796184 18.654733,32.00062 19.012794,32.00062 C19.02392,32.00062 19.035108,32.00062 19.046295,31.999994 C19.417232,31.986807 19.745605,31.755997 19.883417,31.41131 L31.933395,1.286491 C32.072647,0.938242 31.991083,0.540556 31.725895,0.275368 Z M3.256327,13.07053 L27.170404,3.504988 L12.918619,17.756647 L3.256327,13.07053 Z M18.930607,28.744814 L14.24443,19.082396 L28.496277,4.830734 L18.930607,28.744814 Z" id="Fill-59"></path>
                <polygon id="Fill-60" fill-opacity="0.4" points="13.5 18.5 1.5 13 27.5 2.698113 29 2"></polygon>
                <polygon id="Fill-61" fill-opacity="0.4" points="13.0815384 18.4995544 18.4997399 30.5367114 28.978347 4.60742401 29.6866519 3.11220986"></polygon>
            </g>
        </g>
    </g>
</svg>
