<?xml version="1.0" encoding="UTF-8"?>
<svg width="16px" height="16px" viewBox="0 0 16 16" version="1.1" xmlns="http://www.w3.org/2000/svg" xmlns:xlink="http://www.w3.org/1999/xlink">
    <!-- Generator: Sketch 64 (93537) - https://sketch.com -->
    <title>Group 2</title>
    <desc>Created with Sketch.</desc>
    <g id="Page-1" stroke="none" stroke-width="1" fill="none" fill-rule="evenodd" fill-opacity="0.7">
        <g id="Main" transform="translate(-48.000000, -346.000000)" fill="#FFFFFF">
            <g id="Group-366" transform="translate(46.000000, 193.000000)">
                <g id="Group-336" transform="translate(2.000000, 153.000000)">
                    <g id="Group-2" transform="translate(0.400000, 0.400000)">
                        <path d="M-4.61852778e-14,0.6 L0.007852983,0.502676847 C0.05435322,0.21758949 0.3017661,-1.13686838e-13 0.6,-1.13686838e-13 L0.6,-1.13686838e-13 L6.044445,-1.13686838e-13 L6.14176791,0.007852983 C6.4268547,0.05435322 6.644445,0.3017661 6.644445,0.6 L6.644445,0.6 L6.644445,6.044444 L6.63659199,6.14176715 C6.5900916,6.42685451 6.342678,6.644444 6.044445,6.644444 L6.044445,6.644444 L0.6,6.644444 L0.502676847,6.63659102 C0.21758949,6.59009078 -4.61852778e-14,6.3426779 -4.61852778e-14,6.044444 L-4.61852778e-14,6.044444 L-4.61852778e-14,0.6 Z M1.2,5.444 L5.444,5.444 L5.444,1.199 L1.2,1.199 L1.2,5.444 Z" id="Fill-330"></path>
                        <path d="M8.555542,0.6 L8.56339498,0.502676847 C8.60989522,0.21758949 8.8573081,-1.13686838e-13 9.155542,-1.13686838e-13 L9.155542,-1.13686838e-13 L14.599987,-1.13686838e-13 L14.6973099,0.007852983 C14.9823967,0.05435322 15.199987,0.3017661 15.199987,0.6 L15.199987,0.6 L15.199987,6.044444 L15.192134,6.14176715 C15.1456336,6.42685451 14.89822,6.644444 14.599987,6.644444 L14.599987,6.644444 L9.155542,6.644444 L9.05821885,6.63659102 C8.77313149,6.59009078 8.555542,6.3426779 8.555542,6.044444 L8.555542,6.044444 L8.555542,0.6 Z M9.755542,5.444 L13.999542,5.444 L13.999542,1.199 L9.755542,1.199 L9.755542,5.444 Z" id="Fill-331"></path>
                        <path d="M8.555542,9.155542 L8.56339498,9.05821885 C8.60989522,8.77313149 8.8573081,8.555542 9.155542,8.555542 L9.155542,8.555542 L14.599987,8.555542 L14.6973099,8.56339498 C14.9823967,8.60989522 15.199987,8.8573081 15.199987,9.155542 L15.199987,9.155542 L15.199987,14.599986 L15.192134,14.6973092 C15.1456336,14.9823965 14.89822,15.199986 14.599987,15.199986 L14.599987,15.199986 L9.155542,15.199986 L9.05821885,15.192133 C8.77313149,15.1456328 8.555542,14.8982199 8.555542,14.599986 L8.555542,14.599986 L8.555542,9.155542 Z M9.755542,13.999542 L13.999542,13.999542 L13.999542,9.754542 L9.755542,9.754542 L9.755542,13.999542 Z" id="Fill-332"></path>
                        <path d="M-4.61852778e-14,9.155542 L0.007852983,9.05821885 C0.05435322,8.77313149 0.3017661,8.555542 0.6,8.555542 L0.6,8.555542 L6.044445,8.555542 L6.14176791,8.56339498 C6.4268547,8.60989522 6.644445,8.8573081 6.644445,9.155542 L6.644445,9.155542 L6.644445,14.599986 L6.63659199,14.6973092 C6.5900916,14.9823965 6.342678,15.199986 6.044445,15.199986 L6.044445,15.199986 L0.6,15.199986 L0.502676847,15.192133 C0.21758949,15.1456328 -4.61852778e-14,14.8982199 -4.61852778e-14,14.599986 L-4.61852778e-14,14.599986 L-4.61852778e-14,9.155542 Z M1.2,13.999542 L5.444,13.999542 L5.444,9.754542 L1.2,9.754542 L1.2,13.999542 Z" id="Fill-333"></path>
                    </g>
                </g>
            </g>
        </g>
    </g>
</svg>