<?xml version="1.0" encoding="UTF-8"?>
<svg width="18px" height="18px" viewBox="0 0 18 18" version="1.1" xmlns="http://www.w3.org/2000/svg" xmlns:xlink="http://www.w3.org/1999/xlink">
    <!-- Generator: Sketch 64 (93537) - https://sketch.com -->
    <title>Group 10</title>
    <desc>Created with Sketch.</desc>
    <g id="Page-1" stroke="none" stroke-width="1" fill="none" fill-rule="evenodd" opacity="0.7">
        <g id="Main" transform="translate(-47.000000, -926.000000)" fill="#FFFFFF" stroke="#FFFFFF" stroke-width="0.1">
            <g id="Group-412" transform="translate(46.000000, 818.000000)">
                <g id="Group-10" transform="translate(2.000000, 109.000000)">
                    <path d="M8.502093,-0.05 C8.92195637,-0.05 9.30269545,0.120774082 9.57846059,0.396539038 C9.8504556,0.668533857 10.0203108,1.0426518 10.0249343,1.45575952 C10.3164869,1.83067912 10.6012189,1.9814065 10.8762763,2.12097901 C11.3670334,1.78001558 11.7876318,1.58222408 12.1806978,1.54154281 C12.6230136,1.49576429 13.0319178,1.64717798 13.3374165,1.95308086 L13.3374165,1.95308086 L14.0471178,2.66275017 C14.3423986,2.95770556 14.4932991,3.34891827 14.4932637,3.74164162 C14.4932292,4.12359172 14.3504845,4.50696365 14.0590394,4.80457753 C14.0003246,5.27633056 14.0955156,5.5841217 14.1917198,5.87701665 C14.7769471,5.98285304 15.215698,6.13980342 15.5239001,6.39024298 C15.8664756,6.66861371 16.05,7.06222685 16.05,7.497906 L16.05,7.497906 L16.05,8.502093 C16.05,8.92195436 15.8792198,9.30269194 15.6034491,9.57845688 C15.3314461,9.85045406 14.9573187,10.0203107 14.5442108,10.0249333 C14.1693107,10.3164954 14.0186025,10.6011945 13.8790413,10.8762382 C14.2199045,11.3669982 14.4178085,11.7876194 14.458505,12.18078 C14.5042661,12.6228686 14.353016,13.0316878 14.0469485,13.3374181 L14.0469485,13.3374181 L13.3371917,14.047143 C13.0420149,14.3427265 12.6509758,14.4933482 12.258605,14.493313 C11.8762999,14.4932786 11.4927386,14.3502687 11.1953905,14.0590703 C10.723651,14.0003538 10.415816,14.0955751 10.1229443,14.1917855 C10.0171468,14.7769937 9.86019495,15.2157322 9.60975,15.5239241 C9.33137623,15.8664846 8.93775711,16.05 8.502063,16.05 L8.502063,16.05 L7.497906,16.05 C7.07804129,16.05 6.69729295,15.8792243 6.42151982,15.603457 C6.1495195,15.3314624 5.9796584,14.957346 5.97503474,14.5442404 C5.6834844,14.1693219 5.39875314,14.0185948 5.12369579,13.8790225 C4.63293485,14.219984 4.21233658,14.4177757 3.81927059,14.4584569 C3.37695459,14.5042355 2.96805013,14.3528215 2.66255143,14.0469181 L2.66255143,14.0469181 L1.95285219,13.3372499 C1.65757094,13.0422945 1.5066702,12.6510822 1.50670545,12.2583589 C1.50673974,11.8764087 1.64948436,11.4930365 1.94092957,11.1954216 C1.99964381,10.7236738 1.90445441,10.4158847 1.80825141,10.1229908 C1.22303492,10.0171456 0.784290796,9.86019465 0.476092648,9.60975401 C0.133523463,9.33138359 -0.05,8.93777147 -0.05,8.502093 L-0.05,8.502093 L-0.05,7.497906 C-0.05,7.07804509 0.12078025,6.69730745 0.396550947,6.42154238 C0.66855373,6.14954513 1.0426809,5.97968828 1.45578834,5.97506555 C1.83069203,5.68350141 1.98140052,5.39880107 2.12096271,5.12375741 C1.78009623,4.63301774 1.58219207,4.21240353 1.54149541,3.81924629 C1.49573417,3.37716185 1.6469839,2.96834227 1.95305146,2.66261186 L1.95305146,2.66261186 L2.66280833,1.95288701 C2.95798492,1.65730365 3.34902349,1.50668251 3.74139377,1.50671792 C4.12369882,1.50675242 4.50726019,1.6497626 4.80460844,1.94096068 C5.2763497,1.99967641 5.58418579,1.90445459 5.87705738,1.80824368 C5.98285308,1.22302281 6.1398041,0.784277794 6.39024799,0.476082311 C6.66862204,0.133516063 7.06224228,-0.05 7.497938,-0.05 L7.497938,-0.05 Z M8.47480872,0.999936573 L7.00289609,1.51180584 L6.65047303,2.66040684 C6.13476306,2.79065872 5.6511972,2.99587681 4.60370967,3.19321266 L3.38615766,2.71439184 L2.70698933,4.11709491 L3.27078079,5.18005982 C2.99708973,5.63741332 2.79953746,6.12415963 2.19822284,7.00255428 L0.999937197,7.52522154 L1.51183612,8.99713421 L2.66040716,9.34952554 C2.79065903,9.86526807 2.99587757,10.3488371 3.19318129,11.3962577 L2.71439067,12.6138714 L4.11706421,13.2929805 L5.18006088,12.7292213 C5.63744561,13.0029094 6.12419187,13.2004947 7.00258505,13.801807 L7.52525344,15.0000637 L8.99716591,14.4881942 L9.34958897,13.3395932 C9.86529894,13.2093413 10.3488648,13.0041232 11.3963533,12.8067873 L12.6139053,13.2856072 L13.2930737,11.8829051 L12.7292822,10.8199382 C13.0029722,10.3625867 13.2005256,9.87584034 13.8018393,8.99744547 L15.0000936,8.47480894 L14.4881949,7.00289677 L13.3396238,6.65050442 C13.209373,6.13476181 13.0041524,5.65119498 12.8068497,4.60377222 L13.2856403,3.38615859 L11.8829678,2.70705093 L10.8200021,3.27084229 C10.362618,2.99715386 9.87587165,2.7995687 8.99747652,2.19825369 L8.47480872,0.999936573 Z" id="Fill-405"></path>
                    <path d="M7.999989,4.468798 C8.97356725,4.468798 9.85638877,4.86480354 10.4958093,5.50422427 C11.1352351,6.14365024 11.531239,7.02647851 11.531239,8.000049 C11.531239,8.97361943 11.1352352,9.85644739 10.4958095,10.4958731 C9.8563889,11.1352937 8.97356732,11.531299 7.999989,11.531299 C7.02641024,11.531299 6.14358846,11.1352937 5.50416779,10.4958732 C4.86474189,9.8564475 4.468738,8.97361949 4.468738,8.000049 C4.468738,7.02647845 4.86474194,6.14365013 5.50416792,5.50422415 C6.14358858,4.86480349 7.0264103,4.468798 7.999989,4.468798 Z M7.999989,5.506298 C7.31244976,5.506298 6.68902746,5.78598947 6.23748035,6.23753658 C5.78592806,6.68908887 5.506238,7.31251757 5.506238,8.000049 C5.506238,8.68757654 5.78593263,9.31100175 6.23748419,9.76255314 C6.68903569,10.2141045 7.31246107,10.493799 7.999989,10.493799 C8.68751649,10.493799 9.31094166,10.2141044 9.76249304,9.76255304 C10.2140444,9.31100166 10.493739,8.68757649 10.493739,8.000049 C10.493739,7.31251762 10.214049,6.68908896 9.76249688,6.23753669 C9.31094989,5.78598952 8.68752779,5.506298 7.999989,5.506298 Z" id="Fill-408"></path>
                </g>
            </g>
        </g>
    </g>
</svg>