<?xml version="1.0" encoding="UTF-8"?>
<svg width="34px" height="33px" viewBox="0 0 34 33" version="1.1" xmlns="http://www.w3.org/2000/svg" xmlns:xlink="http://www.w3.org/1999/xlink">
    <!-- Generator: Sketch 64 (93537) - https://sketch.com -->
    <title>Group 496</title>
    <desc>Created with Sketch.</desc>
    <defs>
        <path d="M14.525391,1.61084 C15.717041,-0.12793 18.282959,-0.12793 19.474609,1.61084 L23.450317,7.411865 C23.840454,7.980957 24.414795,8.398315 25.07666,8.593506 L31.822388,10.582031 C33.844238,11.177979 34.637207,13.618408 33.351807,15.28894 L29.063232,20.862793 C28.642456,21.409668 28.423096,22.084839 28.442017,22.774658 L28.635376,29.804688 C28.693359,31.911621 26.617432,33.419922 24.631348,32.713745 L18.005127,30.357422 C17.35498,30.126221 16.64502,30.126221 15.994873,30.357422 L9.368652,32.713745 C7.382568,33.419922 5.306641,31.911621 5.364624,29.804688 L5.557983,22.774658 C5.576904,22.084839 5.357544,21.409668 4.936768,20.862793 L0.648193,15.28894 C-0.637207,13.618408 0.155762,11.177979 2.177612,10.582031 L8.92334,8.593506 C9.585205,8.398315 10.159546,7.980957 10.549683,7.411865 L14.525391,1.61084 Z" id="path-1"></path>
    </defs>
    <g id="Page-1" stroke="none" stroke-width="1" fill="none" fill-rule="evenodd">
        <g id="Profile" transform="translate(-1093.000000, -1018.000000)">
            <g id="Group-496" transform="translate(1093.000000, 1018.000000)">
                <mask id="mask-2" fill="white">
                    <use xlink:href="#path-1"></use>
                </mask>
                <g id="Clip-495"></g>
                <path d="M8.923306,8.593377 L8.3578,6.674992 L8.923306,8.593377 Z M2.177605,10.581889 L1.6121,8.663502 L2.177605,10.581889 Z M5.557993,22.774544 L3.558749,22.719559 L5.557993,22.774544 Z M9.368656,32.713654 L8.698561,30.829251 L9.368656,32.713654 Z M5.364642,29.804572 L3.365398,29.749585 L5.364642,29.804572 Z M18.005144,30.357369 L17.335049,32.241772 L18.005144,30.357369 Z M28.635357,29.804566 L26.636114,29.859553 L28.635357,29.804566 Z M24.63135,32.713654 L23.961254,34.598057 L23.961254,34.598057 L24.63135,32.713654 Z M28.442007,22.774544 L30.44125,22.719557 L28.442007,22.774544 Z M33.351791,15.288884 L34.936893,16.508494 L33.351791,15.288884 Z M23.450338,7.411763 L25.10008,6.281121 L23.450338,7.411763 Z M19.474613,1.610699 L17.824871,2.741341 L19.474613,1.610699 Z M17.824871,2.741341 L21.800596,8.542405 L25.10008,6.281121 L21.124355,0.480059 L17.824871,2.741341 Z M24.511187,10.511763 L31.256886,12.500273 L32.387897,8.663502 L25.642199,6.674992 L24.511187,10.511763 Z M31.766689,14.069272 L27.478119,19.643036 L30.648323,22.082257 L34.936893,16.508494 L31.766689,14.069272 Z M26.442764,22.829529 L26.636114,29.859553 L30.634602,29.749581 L30.44125,22.719557 L26.442764,22.829529 Z M25.301445,30.829251 L18.67524,28.472968 L17.335049,32.241772 L23.961254,34.598057 L25.301445,30.829251 Z M15.324762,28.472968 L8.698561,30.829251 L10.038751,34.598053 L16.664953,32.241772 L15.324762,28.472968 Z M7.363886,29.859559 L7.557237,22.829531 L3.558749,22.719559 L3.365398,29.749585 L7.363886,29.859559 Z M6.521882,19.643036 L2.233315,14.069277 L-0.93689,16.508498 L3.351678,22.082259 L6.521882,19.643036 Z M2.74311,12.500275 L9.488811,10.511765 L8.3578,6.674992 L1.6121,8.663502 L2.74311,12.500275 Z M12.199406,8.542403 L16.175131,2.741337 L12.875647,0.480055 L8.89992,6.281121 L12.199406,8.542403 Z M9.488811,10.511765 C10.591942,10.186581 11.549252,9.491055 12.199406,8.542403 L8.89992,6.281121 C8.76989,6.470849 8.578427,6.609955 8.3578,6.674992 L9.488811,10.511765 Z M2.233315,14.069277 C1.804849,13.51241 2.069166,12.698941 2.74311,12.500275 L1.6121,8.663502 C-1.757654,9.656846 -3.079199,13.724184 -0.93689,16.508498 L2.233315,14.069277 Z M7.557237,22.829531 C7.588855,21.679905 7.223197,20.55452 6.521882,19.643036 L3.351678,22.082259 C3.49194,22.264554 3.565072,22.489632 3.558749,22.719559 L7.557237,22.829531 Z M8.698561,30.829251 C8.036545,31.064663 7.344569,30.561909 7.363886,29.859559 L3.365398,29.749585 C3.268812,33.261372 6.728701,35.775113 10.038751,34.598053 L8.698561,30.829251 Z M18.67524,28.472968 C17.591652,28.087643 16.408352,28.087641 15.324762,28.472968 L16.664953,32.241772 C16.88167,32.164708 17.11833,32.164708 17.335049,32.241772 L18.67524,28.472968 Z M26.636114,29.859553 C26.655432,30.561913 25.963451,31.064663 25.301445,30.829251 L23.961254,34.598057 C27.271315,35.775116 30.731186,33.261357 30.634602,29.749581 L26.636114,29.859553 Z M27.478119,19.643036 C26.776806,20.554518 26.411144,21.679902 26.442764,22.829529 L30.44125,22.719557 C30.434929,22.489632 30.50806,22.264555 30.648323,22.082257 L27.478119,19.643036 Z M31.256886,12.500273 C31.93084,12.698943 32.195148,13.512413 31.766689,14.069272 L34.936893,16.508494 C37.079208,13.724171 35.757641,9.656842 32.387897,8.663502 L31.256886,12.500273 Z M21.800596,8.542405 C22.45075,9.491057 23.408058,10.186581 24.511187,10.511763 L25.642199,6.674992 C25.421572,6.609955 25.23011,6.47085 25.10008,6.281121 L21.800596,8.542405 Z M21.124355,0.480059 C19.138327,-2.4178 14.861683,-2.417812 12.875647,0.480055 L16.175131,2.741341 C16.572336,2.161768 17.427662,2.161765 17.824871,2.741341 L21.124355,0.480059 Z" id="Fill-494" fill="#FFC701" mask="url(#mask-2)"></path>
            </g>
        </g>
    </g>
</svg>