<?xml version="1.0" encoding="UTF-8"?>
<svg width="16px" height="16px" viewBox="0 0 16 16" version="1.1" xmlns="http://www.w3.org/2000/svg" xmlns:xlink="http://www.w3.org/1999/xlink">
    <!-- Generator: Sketch 64 (93537) - https://sketch.com -->
    <title>Group 11</title>
    <desc>Created with Sketch.</desc>
    <g id="Page-1" stroke="none" stroke-width="1" fill="none" fill-rule="evenodd" fill-opacity="0.7">
        <g id="Main" transform="translate(-48.000000, -1004.000000)" fill="#FFFFFF">
            <g id="Group-430" transform="translate(47.000000, 969.000000)">
                <g id="Group-419" transform="translate(1.000000, 35.000000)">
                    <g id="Group-11">
                        <path d="M8,-1.70530257e-13 C3.574463,-1.70530257e-13 -1.70530257e-13,3.574463 -1.70530257e-13,8 C-1.70530257e-13,12.425536 3.574463,16 8,16 C12.425536,16 16,12.425536 16,8 C16,3.574463 12.425504,-1.70530257e-13 8,-1.70530257e-13 Z M8,14.672309 C4.323409,14.672309 1.327658,11.676558 1.327658,7.999968 C1.327658,4.323378 4.323409,1.327658 8,1.327658 C11.67659,1.327658 14.672341,4.323409 14.672341,8 C14.672341,11.67659 11.67659,14.672309 8,14.672309 Z" id="Fill-414"></path>
                        <path d="M5.378716,4.970215 C5.004259,4.970215 4.697876,5.276597 4.697876,5.651054 L4.697876,5.821256 C4.697876,6.195713 5.004259,6.502095 5.378716,6.502095 C5.753173,6.502095 6.059555,6.195713 6.059555,5.821256 L6.059555,5.651054 C6.059587,5.276597 5.753205,4.970215 5.378716,4.970215 Z" id="Fill-415"></path>
                        <path d="M10.621269,4.970215 C10.246812,4.970215 9.94043,5.276597 9.94043,5.651054 L9.94043,5.821256 C9.94043,6.195713 10.246812,6.502095 10.621269,6.502095 C10.995726,6.502095 11.302108,6.195713 11.302108,5.821256 L11.302108,5.651054 C11.302108,5.276597 10.995726,4.970215 10.621269,4.970215 Z" id="Fill-416"></path>
                        <path d="M11.9148562,8.987206 C11.642531,8.714877 11.234021,8.714877 10.96166,8.987206 C9.32762,10.621247 6.706357,10.621247 5.072316,8.987206 C4.799987,8.714877 4.391476,8.714877 4.119115,8.987206 C3.846754,9.259536 3.846786,9.668046 4.119115,9.940407 C5.174444,10.995736 6.604229,11.540394 7.999961,11.540394 C9.395694,11.540394 10.82548,11.029757 11.9148562,9.940407 C12.187223,9.668046 12.187223,9.259536 11.9148562,8.987206 Z" id="Fill-417"></path>
                    </g>
                </g>
            </g>
        </g>
    </g>
</svg>