<?xml version="1.0" encoding="UTF-8"?>
<svg width="24px" height="24px" viewBox="0 0 24 24" version="1.1" xmlns="http://www.w3.org/2000/svg" xmlns:xlink="http://www.w3.org/1999/xlink">
    <!-- Generator: Sketch 64 (93537) - https://sketch.com -->
    <title>Fill 334</title>
    <desc>Created with Sketch.</desc>
    <g id="Page-1" stroke="none" stroke-width="1" fill="none" fill-rule="evenodd">
        <g id="Product" transform="translate(-1553.000000, -1274.000000)" fill="#1DA1F2">
            <path d="M1565,1274 C1558.3736,1274 1553,1279.3736 1553,1286 C1553,1292.6264 1558.3736,1298 1565,1298 C1571.6264,1298 1577,1292.6264 1577,1286 C1577,1279.3736 1571.6264,1274 1565,1274 Z M1570.47906,1283.35632 C1570.48438,1283.47443 1570.48694,1283.59308 1570.48694,1283.71228 C1570.48694,1287.35187 1567.71655,1291.54883 1562.65021,1291.54901 L1562.65039,1291.54901 L1562.65021,1291.54901 C1561.09473,1291.54901 1559.64728,1291.09308 1558.42835,1290.31177 C1558.64386,1290.33722 1558.86322,1290.34985 1559.08533,1290.34985 C1560.37585,1290.34985 1561.56348,1289.90967 1562.50629,1289.17084 C1561.30054,1289.1485 1560.28394,1288.35217 1559.93311,1287.25775 C1560.10101,1287.28998 1560.27368,1287.30756 1560.45075,1287.30756 C1560.70215,1287.30756 1560.94568,1287.27368 1561.17712,1287.21051 C1559.91681,1286.95819 1558.96741,1285.84436 1558.96741,1284.51062 C1558.96741,1284.49817 1558.96741,1284.487 1558.96777,1284.47546 C1559.33893,1284.68182 1559.76337,1284.80597 1560.21527,1284.81989 C1559.47571,1284.32642 1558.98956,1283.48285 1558.98956,1282.52722 C1558.98956,1282.02258 1559.12598,1281.54981 1559.36255,1281.14276 C1560.72083,1282.80939 1562.75073,1283.90546 1565.03992,1284.02063 C1564.99268,1283.81885 1564.96832,1283.60864 1564.96832,1283.39258 C1564.96832,1281.87207 1566.2019,1280.63849 1567.72296,1280.63849 C1568.51526,1280.63849 1569.23084,1280.97339 1569.73346,1281.50879 C1570.36096,1281.38501 1570.95019,1281.15576 1571.48248,1280.84027 C1571.27649,1281.48315 1570.83997,1282.02258 1570.27124,1282.36371 C1570.82843,1282.29706 1571.35944,1282.14929 1571.8529,1281.92993 C1571.48431,1282.48236 1571.01685,1282.96759 1570.47906,1283.35632 L1570.47906,1283.35632 Z" id="Fill-334"></path>
        </g>
    </g>
</svg>