<?xml version="1.0" encoding="UTF-8"?>
<svg width="26px" height="26px" viewBox="0 0 26 26" version="1.1" xmlns="http://www.w3.org/2000/svg" xmlns:xlink="http://www.w3.org/1999/xlink">
    <!-- Generator: Sketch 64 (93537) - https://sketch.com -->
    <title>Group 26</title>
    <desc>Created with Sketch.</desc>
    <g id="Page-1" stroke="none" stroke-width="1" fill="none" fill-rule="evenodd" opacity="0.4">
        <g id="Main" transform="translate(-1839.000000, -51.000000)" fill="#FFFFFF">
            <g id="Group-26" transform="translate(1839.000000, 51.000000)">
                <path d="M13,0 L13.3068563,0.00355044163 C20.3448094,0.16657163 26,5.92286419 26,13 L26,13 L25.9964496,13.3068562 C25.8334284,20.3448074 20.0771358,26 13,26 L13,26 L12.6931438,25.9964496 C5.65519159,25.8334283 0,20.0771338 0,13 L0,13 L0.00355044223,12.6931437 C0.166571658,5.65519062 5.92286517,0 13,0 L13,0 Z M16.309941,18.333344 L10.103314,18.333344 L9.95338605,18.3386318 C8.86374329,18.4157537 8,19.3269487 8,20.444455 L8,20.444455 L8,22.00001 L7.99327227,22.1166312 C7.96888739,22.3265772 7.87947581,22.5166897 7.74570512,22.666301 C9.30670139,23.5167179 11.0969124,24 13,24 L13,24 L13.2884075,23.9962926 C15.2038977,23.9469928 16.9975813,23.4080262 18.5489255,22.4999254 C18.4621994,22.3537862 18.413256,22.1826138 18.413256,22.00001 L18.413256,22.00001 L18.413256,20.444455 L18.4079621,20.2934055 C18.3307579,19.1959519 17.4188032,18.333344 16.309941,18.333344 L16.309941,18.333344 Z M13,2 L12.7115925,2.0037074 C6.76976382,2.15663483 2,7.02129867 2,13 L2,13 L2.0037074,13.2884075 C2.08860252,16.5869149 3.62552788,19.5242235 5.99899941,21.4848492 L6,20.444455 L6.00501543,20.2394714 C6.11159545,18.066315 7.9034963,16.333344 10.103314,16.333344 L10.103314,16.333344 L16.309941,16.333344 L16.5149399,16.3383816 C18.6880163,16.4454298 20.413256,18.2450494 20.413256,20.444455 L20.413256,20.444455 L20.4139863,21.1261539 C22.6175335,19.1145853 24,16.2187388 24,13 L24,13 L23.9962926,12.7115925 C23.8433652,6.76976382 18.9787013,2 13,2 L13,2 Z M13.206585,6.999939 L13.4115839,7.00497661 C15.5846593,7.11202487 17.309899,8.91164542 17.309899,11.111051 L17.309899,11.111051 L17.3048836,11.3160345 C17.1983036,13.4891901 15.4064027,15.222162 13.206585,15.222162 L13.206585,15.222162 L13.0015861,15.2171244 C10.8285107,15.1100761 9.103271,13.3104556 9.103271,11.111051 L9.103271,11.111051 L9.10828643,10.9060674 C9.21486645,8.7329109 11.0067673,6.999939 13.206585,6.999939 L13.206585,6.999939 Z M13.206585,8.999939 L13.0566571,9.00522679 C11.9670143,9.08234866 11.103271,9.99354378 11.103271,11.111051 L11.103271,11.111051 L11.1085649,11.2621005 C11.1857691,12.3595541 12.0977238,13.222162 13.206585,13.222162 L13.206585,13.222162 L13.3565129,13.2168742 C14.4461557,13.1397523 15.309899,12.2285573 15.309899,11.111051 L15.309899,11.111051 L15.3046051,10.9600014 C15.2274009,9.86254686 14.3154462,8.999939 13.206585,8.999939 L13.206585,8.999939 Z" id="Combined-Shape"></path>
            </g>
        </g>
    </g>
</svg>