<?xml version="1.0" encoding="UTF-8"?>
<svg width="30px" height="30px" viewBox="0 0 30 30" version="1.1" xmlns="http://www.w3.org/2000/svg" xmlns:xlink="http://www.w3.org/1999/xlink">
    <!-- Generator: Sketch 64 (93537) - https://sketch.com -->
    <title>Group</title>
    <desc>Created with Sketch.</desc>
    <defs>
        <path d="M30,15 C30,23.284302 23.284302,30 15,30 C6.715698,30 0,23.284302 0,15 C0,6.715698 6.715698,0 15,0 C23.284302,0 30,6.715698 30,15 Z" id="path-1"></path>
    </defs>
    <g id="Page-1" stroke="none" stroke-width="1" fill="none" fill-rule="evenodd">
        <g id="Profile" transform="translate(-718.000000, -2120.000000)">
            <g id="Group" transform="translate(718.000000, 2120.000000)">
                <g id="Group-350">
                    <mask id="mask-2" fill="white">
                        <use xlink:href="#path-1"></use>
                    </mask>
                    <g id="Clip-349"></g>
                    <path d="M28,15 C28,22.179701 22.179701,28 15,28 L15,32 C24.388842,32 32,24.388842 32,15 L28,15 Z M15,28 C7.820298,28 2,22.179701 2,15 L-2,15 C-2,24.388842 5.611159,32 15,32 L15,28 Z M2,15 C2,7.820297 7.820298,2 15,2 L15,-2 C5.611159,-2 -2,5.61116 -2,15 L2,15 Z M15,2 C22.179701,2 28,7.820297 28,15 L32,15 C32,5.61116 24.388842,-2 15,-2 L15,2 Z" id="Fill-348" fill="#40D04F" mask="url(#mask-2)"></path>
                </g>
                <polygon id="Fill-351" fill="#40D04F" points="13.033502 19.950001 10.752001 16.669501 8.511 19.950001 6 19.950001 9.496501 15.144001 6.1755 10.5 8.6595 10.5 10.833001 13.564501 12.966002 10.5 15.328501 10.5 12.034501 15.063001 15.558002 19.950001"></polygon>
                <path d="M20.504486,10.5 C21.341487,10.5 22.065987,10.639499 22.677986,10.9185 C23.298986,11.1975 23.775986,11.5935 24.108986,12.1065 C24.441986,12.6195 24.608486,13.227 24.608486,13.929001 C24.608486,14.622001 24.441986,15.229501 24.108986,15.7515 C23.775986,16.2645 23.298986,16.660501 22.677986,16.939501 C22.065987,17.209501 21.341487,17.344501 20.504486,17.344501 L18.600986,17.344501 L18.600986,19.950001 L16.413985,19.950001 L16.413985,10.5 L20.504486,10.5 Z M20.382986,15.562501 C21.039986,15.562501 21.539487,15.423001 21.881487,15.144001 C22.223486,14.856001 22.394485,14.451001 22.394485,13.929001 C22.394485,13.398001 22.223486,12.993001 21.881487,12.714001 C21.539487,12.426 21.039986,12.282 20.382986,12.282 L18.600986,12.282 L18.600986,15.562501 L20.382986,15.562501 Z" id="Fill-352" fill="#40D04F"></path>
            </g>
        </g>
    </g>
</svg>