<svg width="420" height="181" viewBox="0 0 420 181" fill="none" xmlns="http://www.w3.org/2000/svg">
<g filter="url(#filter0_d)">
<path d="M119.825 83.056L117.82 85.2875C117.831 85.2977 117.842 85.3077 117.854 85.3177L119.825 83.056ZM126.265 135.128L123.721 133.538C123.718 133.542 123.715 133.546 123.713 133.551L126.265 135.128ZM106.761 151.688L108.042 154.401C108.052 154.396 108.062 154.391 108.072 154.386L106.761 151.688ZM46.5926 155L45.9503 157.93L45.9586 157.932L46.5926 155ZM23.0406 146.352L20.3149 145.099C19.6627 146.517 20.2075 148.199 21.5676 148.965L23.0406 146.352ZM37.7606 114.336L39.2426 111.728C38.512 111.312 37.6408 111.223 36.8409 111.48C36.0411 111.738 35.3859 112.319 35.0349 113.083L37.7606 114.336ZM54.6886 121.328L53.9044 124.224C53.9094 124.225 53.9143 124.226 53.9193 124.228L54.6886 121.328ZM84.3126 121.144L85.7784 123.762C85.7896 123.755 85.8007 123.749 85.8118 123.743L84.3126 121.144ZM84.8646 106.792L83.3885 109.404C83.4177 109.42 83.4472 109.436 83.4769 109.452L84.8646 106.792ZM32.2406 104.4L29.2507 104.154C29.1819 104.989 29.4659 105.816 30.034 106.432C30.602 107.049 31.4022 107.4 32.2406 107.4V104.4ZM38.6806 26.2V23.2C37.1192 23.2 35.8189 24.3976 35.6907 25.9538L38.6806 26.2ZM124.241 26.2H127.241C127.241 24.5431 125.897 23.2 124.241 23.2V26.2ZM124.241 58.952V61.952C125.897 61.952 127.241 60.6088 127.241 58.952H124.241ZM74.3766 58.952V55.952C72.8039 55.952 71.4981 57.1666 71.3845 58.7352L74.3766 58.952ZM73.4566 71.648L70.4645 71.4312C70.4042 72.2623 70.6924 73.0811 71.26 73.6912C71.8275 74.3014 72.6233 74.648 73.4566 74.648V71.648ZM80.0806 74.648C97.7841 74.648 110.15 78.3963 117.82 85.2875L121.83 80.8245C112.571 72.505 98.4411 68.648 80.0806 68.648V74.648ZM117.854 85.3177C125.732 92.1829 129.705 101.205 129.705 112.68H135.705C135.705 99.6216 131.091 88.8945 121.796 80.7943L117.854 85.3177ZM129.705 112.68C129.705 120.213 127.716 127.145 123.721 133.538L128.809 136.718C133.4 129.372 135.705 121.339 135.705 112.68H129.705ZM123.713 133.551C119.905 139.71 113.892 144.886 105.449 148.99L108.072 154.386C117.294 149.903 124.283 144.039 128.816 136.705L123.713 133.551ZM105.48 148.975C97.1611 152.903 86.6516 154.944 73.8246 154.944V160.944C87.2483 160.944 98.6962 158.814 108.042 154.401L105.48 148.975ZM73.8246 154.944C64.9653 154.944 56.1005 153.986 47.2266 152.068L45.9586 157.932C55.2395 159.939 64.5293 160.944 73.8246 160.944V154.944ZM47.2349 152.07C38.5195 150.159 30.9581 147.371 24.5137 143.739L21.5676 148.965C28.6164 152.938 36.7564 155.915 45.9503 157.93L47.2349 152.07ZM25.7663 147.605L40.4863 115.589L35.0349 113.083L20.3149 145.099L25.7663 147.605ZM36.2786 116.944C41.8916 120.134 47.7683 122.562 53.9044 124.224L55.4729 118.432C49.8329 116.905 44.4243 114.672 39.2426 111.728L36.2786 116.944ZM53.9193 124.228C60.1557 125.882 66.2413 126.72 72.1686 126.72V120.72C66.8106 120.72 61.2429 119.963 55.4579 118.428L53.9193 124.228ZM72.1686 126.72C77.5033 126.72 82.112 125.815 85.7784 123.762L82.8468 118.526C80.3799 119.908 76.8926 120.72 72.1686 120.72V126.72ZM85.8118 123.743C89.7583 121.466 92.0966 118.046 92.0966 113.6H86.0966C86.0966 115.533 85.2456 117.142 82.8135 118.545L85.8118 123.743ZM92.0966 113.6C92.0966 111.591 91.629 109.691 90.5865 108.014C89.5478 106.343 88.0476 105.069 86.2523 104.132L83.4769 109.452C84.5029 109.987 85.1188 110.583 85.4908 111.182C85.859 111.774 86.0966 112.542 86.0966 113.6H92.0966ZM86.3408 104.18C82.7739 102.164 76.9679 101.4 69.5926 101.4V107.4C76.9374 107.4 81.3127 108.23 83.3885 109.404L86.3408 104.18ZM69.5926 101.4H32.2406V107.4H69.5926V101.4ZM35.2305 104.646L41.6705 26.4462L35.6907 25.9538L29.2507 104.154L35.2305 104.646ZM38.6806 29.2H124.241V23.2H38.6806V29.2ZM121.241 26.2V58.952H127.241V26.2H121.241ZM124.241 55.952H74.3766V61.952H124.241V55.952ZM71.3845 58.7352L70.4645 71.4312L76.4488 71.8648L77.3688 59.1688L71.3845 58.7352ZM73.4566 74.648H80.0806V68.648H73.4566V74.648ZM174.867 150.032L173.286 152.582C173.3 152.591 173.314 152.599 173.328 152.608L174.867 150.032ZM154.258 126.848L151.556 128.15C151.562 128.164 151.569 128.177 151.575 128.19L154.258 126.848ZM154.258 54.536L151.569 53.2073C151.567 53.2118 151.564 53.2163 151.562 53.2207L154.258 54.536ZM174.867 31.352L176.421 33.9181L176.431 33.9118L174.867 31.352ZM235.402 31.352L233.822 33.902C233.836 33.9107 233.85 33.9192 233.864 33.9276L235.402 31.352ZM256.01 54.536L253.308 55.8384C253.314 55.8515 253.321 55.8646 253.327 55.8776L256.01 54.536ZM256.01 126.848L253.321 125.519C253.319 125.524 253.316 125.528 253.314 125.533L256.01 126.848ZM235.402 150.032L236.957 152.598L236.967 152.592L235.402 150.032ZM205.227 154.944C194.299 154.944 184.722 152.424 176.405 147.456L173.328 152.608C182.675 158.19 193.338 160.944 205.227 160.944V154.944ZM176.447 147.482C168.255 142.406 161.748 135.118 156.942 125.506L151.575 128.19C156.828 138.695 164.059 146.864 173.286 152.582L176.447 147.482ZM156.961 125.546C152.291 115.855 149.898 104.238 149.898 90.6H143.898C143.898 104.93 146.413 117.478 151.556 128.15L156.961 125.546ZM149.898 90.6C149.898 76.9609 152.291 65.411 156.955 55.8513L151.562 53.2207C146.412 63.7783 143.898 76.2711 143.898 90.6H149.898ZM156.948 55.8647C161.755 46.1345 168.255 38.8634 176.421 33.9181L173.312 28.7859C164.059 34.3899 156.821 42.5748 151.569 53.2073L156.948 55.8647ZM176.431 33.9118C184.745 28.8313 194.312 26.256 205.227 26.256V20.256C193.325 20.256 182.652 23.0781 173.302 28.7921L176.431 33.9118ZM205.227 26.256C216.141 26.256 225.64 28.8314 233.822 33.902L236.983 28.802C227.746 23.0779 217.128 20.256 205.227 20.256V26.256ZM233.864 33.9276C242.142 38.8715 248.63 46.132 253.308 55.8384L258.713 53.2336C253.577 42.5773 246.327 34.3818 236.941 28.7764L233.864 33.9276ZM253.327 55.8776C258.104 65.4307 260.555 76.9708 260.555 90.6H266.555C266.555 76.2612 263.976 63.7586 258.694 53.1944L253.327 55.8776ZM260.555 90.6C260.555 104.228 258.104 115.836 253.321 125.519L258.7 128.177C263.975 117.498 266.555 104.94 266.555 90.6H260.555ZM253.314 125.533C248.637 135.121 242.142 142.398 233.838 147.472L236.967 152.592C246.327 146.872 253.57 138.693 258.707 128.163L253.314 125.533ZM233.848 147.466C225.662 152.424 216.154 154.944 205.227 154.944V160.944C217.115 160.944 227.724 158.19 236.957 152.598L233.848 147.466ZM205.227 126.168C208.271 126.168 211.053 125.313 213.447 123.547C215.807 121.806 217.624 119.306 219 116.262C221.719 110.246 222.947 101.588 222.947 90.6H216.947C216.947 101.324 215.72 108.95 213.533 113.79C212.455 116.174 211.206 117.745 209.886 118.718C208.6 119.666 207.089 120.168 205.227 120.168V126.168ZM222.947 90.6C222.947 79.6117 221.719 70.9544 219 64.9384C217.624 61.8941 215.807 59.3936 213.447 57.6531C211.053 55.8873 208.271 55.032 205.227 55.032V61.032C207.089 61.032 208.6 61.5337 209.886 62.4819C211.206 63.4554 212.455 65.0259 213.533 67.4096C215.72 72.2496 216.947 79.8763 216.947 90.6H222.947ZM205.227 55.032C202.182 55.032 199.4 55.8873 197.006 57.6531C194.646 59.3936 192.829 61.8941 191.453 64.9384C188.734 70.9544 187.507 79.6117 187.507 90.6H193.507C193.507 79.8763 194.733 72.2496 196.92 67.4096C197.998 65.0259 199.247 63.4554 200.567 62.4819C201.853 61.5337 203.364 61.032 205.227 61.032V55.032ZM187.507 90.6C187.507 101.588 188.734 110.246 191.453 116.262C192.829 119.306 194.646 121.806 197.006 123.547C199.4 125.313 202.182 126.168 205.227 126.168V120.168C203.364 120.168 201.853 119.666 200.567 118.718C199.247 117.745 197.998 116.174 196.92 113.79C194.733 108.95 193.507 101.324 193.507 90.6H187.507ZM307.785 150.032L306.205 152.582C306.219 152.591 306.233 152.599 306.247 152.608L307.785 150.032ZM287.177 126.848L284.474 128.15C284.481 128.164 284.487 128.177 284.494 128.19L287.177 126.848ZM287.177 54.536L284.487 53.2073C284.485 53.2118 284.483 53.2163 284.481 53.2207L287.177 54.536ZM307.785 31.352L309.339 33.9181L309.349 33.9118L307.785 31.352ZM368.321 31.352L366.741 33.902C366.755 33.9107 366.769 33.9192 366.783 33.9276L368.321 31.352ZM388.929 54.536L386.226 55.8384C386.233 55.8515 386.239 55.8646 386.246 55.8776L388.929 54.536ZM388.929 126.848L386.239 125.519C386.237 125.524 386.235 125.528 386.233 125.533L388.929 126.848ZM368.321 150.032L369.875 152.598L369.885 152.592L368.321 150.032ZM338.145 154.944C327.218 154.944 317.641 152.424 309.323 147.456L306.247 152.608C315.593 158.19 326.256 160.944 338.145 160.944V154.944ZM309.365 147.482C301.174 142.406 294.666 135.118 289.86 125.506L284.494 128.19C289.746 138.695 296.977 146.864 306.205 152.582L309.365 147.482ZM289.879 125.546C285.209 115.855 282.817 104.238 282.817 90.6H276.817C276.817 104.93 279.331 117.478 284.474 128.15L289.879 125.546ZM282.817 90.6C282.817 76.9609 285.21 65.411 289.873 55.8513L284.481 53.2207C279.331 63.7783 276.817 76.2711 276.817 90.6H282.817ZM289.867 55.8647C294.673 46.1345 301.173 38.8634 309.339 33.9181L306.231 28.7859C296.978 34.3899 289.739 42.5748 284.487 53.2073L289.867 55.8647ZM309.349 33.9118C317.663 28.8313 327.231 26.256 338.145 26.256V20.256C326.243 20.256 315.571 23.0781 306.221 28.7921L309.349 33.9118ZM338.145 26.256C349.06 26.256 358.558 28.8314 366.741 33.902L369.901 28.802C360.665 23.0779 350.046 20.256 338.145 20.256V26.256ZM366.783 33.9276C375.061 38.8715 381.549 46.132 386.226 55.8384L391.631 53.2336C386.496 42.5773 379.245 34.3818 369.859 28.7764L366.783 33.9276ZM386.246 55.8776C391.022 65.4307 393.473 76.9708 393.473 90.6H399.473C399.473 76.2612 396.894 63.7586 391.612 53.1944L386.246 55.8776ZM393.473 90.6C393.473 104.228 391.023 115.836 386.239 125.519L391.619 128.177C396.894 117.498 399.473 104.94 399.473 90.6H393.473ZM386.233 125.533C381.556 135.121 375.061 142.398 366.757 147.472L369.885 152.592C379.245 146.872 386.489 138.693 391.625 128.163L386.233 125.533ZM366.767 147.466C358.581 152.424 349.073 154.944 338.145 154.944V160.944C350.033 160.944 360.642 158.19 369.875 152.598L366.767 147.466ZM338.145 126.168C341.189 126.168 343.971 125.313 346.366 123.547C348.726 121.806 350.543 119.306 351.919 116.262C354.638 110.246 355.865 101.588 355.865 90.6H349.865C349.865 101.324 348.639 108.95 346.451 113.79C345.374 116.174 344.124 117.745 342.804 118.718C341.519 119.666 340.007 120.168 338.145 120.168V126.168ZM355.865 90.6C355.865 79.6117 354.638 70.9544 351.919 64.9384C350.543 61.8941 348.726 59.3936 346.366 57.6531C343.971 55.8873 341.189 55.032 338.145 55.032V61.032C340.007 61.032 341.519 61.5337 342.804 62.4819C344.124 63.4554 345.374 65.0259 346.451 67.4096C348.639 72.2496 349.865 79.8763 349.865 90.6H355.865ZM338.145 55.032C335.1 55.032 332.319 55.8873 329.924 57.6531C327.564 59.3936 325.747 61.8941 324.371 64.9384C321.652 70.9544 320.425 79.6117 320.425 90.6H326.425C326.425 79.8763 327.651 72.2496 329.839 67.4096C330.916 65.0259 332.166 63.4554 333.486 62.4819C334.771 61.5337 336.283 61.032 338.145 61.032V55.032ZM320.425 90.6C320.425 101.588 321.652 110.246 324.371 116.262C325.747 119.306 327.564 121.806 329.924 123.547C332.319 125.313 335.1 126.168 338.145 126.168V120.168C336.283 120.168 334.771 119.666 333.486 118.718C332.166 117.745 330.916 116.174 329.839 113.79C327.651 108.95 326.425 101.324 326.425 90.6H320.425Z" fill="#FFC701"/>
</g>
<defs>
<filter id="filter0_d" x="0.0400391" y="0.255859" width="419.433" height="180.688" filterUnits="userSpaceOnUse" color-interpolation-filters="sRGB">
<feFlood flood-opacity="0" result="BackgroundImageFix"/>
<feColorMatrix in="SourceAlpha" type="matrix" values="0 0 0 0 0 0 0 0 0 0 0 0 0 0 0 0 0 0 127 0"/>
<feOffset/>
<feGaussianBlur stdDeviation="10"/>
<feColorMatrix type="matrix" values="0 0 0 0 1 0 0 0 0 0.780863 0 0 0 0 0.00392157 0 0 0 1 0"/>
<feBlend mode="normal" in2="BackgroundImageFix" result="effect1_dropShadow"/>
<feBlend mode="normal" in="SourceGraphic" in2="effect1_dropShadow" result="shape"/>
</filter>
</defs>
</svg>
