<svg width="442" height="181" viewBox="0 0 442 181" fill="none" xmlns="http://www.w3.org/2000/svg">
<g filter="url(#filter0_d)">
<path d="M149.561 132.92V135.92C151.217 135.92 152.561 134.577 152.561 132.92H149.561ZM132.449 132.92V129.92C130.792 129.92 129.449 131.263 129.449 132.92H132.449ZM132.449 155V158C134.105 158 135.449 156.657 135.449 155H132.449ZM90.3126 155H87.3126C87.3126 156.657 88.6557 158 90.3126 158V155ZM90.3126 132.92H93.3126C93.3126 131.263 91.9694 129.92 90.3126 129.92V132.92ZM23.5206 132.92H20.5206C20.5206 134.577 21.8637 135.92 23.5206 135.92V132.92ZM23.5206 105.32L21.0522 103.615C20.706 104.116 20.5206 104.711 20.5206 105.32H23.5206ZM78.1686 26.2V23.2C77.183 23.2 76.2603 23.6841 75.7002 24.495L78.1686 26.2ZM122.697 26.2L125.195 27.8612C125.807 26.9404 125.863 25.7575 125.341 24.7829C124.818 23.8083 123.802 23.2 122.697 23.2V26.2ZM74.1206 99.248L71.6225 97.5868C71.0102 98.5076 70.9541 99.6905 71.4764 100.665C71.9987 101.64 73.0148 102.248 74.1206 102.248V99.248ZM91.6006 99.248V102.248C93.2574 102.248 94.6006 100.905 94.6006 99.248H91.6006ZM91.6006 79.56V76.56C89.9437 76.56 88.6006 77.9031 88.6006 79.56H91.6006ZM132.449 79.56H135.449C135.449 77.9031 134.105 76.56 132.449 76.56V79.56ZM132.449 99.248H129.449C129.449 100.905 130.792 102.248 132.449 102.248V99.248ZM149.561 99.248H152.561C152.561 97.5911 151.217 96.248 149.561 96.248V99.248ZM149.561 129.92H132.449V135.92H149.561V129.92ZM129.449 132.92V155H135.449V132.92H129.449ZM132.449 152H90.3126V158H132.449V152ZM93.3126 155V132.92H87.3126V155H93.3126ZM90.3126 129.92H23.5206V135.92H90.3126V129.92ZM26.5206 132.92V105.32H20.5206V132.92H26.5206ZM25.989 107.025L80.637 27.9049L75.7002 24.495L21.0522 103.615L25.989 107.025ZM78.1686 29.2H122.697V23.2H78.1686V29.2ZM120.199 24.5388L71.6225 97.5868L76.6187 100.909L125.195 27.8612L120.199 24.5388ZM74.1206 102.248H91.6006V96.248H74.1206V102.248ZM94.6006 99.248V79.56H88.6006V99.248H94.6006ZM91.6006 82.56H132.449V76.56H91.6006V82.56ZM129.449 79.56V99.248H135.449V79.56H129.449ZM132.449 102.248H149.561V96.248H132.449V102.248ZM146.561 99.248V132.92H152.561V99.248H146.561ZM189.105 150.032L187.524 152.582C187.538 152.591 187.552 152.599 187.567 152.608L189.105 150.032ZM168.497 126.848L165.794 128.15C165.801 128.164 165.807 128.177 165.814 128.19L168.497 126.848ZM168.497 54.536L165.807 53.2073C165.805 53.2118 165.803 53.2163 165.8 53.2207L168.497 54.536ZM189.105 31.352L190.659 33.9181L190.669 33.9118L189.105 31.352ZM249.641 31.352L248.06 33.902C248.074 33.9107 248.088 33.9192 248.103 33.9276L249.641 31.352ZM270.249 54.536L267.546 55.8384C267.553 55.8515 267.559 55.8646 267.566 55.8776L270.249 54.536ZM270.249 126.848L267.559 125.519C267.557 125.524 267.555 125.528 267.552 125.533L270.249 126.848ZM249.641 150.032L251.195 152.598L251.205 152.592L249.641 150.032ZM219.465 154.944C208.538 154.944 198.961 152.424 190.643 147.456L187.567 152.608C196.913 158.19 207.576 160.944 219.465 160.944V154.944ZM190.685 147.482C182.494 142.406 175.986 135.118 171.18 125.506L165.814 128.19C171.066 138.695 178.297 146.864 187.524 152.582L190.685 147.482ZM171.199 125.546C166.529 115.855 164.137 104.238 164.137 90.6H158.137C158.137 104.93 160.651 117.478 165.794 128.15L171.199 125.546ZM164.137 90.6C164.137 76.9609 166.53 65.411 171.193 55.8513L165.8 53.2207C160.65 63.7783 158.137 76.2711 158.137 90.6H164.137ZM171.187 55.8647C175.993 46.1345 182.493 38.8634 190.659 33.9181L187.551 28.7859C178.298 34.3899 171.059 42.5748 165.807 53.2073L171.187 55.8647ZM190.669 33.9118C198.983 28.8313 208.551 26.256 219.465 26.256V20.256C207.563 20.256 196.891 23.0781 187.54 28.7921L190.669 33.9118ZM219.465 26.256C230.38 26.256 239.878 28.8314 248.06 33.902L251.221 28.802C241.985 23.0779 231.366 20.256 219.465 20.256V26.256ZM248.103 33.9276C256.381 38.8715 262.868 46.132 267.546 55.8384L272.951 53.2336C267.816 42.5773 260.565 34.3818 251.179 28.7764L248.103 33.9276ZM267.566 55.8776C272.342 65.4307 274.793 76.9708 274.793 90.6H280.793C280.793 76.2612 278.214 63.7586 272.932 53.1944L267.566 55.8776ZM274.793 90.6C274.793 104.228 272.343 115.836 267.559 125.519L272.939 128.177C278.214 117.498 280.793 104.94 280.793 90.6H274.793ZM267.552 125.533C262.875 135.121 256.38 142.398 248.076 147.472L251.205 152.592C260.565 146.872 267.809 138.693 272.945 128.163L267.552 125.533ZM248.087 147.466C239.901 152.424 230.393 154.944 219.465 154.944V160.944C231.353 160.944 241.962 158.19 251.195 152.598L248.087 147.466ZM219.465 126.168C222.509 126.168 225.291 125.313 227.685 123.547C230.045 121.806 231.863 119.306 233.239 116.262C235.958 110.246 237.185 101.588 237.185 90.6H231.185C231.185 101.324 229.959 108.95 227.771 113.79C226.694 116.174 225.444 117.745 224.124 118.718C222.839 119.666 221.327 120.168 219.465 120.168V126.168ZM237.185 90.6C237.185 79.6117 235.958 70.9544 233.239 64.9384C231.863 61.8941 230.045 59.3936 227.685 57.6531C225.291 55.8873 222.509 55.032 219.465 55.032V61.032C221.327 61.032 222.839 61.5337 224.124 62.4819C225.444 63.4554 226.694 65.0259 227.771 67.4096C229.959 72.2496 231.185 79.8763 231.185 90.6H237.185ZM219.465 55.032C216.42 55.032 213.639 55.8873 211.244 57.6531C208.884 59.3936 207.067 61.8941 205.691 64.9384C202.972 70.9544 201.745 79.6117 201.745 90.6H207.745C207.745 79.8763 208.971 72.2496 211.159 67.4096C212.236 65.0259 213.485 63.4554 214.805 62.4819C216.091 61.5337 217.603 61.032 219.465 61.032V55.032ZM201.745 90.6C201.745 101.588 202.972 110.246 205.691 116.262C207.067 119.306 208.884 121.806 211.244 123.547C213.639 125.313 216.42 126.168 219.465 126.168V120.168C217.603 120.168 216.091 119.666 214.805 118.718C213.485 117.745 212.236 116.174 211.159 113.79C208.971 108.95 207.745 101.324 207.745 90.6H201.745ZM418.991 132.92V135.92C420.648 135.92 421.991 134.577 421.991 132.92H418.991ZM401.879 132.92V129.92C400.222 129.92 398.879 131.263 398.879 132.92H401.879ZM401.879 155V158C403.536 158 404.879 156.657 404.879 155H401.879ZM359.743 155H356.743C356.743 156.657 358.086 158 359.743 158V155ZM359.743 132.92H362.743C362.743 131.263 361.4 129.92 359.743 129.92V132.92ZM292.951 132.92H289.951C289.951 134.577 291.294 135.92 292.951 135.92V132.92ZM292.951 105.32L290.483 103.615C290.137 104.116 289.951 104.711 289.951 105.32H292.951ZM347.599 26.2V23.2C346.614 23.2 345.691 23.6841 345.131 24.495L347.599 26.2ZM392.127 26.2L394.625 27.8612C395.238 26.9404 395.294 25.7575 394.771 24.7829C394.249 23.8083 393.233 23.2 392.127 23.2V26.2ZM343.551 99.248L341.053 97.5868C340.441 98.5076 340.385 99.6905 340.907 100.665C341.429 101.64 342.445 102.248 343.551 102.248V99.248ZM361.031 99.248V102.248C362.688 102.248 364.031 100.905 364.031 99.248H361.031ZM361.031 79.56V76.56C359.374 76.56 358.031 77.9031 358.031 79.56H361.031ZM401.879 79.56H404.879C404.879 77.9031 403.536 76.56 401.879 76.56V79.56ZM401.879 99.248H398.879C398.879 100.905 400.222 102.248 401.879 102.248V99.248ZM418.991 99.248H421.991C421.991 97.5911 420.648 96.248 418.991 96.248V99.248ZM418.991 129.92H401.879V135.92H418.991V129.92ZM398.879 132.92V155H404.879V132.92H398.879ZM401.879 152H359.743V158H401.879V152ZM362.743 155V132.92H356.743V155H362.743ZM359.743 129.92H292.951V135.92H359.743V129.92ZM295.951 132.92V105.32H289.951V132.92H295.951ZM295.42 107.025L350.068 27.9049L345.131 24.495L290.483 103.615L295.42 107.025ZM347.599 29.2H392.127V23.2H347.599V29.2ZM389.629 24.5388L341.053 97.5868L346.049 100.909L394.625 27.8612L389.629 24.5388ZM343.551 102.248H361.031V96.248H343.551V102.248ZM364.031 99.248V79.56H358.031V99.248H364.031ZM361.031 82.56H401.879V76.56H361.031V82.56ZM398.879 79.56V99.248H404.879V79.56H398.879ZM401.879 102.248H418.991V96.248H401.879V102.248ZM415.991 99.248V132.92H421.991V99.248H415.991Z" fill="#FFC701"/>
</g>
<defs>
<filter id="filter0_d" x="0.520508" y="0.255981" width="441.471" height="180.688" filterUnits="userSpaceOnUse" color-interpolation-filters="sRGB">
<feFlood flood-opacity="0" result="BackgroundImageFix"/>
<feColorMatrix in="SourceAlpha" type="matrix" values="0 0 0 0 0 0 0 0 0 0 0 0 0 0 0 0 0 0 127 0"/>
<feOffset/>
<feGaussianBlur stdDeviation="10"/>
<feColorMatrix type="matrix" values="0 0 0 0 1 0 0 0 0 0.780863 0 0 0 0 0.00392157 0 0 0 1 0"/>
<feBlend mode="normal" in2="BackgroundImageFix" result="effect1_dropShadow"/>
<feBlend mode="normal" in="SourceGraphic" in2="effect1_dropShadow" result="shape"/>
</filter>
</defs>
</svg>
