<svg width="54" height="53" viewBox="0 0 54 53" fill="none" xmlns="http://www.w3.org/2000/svg">
<g filter="url(#filter0_d)">
<path d="M25.3503 12.1761C26.1447 11.0169 27.8553 11.0169 28.6497 12.1761L32.6255 17.9771C33.1456 18.7361 33.9114 19.2925 34.7939 19.5526L41.5396 21.5411C42.8875 21.9385 43.4162 23.5654 42.5592 24.6791L38.2707 30.2529C37.7096 30.9821 37.4171 31.8824 37.4424 32.8021L37.6357 39.8321C37.6744 41.2368 36.2904 42.2423 34.9664 41.7715L28.3402 39.4152C27.4733 39.107 26.5267 39.107 25.6598 39.4152L19.0336 41.7715C17.7096 42.2423 16.3256 41.2368 16.3643 39.8321L16.5576 32.8021C16.5829 31.8824 16.2904 30.9821 15.7293 30.2529L11.4408 24.6791C10.5838 23.5654 11.1125 21.9385 12.4604 21.5411L19.2061 19.5526C20.0886 19.2925 20.8544 18.7361 21.3745 17.9771L25.3503 12.1761Z" stroke="#FFC701" stroke-width="2"/>
</g>
<defs>
<filter id="filter0_d" x="0.0234375" y="0.306641" width="53.9518" height="52.5831" filterUnits="userSpaceOnUse" color-interpolation-filters="sRGB">
<feFlood flood-opacity="0" result="BackgroundImageFix"/>
<feColorMatrix in="SourceAlpha" type="matrix" values="0 0 0 0 0 0 0 0 0 0 0 0 0 0 0 0 0 0 127 0"/>
<feOffset/>
<feGaussianBlur stdDeviation="5"/>
<feColorMatrix type="matrix" values="0 0 0 0 1 0 0 0 0 0.780863 0 0 0 0 0.00392157 0 0 0 0.7 0"/>
<feBlend mode="normal" in2="BackgroundImageFix" result="effect1_dropShadow"/>
<feBlend mode="normal" in="SourceGraphic" in2="effect1_dropShadow" result="shape"/>
</filter>
</defs>
</svg>
